<svg xmlns="http://www.w3.org/2000/svg" width="543" height="504" viewBox="0 0 543 504" version="1.1">
	<path d="M 150.830 112.875 C 96.638 145.577, 65.855 198.957, 68.582 255.500 C 69.283 270.032, 73.428 295.408, 75.746 299.356 C 76.023 299.826, 78.603 295.716, 81.480 290.221 C 84.357 284.726, 88.133 278.250, 89.870 275.830 C 92.928 271.573, 92.996 271.254, 91.989 265.965 C 90.488 258.083, 89.038 229.936, 89.716 221.848 C 90.230 215.718, 90.111 215.020, 88.647 215.582 C 87.698 215.946, 87 215.720, 87 215.048 C 87 214.407, 86.550 214.160, 86 214.500 C 85.450 214.840, 85 214.386, 85 213.492 C 85 212.288, 84.447 212.041, 82.875 212.540 C 81.445 212.994, 80.973 212.852, 81.434 212.107 C 81.810 211.498, 81.754 210.963, 81.309 210.917 C 80.864 210.871, 79.487 210.721, 78.250 210.584 C 77.013 210.447, 76 210.784, 76 211.334 C 76 211.884, 75.763 212.096, 75.472 211.806 C 73.661 209.994, 88.576 174.497, 93.880 168 C 95.860 165.574, 95.903 165.566, 95.343 167.750 C 94.916 169.418, 95.200 170, 96.442 170 C 97.467 170, 97.837 170.454, 97.395 171.170 C 96.900 171.971, 97.231 172.125, 98.447 171.659 C 99.747 171.160, 100.073 171.369, 99.662 172.438 C 99.267 173.467, 99.578 173.715, 100.715 173.279 C 101.789 172.867, 102.087 173.051, 101.605 173.830 C 100.209 176.089, 102.118 177.203, 104.183 175.334 C 106.132 173.571, 106.145 173.587, 104.937 176.238 C 104.261 177.723, 103.329 178.703, 102.865 178.417 C 102.402 178.130, 102.316 178.659, 102.674 179.592 C 103.161 180.862, 104.045 179.862, 106.198 175.606 C 107.778 172.480, 108.760 169.421, 108.381 168.807 C 108.001 168.193, 108.120 167.956, 108.645 168.281 C 109.170 168.605, 111.676 165.412, 114.214 161.185 C 124.136 144.664, 144.715 120.969, 158.500 110.194 C 164.732 105.322, 161.438 106.474, 150.830 112.875 M 208.042 149.595 C 208.019 150.197, 208.954 151.547, 210.120 152.595 C 218.881 160.468, 231.183 189.156, 236.024 213 C 238.946 227.398, 239.681 249.355, 237.678 262.434 L 236.157 272.367 239.097 276.641 C 243.033 282.362, 251 297.678, 251 299.524 C 251 300.336, 251.402 301, 251.893 301 C 252.960 301, 254.271 297.937, 253.524 297.190 C 253.236 296.902, 252.993 297.304, 252.985 298.083 C 252.977 298.862, 251.041 295.675, 248.683 291 C 246.325 286.325, 242.796 280.126, 240.840 277.225 L 237.285 271.950 238.698 263.225 C 240.205 253.927, 241.007 223.999, 239.750 224 C 239.338 224, 239 223.559, 239 223.020 C 239 222.481, 241.014 223.164, 243.476 224.538 C 246.721 226.350, 247.791 226.620, 247.369 225.519 C 247.048 224.683, 246.384 224, 245.893 224 C 245.402 224, 245 223.530, 245 222.956 C 245 222.382, 245.563 221.985, 246.250 222.075 C 249.081 222.442, 249.916 221.943, 249.299 220.250 C 248.721 218.664, 248.862 218.677, 250.803 220.380 L 252.945 222.260 250.927 214.980 C 249.818 210.976, 248.446 206.832, 247.878 205.772 C 247.310 204.711, 247.100 203.181, 247.412 202.370 C 247.723 201.559, 247.616 201.119, 247.175 201.392 C 246.209 201.989, 239.750 189.214, 240.447 188.086 C 240.716 187.651, 240.251 186.441, 239.413 185.397 C 237.988 183.623, 237.961 183.662, 239 186 C 240.060 188.387, 240.039 188.411, 238.533 186.529 C 237.666 185.444, 237.171 183.996, 237.434 183.311 C 237.697 182.625, 237.413 181.755, 236.802 181.378 C 236.082 180.933, 235.976 181.152, 236.500 182 C 237.051 182.892, 236.920 183.068, 236.086 182.553 C 235.414 182.138, 235.100 181.183, 235.388 180.431 C 235.677 179.679, 235.413 178.755, 234.802 178.378 C 234.129 177.962, 233.972 178.146, 234.405 178.845 C 235.925 181.305, 234.132 179.849, 232.440 177.250 C 230.690 174.560, 230.693 174.531, 232.575 175.896 C 233.634 176.663, 232.786 175.763, 230.692 173.896 C 228.597 172.028, 226.771 169.715, 226.634 168.755 C 226.324 166.592, 220.985 160.891, 219.897 161.564 C 219.052 162.086, 216.427 158.022, 216.788 156.750 C 216.904 156.338, 216.594 156.113, 216.099 156.250 C 215.603 156.387, 213.596 154.700, 211.640 152.500 C 209.684 150.300, 208.065 148.993, 208.042 149.595 M 220 162.313 C 220 162.485, 221.463 163.948, 223.250 165.563 L 226.500 168.500 223.563 165.250 C 220.825 162.221, 220 161.540, 220 162.313 M 228 170.378 C 228 170.585, 228.787 171.373, 229.750 172.128 C 231.336 173.371, 231.371 173.336, 230.128 171.750 C 228.821 170.084, 228 169.555, 228 170.378 M 101.624 183.539 C 100.659 186.053, 100.943 186.702, 102.122 184.675 C 102.706 183.671, 102.973 182.639, 102.715 182.382 C 102.458 182.124, 101.966 182.645, 101.624 183.539 M 52.372 195.250 C -1.903 251.339, -11.240 335.254, 29.379 401.895 C 53.992 442.274, 93.547 474.391, 139.697 491.467 C 146.189 493.869, 153.969 496.772, 156.986 497.917 C 160.003 499.063, 162.606 500, 162.770 500 C 162.934 500, 159.098 496.669, 154.247 492.599 C 125.464 468.449, 103.416 435.428, 95.925 405.250 C 95.208 402.363, 94.319 400, 93.950 400 C 93.580 400, 93.505 398.808, 93.784 397.351 C 94.165 395.355, 93.970 394.901, 92.990 395.506 C 92.147 396.027, 91.934 395.915, 92.384 395.187 C 93.259 393.772, 92.002 383.881, 91.024 384.485 C 90.626 384.731, 90.490 382.585, 90.722 379.716 C 90.977 376.566, 90.797 374.992, 90.268 375.742 C 89.749 376.478, 89.460 372.196, 89.559 365.242 C 89.710 354.622, 89.662 354.265, 89.050 361.500 L 88.373 369.500 88.186 358.347 C 88.056 350.530, 88.596 344.248, 89.991 337.347 C 91.085 331.931, 92.017 327.050, 92.061 326.500 C 92.105 325.950, 92.564 326.400, 93.081 327.500 C 93.772 328.970, 93.876 328.440, 93.474 325.500 C 93.050 322.410, 93.180 321.841, 94.044 323 C 94.924 324.181, 95.030 323.898, 94.541 321.666 C 94.090 319.607, 94.247 319.035, 95.117 319.573 C 95.966 320.097, 96.143 319.655, 95.725 318.057 C 95.401 316.817, 95.407 316.074, 95.739 316.405 C 96.071 316.737, 97.623 313.294, 99.188 308.754 C 108.515 281.707, 126.336 255.042, 149.985 232.750 C 155.673 227.387, 159.917 223.002, 159.414 223.004 C 158.034 223.009, 151.718 227.032, 150.194 228.877 C 149.170 230.115, 149.008 230.144, 149.513 229 C 149.876 228.175, 149.195 228.625, 148 230 C 146.805 231.375, 146.186 231.825, 146.625 231 C 147.226 229.870, 146.691 229.967, 144.461 231.390 C 137.740 235.680, 129.302 241.936, 127.947 243.634 C 127.151 244.631, 128.525 243.843, 131 241.880 C 133.475 239.918, 137.750 236.839, 140.500 235.037 L 145.500 231.760 141.753 235.216 C 139.692 237.117, 138.232 238.899, 138.509 239.175 C 138.786 239.452, 138.005 240.539, 136.773 241.589 C 134.961 243.136, 134.793 243.167, 135.890 241.750 C 138.119 238.871, 133.631 240.395, 129.660 243.865 C 128.648 244.749, 127.185 245.479, 126.410 245.487 C 124.384 245.506, 107.778 262.251, 101.604 270.500 C 85.132 292.507, 74.806 316.286, 70.338 342.500 C 67.291 360.377, 68.648 391.009, 73.095 404.730 C 74.853 410.154, 73.156 410.570, 68.383 405.885 C 64.074 401.657, 62.320 398.467, 65.750 401.097 C 66.713 401.835, 66.409 401.216, 65.076 399.720 C 62.384 396.700, 60.990 396.012, 63.110 398.750 C 64.214 400.175, 64.050 400.146, 62.233 398.595 C 60.025 396.712, 59.067 394.305, 61 395.500 C 62.628 396.506, 62.140 395.358, 60.308 393.872 C 58.851 392.691, 58.722 392.709, 59.380 394 C 59.801 394.825, 58.987 394.150, 57.571 392.500 C 56.156 390.850, 55.204 388.952, 55.455 388.282 C 55.707 387.612, 55.413 386.755, 54.802 386.378 C 54.129 385.962, 53.972 386.146, 54.405 386.845 C 54.797 387.480, 54.861 388, 54.547 388 C 52.422 388, 37.532 359.663, 38.428 357.326 C 38.730 356.539, 38.567 356.150, 38.065 356.460 C 36.270 357.569, 29.728 337.124, 30.595 333.117 C 31.047 331.030, 30.935 330.804, 30.044 332 C 29.184 333.154, 29.067 332.578, 29.538 329.500 C 29.987 326.561, 29.872 325.898, 29.103 327 C 28.330 328.108, 28.202 327.455, 28.611 324.500 C 29.034 321.448, 28.906 320.856, 28.069 322 C 27.239 323.134, 27.117 322.402, 27.567 319 C 28.014 315.619, 27.891 314.873, 27.074 316 C 26.267 317.114, 26.138 315.956, 26.574 311.500 C 26.993 307.229, 26.864 305.927, 26.129 306.981 C 25.383 308.050, 25.215 306.941, 25.522 302.981 C 25.756 299.966, 26.172 291.425, 26.447 284 C 27.614 252.480, 36.964 223.715, 54.889 196.500 C 61.171 186.962, 61.148 187, 60.727 187 C 60.522 187, 56.762 190.713, 52.372 195.250 M 99.624 188.539 C 98.659 191.053, 98.943 191.702, 100.122 189.675 C 100.706 188.671, 100.973 187.639, 100.715 187.382 C 100.458 187.124, 99.966 187.645, 99.624 188.539 M 268 189.500 C 269.292 190.875, 270.506 192, 270.697 192 C 270.889 192, 270.309 190.875, 269.408 189.500 C 268.507 188.125, 267.293 187, 266.711 187 C 266.128 187, 266.708 188.125, 268 189.500 M 275 194.500 C 276.292 195.875, 277.574 197, 277.849 197 C 278.124 197, 277.292 195.875, 276 194.500 C 274.708 193.125, 273.426 192, 273.151 192 C 272.876 192, 273.708 193.125, 275 194.500 M 274.843 198.500 C 280.368 206.811, 289.211 224.812, 292.813 235.079 C 298.890 252.401, 303.485 280.773, 302.442 294.536 C 302.277 296.716, 301.876 302.525, 301.550 307.445 C 299.816 333.658, 290.201 361.083, 274.548 384.467 C 267.072 395.635, 255.296 409.709, 253.810 409.250 C 253.364 409.112, 253 409.498, 253 410.107 C 253 410.716, 253.646 410.966, 254.435 410.663 C 255.225 410.360, 256.051 410.425, 256.271 410.806 C 256.492 411.188, 256.548 410.970, 256.396 410.323 C 256.005 408.661, 258.675 406.681, 260.111 407.568 C 260.770 407.976, 261.062 407.902, 260.759 407.405 C 260.457 406.907, 260.838 405.920, 261.605 405.211 C 262.502 404.381, 263 404.313, 263 405.020 C 263 405.624, 263.563 405.833, 264.250 405.485 C 264.938 405.137, 264.712 405.497, 263.750 406.286 C 261.750 407.926, 261.365 412.127, 263.250 411.750 C 263.938 411.613, 264.362 412.139, 264.194 412.919 C 263.929 414.145, 264.126 414.145, 265.636 412.919 C 266.752 412.013, 267.113 411.952, 266.633 412.750 C 266.220 413.438, 266.359 414, 266.941 414 C 267.523 414, 268 413.550, 268 413 C 268 412.450, 268.450 412, 269 412 C 270.874 412, 270.006 414.023, 266.527 417.765 C 264.045 420.434, 263.046 421.017, 263.027 419.809 C 263.012 418.879, 263.450 417.840, 264 417.500 C 265.957 416.291, 265.036 414.910, 263 416 C 261.543 416.780, 261 416.760, 261 415.928 C 261 415.300, 260.325 415.045, 259.500 415.362 C 258.675 415.678, 258 415.527, 258 415.026 C 258 414.525, 257.039 414.300, 255.865 414.526 C 254.690 414.752, 253.968 414.699, 254.260 414.407 C 254.551 414.115, 253.705 412.706, 252.379 411.275 C 250.895 409.673, 250.187 407.987, 250.537 406.884 C 250.978 405.494, 250.647 405.183, 249.052 405.490 C 246.695 405.944, 246.587 405.641, 248.100 402.814 C 248.899 401.319, 248.899 400.944, 248.100 401.438 C 247.495 401.812, 247 401.668, 247 401.118 C 247 400.568, 247.450 399.840, 248 399.500 C 248.550 399.160, 248.948 398.121, 248.884 397.191 C 248.780 395.679, 248.719 395.687, 248.308 397.262 C 248.055 398.231, 247.524 398.824, 247.127 398.578 C 246.729 398.333, 245.751 398.595, 244.952 399.160 C 243.822 399.960, 243.944 400.044, 245.500 399.535 C 247.026 399.037, 247.224 399.159, 246.337 400.054 C 244.217 402.191, 242.683 400.016, 244.685 397.712 C 246.290 395.863, 246.104 395.898, 243.069 398.008 C 241.183 399.320, 239.948 399.893, 240.326 399.282 C 240.703 398.671, 240.451 397.984, 239.765 397.755 C 238.853 397.451, 238.967 396.891, 240.187 395.670 C 242.013 393.844, 243.481 393.413, 242.507 394.989 C 242.167 395.539, 242.535 395.732, 243.338 395.424 C 244.472 394.988, 244.261 394.352, 242.344 392.435 C 239.403 389.494, 239 389.434, 239 391.941 C 239 393.009, 238.550 394.160, 238 394.500 C 236.395 395.492, 236.850 391.293, 238.529 389.614 C 239.370 388.773, 240.832 388.333, 241.779 388.637 C 243.098 389.060, 243.183 388.962, 242.143 388.219 C 241.315 387.627, 241.173 387.011, 241.780 386.636 C 242.326 386.298, 243.299 386.656, 243.942 387.430 C 244.861 388.537, 244.725 389.063, 243.305 389.889 C 242.312 390.467, 241.972 390.953, 242.550 390.970 C 243.127 390.986, 244.134 390.466, 244.786 389.814 C 246.611 387.989, 250.594 387.579, 249.109 389.369 C 248.208 390.454, 248.290 390.897, 249.474 391.352 C 250.459 391.729, 251 391.357, 251 390.302 C 251 386.191, 252.985 391.193, 253.163 395.750 C 253.211 396.988, 253.596 398, 254.018 398 C 255.111 398, 255.820 395.793, 256.665 389.762 C 257.338 384.957, 257.462 384.761, 258.095 387.500 C 258.476 389.150, 258.641 386.450, 258.461 381.500 C 258.219 374.836, 258.337 373.668, 258.917 377 C 259.505 380.383, 259.737 378.247, 259.850 368.397 C 260.018 353.711, 259.149 342.790, 257.875 343.577 C 257.411 343.864, 257.286 342.615, 257.599 340.800 C 258.045 338.218, 257.924 337.826, 257.047 339 C 256.183 340.156, 256.066 339.584, 256.538 336.500 C 257.013 333.391, 256.897 332.834, 256.014 334 C 255.126 335.174, 255.014 334.738, 255.500 332 C 255.982 329.283, 255.871 328.835, 255 330 C 254.129 331.165, 254.018 330.717, 254.500 328 C 254.870 325.918, 254.771 325.004, 254.256 325.744 C 253.680 326.570, 252.612 324.558, 251.073 319.744 C 248.022 310.206, 246.032 306.330, 245.024 307.961 C 244.555 308.719, 243.411 308.948, 242.125 308.540 C 240.695 308.086, 239.995 308.296, 239.985 309.183 C 239.973 310.151, 239.712 310.102, 239 309 C 238.296 307.910, 238.026 307.858, 238.015 308.809 C 238.007 309.529, 237.550 309.840, 237 309.500 C 236.450 309.160, 236 309.385, 236 310 C 236 310.615, 235.550 310.840, 235 310.500 C 234.450 310.160, 234 310.674, 234 311.641 C 234 314.735, 232.278 311.903, 226.616 299.495 C 223.605 292.898, 219.086 283.711, 216.574 279.081 C 211.785 270.257, 211.734 270.009, 214.604 269.588 C 216.473 269.313, 217.890 267, 216.189 267 C 215.651 267, 215.276 265.903, 215.356 264.561 L 215.500 262.123 217.991 264.311 C 219.362 265.515, 220.817 266.950, 221.226 267.500 C 221.673 268.101, 221.975 267.940, 221.985 267.095 C 221.996 266.034, 222.550 266.156, 224.250 267.595 L 226.500 269.500 224.589 267.244 C 223.539 266.003, 222.445 265.222, 222.159 265.508 C 221.490 266.176, 216 260.944, 216 259.639 C 216 259.096, 217.238 259.736, 218.750 261.062 C 220.262 262.388, 219.721 261.566, 217.547 259.236 C 213.367 254.757, 211.400 253.448, 214.561 257.250 C 215.589 258.488, 213.634 256.814, 210.216 253.531 C 206.797 250.249, 204 247.345, 204 247.078 C 204 246.812, 205.912 248.373, 208.250 250.547 L 212.500 254.500 208.625 250.329 C 206.493 248.036, 204.189 246.374, 203.505 246.636 C 202.821 246.899, 200.565 245.176, 198.492 242.807 C 196.419 240.438, 195.123 239.193, 195.611 240.039 C 196.100 240.885, 195.225 240.210, 193.666 238.539 C 192.107 236.868, 191.134 236.175, 191.503 237 C 191.872 237.825, 191.195 237.375, 190 236 C 188.805 234.625, 188.130 234.175, 188.500 235 C 188.870 235.825, 188.195 235.375, 187 234 C 185.805 232.625, 185.130 232.175, 185.500 233 C 185.870 233.825, 185.347 233.538, 184.337 232.363 C 183.327 231.187, 178.900 228.335, 174.500 226.024 C 169.659 223.482, 167.487 222.682, 169 223.997 C 200.473 251.368, 220.283 280.421, 231.389 315.500 C 251.510 379.049, 228.748 448.527, 173.070 493.513 C 169.181 496.655, 166 499.370, 166 499.547 C 166 499.927, 191.064 491.171, 198.976 488.027 C 242.548 470.713, 284.753 432.264, 305.479 391 C 313.638 374.756, 322.826 346.101, 321.724 340.337 C 321.480 339.060, 321.705 338.318, 322.236 338.646 C 322.817 339.005, 322.978 336.572, 322.653 332.366 C 322.263 327.329, 322.353 326.433, 322.992 329 C 323.918 332.723, 323.477 316.825, 322.340 305.500 C 321.826 300.378, 321.603 299.863, 320.818 301.976 C 320.311 303.338, 319.583 304.013, 319.199 303.476 C 317.978 301.771, 316.004 301.935, 315.900 303.750 C 315.834 304.922, 315.533 304.675, 314.989 303 L 314.178 300.500 313.472 302.750 C 312.629 305.438, 311.323 305.673, 310.689 303.250 C 310.415 302.202, 310.185 302.631, 310.116 304.321 C 309.951 308.340, 307.452 310.717, 306.549 307.714 C 305.908 305.580, 305.855 305.572, 305.100 307.473 C 304.648 308.613, 304.057 302.059, 303.702 291.973 C 302.601 260.674, 296.953 237.673, 284.189 212.504 C 281.120 206.452, 278.674 201.231, 278.754 200.903 C 278.833 200.575, 277.088 198.550, 274.876 196.403 L 270.854 192.500 274.843 198.500 M 245.031 196.500 C 245.031 197.050, 245.467 198.175, 246 199 C 246.533 199.825, 246.969 200.050, 246.969 199.500 C 246.969 198.950, 246.533 197.825, 246 197 C 245.467 196.175, 245.031 195.950, 245.031 196.500 M 95.079 202.583 C 95.127 203.748, 95.364 203.985, 95.683 203.188 C 95.972 202.466, 95.936 201.603, 95.604 201.271 C 95.272 200.939, 95.036 201.529, 95.079 202.583 M 283 203.500 C 284.292 204.875, 285.574 206, 285.849 206 C 286.124 206, 285.292 204.875, 284 203.500 C 282.708 202.125, 281.426 201, 281.151 201 C 280.876 201, 281.708 202.125, 283 203.500 M 78.579 202.872 C 78.196 203.492, 78.149 204, 78.476 204 C 78.803 204, 78.589 204.900, 78 206 C 76.738 208.359, 77.533 208.610, 79.629 206.514 C 80.649 205.494, 80.826 204.512, 80.196 203.386 C 79.569 202.264, 79.055 202.101, 78.579 202.872 M 94.079 206.583 C 94.127 207.748, 94.364 207.985, 94.683 207.188 C 94.972 206.466, 94.936 205.603, 94.604 205.271 C 94.272 204.939, 94.036 205.529, 94.079 206.583 M 250.031 208.500 C 250.031 209.050, 250.467 210.175, 251 211 C 251.533 211.825, 251.969 212.050, 251.969 211.500 C 251.969 210.950, 251.533 209.825, 251 209 C 250.467 208.175, 250.031 207.950, 250.031 208.500 M 287 208.378 C 287 208.585, 287.788 209.373, 288.750 210.128 C 290.336 211.371, 290.371 211.336, 289.128 209.750 C 287.821 208.084, 287 207.555, 287 208.378 M 93.079 210.583 C 93.127 211.748, 93.364 211.985, 93.683 211.188 C 93.972 210.466, 93.936 209.603, 93.604 209.271 C 93.272 208.939, 93.036 209.529, 93.079 210.583 M 92.158 215 C 92.158 216.375, 92.385 216.938, 92.662 216.250 C 92.940 215.563, 92.940 214.438, 92.662 213.750 C 92.385 213.063, 92.158 213.625, 92.158 215 M 91.195 221.500 C 91.215 223.150, 91.439 223.704, 91.693 222.731 C 91.947 221.758, 91.930 220.408, 91.656 219.731 C 91.382 219.054, 91.175 219.850, 91.195 221.500 M 255.079 224.583 C 255.127 225.748, 255.364 225.985, 255.683 225.188 C 255.972 224.466, 255.936 223.603, 255.604 223.271 C 255.272 222.939, 255.036 223.529, 255.079 224.583 M 90.272 229 C 90.272 231.475, 90.467 232.488, 90.706 231.250 C 90.944 230.012, 90.944 227.988, 90.706 226.750 C 90.467 225.512, 90.272 226.525, 90.272 229 M 241 225.810 C 241 226.347, 241.713 227.059, 242.584 227.394 C 243.557 227.767, 244.015 227.544, 243.771 226.813 C 243.273 225.318, 241 224.495, 241 225.810 M 256.079 228.583 C 256.127 229.748, 256.364 229.985, 256.683 229.188 C 256.972 228.466, 256.936 227.603, 256.604 227.271 C 256.272 226.939, 256.036 227.529, 256.079 228.583 M 303 232 C 303.589 233.100, 304.295 234, 304.570 234 C 304.845 234, 304.589 233.100, 304 232 C 303.411 230.900, 302.705 230, 302.430 230 C 302.155 230, 302.411 230.900, 303 232 M 257.158 234 C 257.158 235.375, 257.385 235.938, 257.662 235.250 C 257.940 234.563, 257.940 233.438, 257.662 232.750 C 257.385 232.063, 257.158 232.625, 257.158 234 M 258.195 240.500 C 258.215 242.150, 258.439 242.704, 258.693 241.731 C 258.947 240.758, 258.930 239.408, 258.656 238.731 C 258.382 238.054, 258.175 238.850, 258.195 240.500 M 308.031 241.500 C 308.031 242.050, 308.467 243.175, 309 244 C 309.533 244.825, 309.969 245.050, 309.969 244.500 C 309.969 243.950, 309.533 242.825, 309 242 C 308.467 241.175, 308.031 240.950, 308.031 241.500 M 199 242.378 C 199 242.585, 199.787 243.373, 200.750 244.128 C 202.336 245.371, 202.371 245.336, 201.128 243.750 C 199.821 242.084, 199 241.555, 199 242.378 M 259.370 257 C 259.370 262.775, 259.535 265.137, 259.737 262.250 C 259.939 259.363, 259.939 254.637, 259.737 251.750 C 259.535 248.863, 259.370 251.225, 259.370 257 M 318.079 269.583 C 318.127 270.748, 318.364 270.985, 318.683 270.188 C 318.972 269.466, 318.936 268.603, 318.604 268.271 C 318.272 267.939, 318.036 268.529, 318.079 269.583 M 258.195 273.500 C 258.215 275.150, 258.439 275.704, 258.693 274.731 C 258.947 273.758, 258.930 272.408, 258.656 271.731 C 258.382 271.054, 258.175 271.850, 258.195 273.500 M 319.079 273.583 C 319.127 274.748, 319.364 274.985, 319.683 274.188 C 319.972 273.466, 319.936 272.603, 319.604 272.271 C 319.272 271.939, 319.036 272.529, 319.079 273.583 M 320.079 277.583 C 320.127 278.748, 320.364 278.985, 320.683 278.188 C 320.972 277.466, 320.936 276.603, 320.604 276.271 C 320.272 275.939, 320.036 276.529, 320.079 277.583 M 257.158 281 C 257.158 282.375, 257.385 282.938, 257.662 282.250 C 257.940 281.563, 257.940 280.438, 257.662 279.750 C 257.385 279.063, 257.158 279.625, 257.158 281 M 321.079 282.583 C 321.127 283.748, 321.364 283.985, 321.683 283.188 C 321.972 282.466, 321.936 281.603, 321.604 281.271 C 321.272 280.939, 321.036 281.529, 321.079 282.583 M 256.079 285.583 C 256.127 286.748, 256.364 286.985, 256.683 286.188 C 256.972 285.466, 256.936 284.603, 256.604 284.271 C 256.272 283.939, 256.036 284.529, 256.079 285.583 M 322.158 288 C 322.158 289.375, 322.385 289.938, 322.662 289.250 C 322.940 288.563, 322.940 287.438, 322.662 286.750 C 322.385 286.063, 322.158 286.625, 322.158 288 M 255.079 290.583 C 255.127 291.748, 255.364 291.985, 255.683 291.188 C 255.972 290.466, 255.936 289.603, 255.604 289.271 C 255.272 288.939, 255.036 289.529, 255.079 290.583 M 254.079 294.583 C 254.127 295.748, 254.364 295.985, 254.683 295.188 C 254.972 294.466, 254.936 293.603, 254.604 293.271 C 254.272 292.939, 254.036 293.529, 254.079 294.583 M 323.272 297 C 323.272 299.475, 323.467 300.488, 323.706 299.250 C 323.944 298.012, 323.944 295.988, 323.706 294.750 C 323.467 293.512, 323.272 294.525, 323.272 297 M 308.079 305.583 C 308.127 306.748, 308.364 306.985, 308.683 306.188 C 308.972 305.466, 308.936 304.603, 308.604 304.271 C 308.272 303.939, 308.036 304.529, 308.079 305.583 M 324.349 313 C 324.349 317.675, 324.522 319.587, 324.732 317.250 C 324.943 314.913, 324.943 311.087, 324.732 308.750 C 324.522 306.413, 324.349 308.325, 324.349 313 M 102.736 318.750 C 101.255 324.113, 99.495 331.745, 98.825 335.712 L 97.606 342.923 100.985 347.712 C 114.667 367.099, 136.318 387.079, 157.466 399.834 L 164.350 403.986 170.244 400.675 C 182.334 393.884, 194.853 384.184, 206.581 372.517 C 223.096 356.089, 234.696 340, 230.025 340 C 229.477 340, 229.295 338.577, 229.609 336.750 C 230.053 334.173, 229.931 333.810, 229.024 335 C 228.124 336.178, 228.022 335.776, 228.546 333.125 C 229.044 330.609, 228.905 329.941, 228 330.500 C 227.095 331.059, 226.956 330.391, 227.454 327.875 C 227.971 325.258, 227.870 324.837, 227 326 C 226.129 327.165, 226.018 326.717, 226.500 324 C 226.875 321.885, 226.775 320.998, 226.246 321.759 C 225.125 323.372, 221.703 312.937, 222.593 310.618 C 224.300 306.169, 221.165 309.809, 219.019 314.767 C 210.938 333.438, 188.054 359.452, 168.260 372.465 L 164.020 375.253 160.260 372.470 C 158.192 370.940, 155.157 368.521, 153.516 367.094 C 151.418 365.271, 150.972 365.102, 152.016 366.524 C 152.832 367.637, 151.382 366.287, 148.793 363.524 C 146.205 360.761, 144.067 358.935, 144.043 359.466 C 144.019 359.997, 141.546 358.008, 138.546 355.046 C 135.547 352.083, 133.283 349.352, 133.515 348.975 C 133.748 348.599, 132.715 347.213, 131.219 345.895 L 128.500 343.500 130.981 346.500 C 132.345 348.150, 131.108 347.267, 128.231 344.538 C 125.354 341.808, 123 340.031, 123 340.588 C 123 341.144, 123.515 342.115, 124.144 342.744 C 125.003 343.603, 124.714 343.738, 122.988 343.287 C 121.203 342.820, 120.867 343, 121.490 344.092 C 122.140 345.231, 122.036 345.261, 120.947 344.250 C 118.943 342.390, 118.117 342.731, 118.752 345.158 C 119.236 347.010, 118.990 347.231, 117.021 346.716 C 115.393 346.290, 114.185 346.752, 112.861 348.308 C 111.626 349.759, 111.189 349.943, 111.566 348.851 C 111.880 347.944, 111.586 346.862, 110.914 346.447 C 110.076 345.929, 109.949 346.108, 110.510 347.015 C 111.092 347.958, 110.881 348.168, 109.777 347.745 C 108.610 347.297, 108.325 347.688, 108.624 349.325 C 108.843 350.521, 108.754 350.935, 108.426 350.244 C 108.098 349.553, 107.416 349.243, 106.912 349.554 C 106.367 349.891, 106.416 350.910, 107.032 352.061 C 108.774 355.315, 107.223 354.223, 104.580 350.333 C 103.210 348.316, 102.366 346.179, 102.705 345.583 C 103.043 344.987, 102.951 344.835, 102.500 345.244 C 102.049 345.653, 101.144 345.203, 100.490 344.244 C 98.957 341.997, 99.733 334.960, 101.441 335.616 C 103.363 336.353, 105.590 333.190, 104.158 331.758 C 103.041 330.641, 102.470 331.812, 102.906 334.324 C 102.985 334.778, 102.552 334.841, 101.944 334.465 C 101.271 334.049, 101.120 332.748, 101.558 331.141 C 101.955 329.688, 102.236 327.606, 102.184 326.513 C 102.111 325, 102.295 324.859, 102.952 325.922 C 103.427 326.690, 103.546 328.019, 103.218 328.875 C 102.834 329.875, 103.480 329.631, 105.025 328.191 C 106.348 326.959, 108.001 326.170, 108.700 326.438 C 111.422 327.483, 112.158 323.229, 109.990 318.980 C 106.798 312.723, 105.795 309.755, 107.158 310.597 C 107.870 311.038, 108.037 310.869, 107.595 310.155 C 106.153 307.821, 105.371 309.205, 102.736 318.750 M 252.079 319.583 C 252.127 320.748, 252.364 320.985, 252.683 320.188 C 252.972 319.466, 252.936 318.603, 252.604 318.271 C 252.272 317.939, 252.036 318.529, 252.079 319.583 M 103.032 322.750 C 103.092 324.166, 105.698 326.969, 106.349 326.318 C 107.384 325.283, 107.103 323.818, 106 324.500 C 105.450 324.840, 105 324.416, 105 323.559 C 105 322.702, 104.550 322, 104 322 C 103.450 322, 103.014 322.337, 103.032 322.750 M 92.158 332 C 92.158 333.375, 92.385 333.938, 92.662 333.250 C 92.940 332.563, 92.940 331.438, 92.662 330.750 C 92.385 330.063, 92.158 330.625, 92.158 332 M 119 331.378 C 119 331.585, 119.787 332.373, 120.750 333.128 C 122.336 334.371, 122.371 334.336, 121.128 332.750 C 119.821 331.084, 119 330.555, 119 331.378 M 91.195 338.500 C 91.215 340.150, 91.439 340.704, 91.693 339.731 C 91.947 338.758, 91.930 337.408, 91.656 336.731 C 91.382 336.054, 91.175 336.850, 91.195 338.500 M 125 339.378 C 125 339.585, 125.787 340.373, 126.750 341.128 C 128.336 342.371, 128.371 342.336, 127.128 340.750 C 125.821 339.084, 125 338.555, 125 339.378 M 33.079 342.583 C 33.127 343.748, 33.364 343.985, 33.683 343.188 C 33.972 342.466, 33.936 341.603, 33.604 341.271 C 33.272 340.939, 33.036 341.529, 33.079 342.583 M 105.702 343.333 C 105.421 344.067, 105.780 344.667, 106.500 344.667 C 107.220 344.667, 107.579 344.067, 107.298 343.333 C 107.016 342.600, 106.657 342, 106.500 342 C 106.343 342, 105.984 342.600, 105.702 343.333 M 90.232 346 C 90.232 347.925, 90.438 348.712, 90.689 347.750 C 90.941 346.788, 90.941 345.212, 90.689 344.250 C 90.438 343.288, 90.232 344.075, 90.232 346 M 197.084 348.750 C 192.886 353.648, 192.232 355, 194.059 355 C 194.641 355, 194.840 355.450, 194.500 356 C 194.160 356.550, 194.584 357, 195.441 357 C 196.298 357, 197 357.450, 197 358 C 197 358.550, 197.717 359, 198.594 359 C 199.470 359, 200.423 359.900, 200.710 361 C 200.998 362.100, 201.631 363, 202.117 363 C 202.602 363, 203 363.675, 203 364.500 C 203 365.325, 203.477 366, 204.059 366 C 204.641 366, 204.843 366.445, 204.507 366.989 C 204.144 367.576, 204.593 367.710, 205.612 367.319 C 206.838 366.848, 207.104 367.022, 206.543 367.930 C 205.927 368.927, 206.268 368.918, 208.129 367.887 C 209.433 367.166, 210.778 366.651, 211.117 366.743 C 211.457 366.836, 212.807 365.734, 214.117 364.295 C 215.428 362.855, 215.879 362.038, 215.120 362.478 C 214.171 363.029, 213.898 362.845, 214.245 361.889 C 214.523 361.125, 215.203 360.595, 215.756 360.710 C 216.309 360.826, 217.603 359.926, 218.631 358.710 L 220.500 356.500 218.080 358.500 C 215.771 360.409, 215.693 360.414, 216.357 358.599 C 217.267 356.114, 213.813 352.587, 212.124 354.276 C 211.292 355.108, 211 354.843, 211 353.259 C 211 352.081, 210.480 350.797, 209.845 350.405 C 209.134 349.965, 208.962 350.130, 209.397 350.834 C 209.854 351.573, 209.557 351.767, 208.558 351.384 C 207.707 351.057, 207.259 350.390, 207.562 349.900 C 208.121 348.995, 203.354 344, 201.932 344 C 201.505 344, 199.324 346.137, 197.084 348.750 M 82 348 C 82 348.550, 82.477 349, 83.059 349 C 83.641 349, 83.840 348.550, 83.500 348 C 83.160 347.450, 82.684 347, 82.441 347 C 82.198 347, 82 347.450, 82 348 M 83.195 353.500 C 83.215 355.150, 83.439 355.704, 83.693 354.731 C 83.947 353.758, 83.930 352.408, 83.656 351.731 C 83.382 351.054, 83.175 351.850, 83.195 353.500 M 145.500 362 C 146.495 363.100, 147.535 364, 147.810 364 C 148.085 364, 147.495 363.100, 146.500 362 C 145.505 360.900, 144.465 360, 144.190 360 C 143.915 360, 144.505 360.900, 145.500 362 M 41 362.367 C 41 363.450, 45.970 373, 46.534 373 C 46.809 373, 45.847 370.637, 44.397 367.750 C 41.607 362.197, 41 361.235, 41 362.367 M 211.872 364.750 C 210.629 366.336, 210.664 366.371, 212.250 365.128 C 213.916 363.821, 214.445 363, 213.622 363 C 213.415 363, 212.627 363.788, 211.872 364.750 M 56 389.378 C 56 389.585, 56.788 390.373, 57.750 391.128 C 59.336 392.371, 59.371 392.336, 58.128 390.750 C 56.821 389.084, 56 388.555, 56 389.378 M 245.638 391.500 C 245.322 392.325, 245.499 393, 246.031 393 C 246.564 393, 247 392.325, 247 391.500 C 247 390.675, 246.823 390, 246.607 390 C 246.391 390, 245.955 390.675, 245.638 391.500 M 257.195 393.500 C 257.215 395.150, 257.439 395.704, 257.693 394.731 C 257.947 393.758, 257.930 392.408, 257.656 391.731 C 257.382 391.054, 257.175 391.850, 257.195 393.500 M 250.863 394.803 C 251.824 395.476, 251.891 395.919, 251.088 396.304 C 250.352 396.657, 250.339 396.779, 251.050 396.650 C 252.587 396.371, 252.427 394.623, 250.825 394.199 C 249.779 393.922, 249.787 394.049, 250.863 394.803 M 256.158 399 C 256.158 400.375, 256.385 400.938, 256.662 400.250 C 256.940 399.563, 256.940 398.438, 256.662 397.750 C 256.385 397.063, 256.158 397.625, 256.158 399 M 255.079 403.583 C 255.127 404.748, 255.364 404.985, 255.683 404.188 C 255.972 403.466, 255.936 402.603, 255.604 402.271 C 255.272 401.939, 255.036 402.529, 255.079 403.583 M 70 406.500 C 71.292 407.875, 72.574 409, 72.849 409 C 73.124 409, 72.292 407.875, 71 406.500 C 69.708 405.125, 68.426 404, 68.151 404 C 67.876 404, 68.708 405.125, 70 406.500 M 264.559 408.532 C 262.986 409.721, 262.918 410, 264.202 410 C 265.073 410, 266.045 409.325, 266.362 408.500 C 267.059 406.683, 267.002 406.684, 264.559 408.532 M 259 412 C 258.099 412.582, 257.975 412.975, 258.691 412.985 C 259.346 412.993, 260.160 412.550, 260.500 412 C 261.267 410.758, 260.921 410.758, 259 412 M 268.500 417 C 267.718 418.266, 269.042 418.266, 271 417 C 272.293 416.165, 272.266 416.029, 270.809 416.015 C 269.879 416.007, 268.840 416.450, 268.500 417 M 266.500 420 C 266.273 420.367, 266.631 420.688, 267.294 420.714 C 267.957 420.740, 269.385 421.126, 270.467 421.571 C 272.196 422.283, 272.262 422.196, 271.011 420.857 C 269.536 419.278, 267.218 418.838, 266.500 420 M 278 424.059 C 278 424.641, 278.450 424.840, 279 424.500 C 279.550 424.160, 280 423.684, 280 423.441 C 280 423.198, 279.550 423, 279 423 C 278.450 423, 278 423.477, 278 424.059 M 271.936 427.061 C 270.786 427.788, 270.771 427.972, 271.857 427.985 C 272.663 427.994, 272.975 428.622, 272.626 429.532 C 272.148 430.778, 272.496 430.732, 274.488 429.282 C 275.835 428.302, 276.951 427.258, 276.969 426.963 C 277.023 426.039, 273.441 426.108, 271.936 427.061" stroke="none" fill="#c4922a" fill-rule="evenodd"/>
</svg>