<svg xmlns="http://www.w3.org/2000/svg" width="522" height="521" viewBox="0 0 522 521" version="1.1">
	<path d="M 237.250 4.631 C 238.891 5.115, 239 8.836, 239 64.504 C 239 123.195, 238.977 123.866, 236.985 124.314 C 235.308 124.690, 235.350 124.744, 237.235 124.633 L 239.500 124.500 239.500 64.514 C 239.500 5.263, 239.475 4.525, 237.500 4.321 C 235.946 4.161, 235.890 4.230, 237.250 4.631 M 282.452 5.266 C 282.184 5.962, 282.094 18.449, 282.250 33.016 L 282.535 59.500 282.767 32.323 C 282.981 7.396, 283.145 5.109, 284.750 4.689 C 286.390 4.261, 286.388 4.225, 284.719 4.116 C 283.739 4.052, 282.719 4.570, 282.452 5.266 M 229.762 5.707 C 231.006 5.946, 232.806 5.937, 233.762 5.687 C 234.718 5.437, 233.700 5.241, 231.500 5.252 C 229.300 5.263, 228.518 5.468, 229.762 5.707 M 289.250 5.689 C 290.212 5.941, 291.788 5.941, 292.750 5.689 C 293.712 5.438, 292.925 5.232, 291 5.232 C 289.075 5.232, 288.288 5.438, 289.250 5.689 M 222.269 6.693 C 223.242 6.947, 224.592 6.930, 225.269 6.656 C 225.946 6.382, 225.150 6.175, 223.500 6.195 C 221.850 6.215, 221.296 6.439, 222.269 6.693 M 297.269 6.693 C 298.242 6.947, 299.592 6.930, 300.269 6.656 C 300.946 6.382, 300.150 6.175, 298.500 6.195 C 296.850 6.215, 296.296 6.439, 297.269 6.693 M 215.750 7.662 C 216.438 7.940, 217.563 7.940, 218.250 7.662 C 218.938 7.385, 218.375 7.158, 217 7.158 C 215.625 7.158, 215.063 7.385, 215.750 7.662 M 303.750 7.662 C 304.438 7.940, 305.563 7.940, 306.250 7.662 C 306.938 7.385, 306.375 7.158, 305 7.158 C 303.625 7.158, 303.063 7.385, 303.750 7.662 M 210.750 8.662 C 211.438 8.940, 212.563 8.940, 213.250 8.662 C 213.938 8.385, 213.375 8.158, 212 8.158 C 210.625 8.158, 210.063 8.385, 210.750 8.662 M 309.750 8.662 C 310.438 8.940, 311.563 8.940, 312.250 8.662 C 312.938 8.385, 312.375 8.158, 311 8.158 C 309.625 8.158, 309.063 8.385, 309.750 8.662 M 205.750 9.662 C 206.438 9.940, 207.563 9.940, 208.250 9.662 C 208.938 9.385, 208.375 9.158, 207 9.158 C 205.625 9.158, 205.063 9.385, 205.750 9.662 M 314.813 9.683 C 315.534 9.972, 316.397 9.936, 316.729 9.604 C 317.061 9.272, 316.471 9.036, 315.417 9.079 C 314.252 9.127, 314.015 9.364, 314.813 9.683 M 201.813 10.683 C 202.534 10.972, 203.397 10.936, 203.729 10.604 C 204.061 10.272, 203.471 10.036, 202.417 10.079 C 201.252 10.127, 201.015 10.364, 201.813 10.683 M 318.813 10.683 C 319.534 10.972, 320.397 10.936, 320.729 10.604 C 321.061 10.272, 320.471 10.036, 319.417 10.079 C 318.252 10.127, 318.015 10.364, 318.813 10.683 M 197.813 11.683 C 198.534 11.972, 199.397 11.936, 199.729 11.604 C 200.061 11.272, 199.471 11.036, 198.417 11.079 C 197.252 11.127, 197.015 11.364, 197.813 11.683 M 322.813 11.683 C 323.534 11.972, 324.397 11.936, 324.729 11.604 C 325.061 11.272, 324.471 11.036, 323.417 11.079 C 322.252 11.127, 322.015 11.364, 322.813 11.683 M 193.813 12.683 C 194.534 12.972, 195.397 12.936, 195.729 12.604 C 196.061 12.272, 195.471 12.036, 194.417 12.079 C 193.252 12.127, 193.015 12.364, 193.813 12.683 M 326.813 12.683 C 327.534 12.972, 328.397 12.936, 328.729 12.604 C 329.061 12.272, 328.471 12.036, 327.417 12.079 C 326.252 12.127, 326.015 12.364, 326.813 12.683 M 331.500 14 C 332.600 14.473, 334.175 14.859, 335 14.859 C 335.945 14.859, 335.761 14.542, 334.500 14 C 333.400 13.527, 331.825 13.141, 331 13.141 C 330.055 13.141, 330.239 13.458, 331.500 14 M 184.500 15 C 183.239 15.542, 183.055 15.859, 184 15.859 C 184.825 15.859, 186.400 15.473, 187.500 15 C 188.761 14.458, 188.945 14.141, 188 14.141 C 187.175 14.141, 185.600 14.527, 184.500 15 M 170 20 C 169.175 20.533, 168.950 20.969, 169.500 20.969 C 170.050 20.969, 171.175 20.533, 172 20 C 172.825 19.467, 173.050 19.031, 172.500 19.031 C 171.950 19.031, 170.825 19.467, 170 20 M 350 20 C 350.825 20.533, 351.950 20.969, 352.500 20.969 C 353.050 20.969, 352.825 20.533, 352 20 C 351.175 19.467, 350.050 19.031, 349.500 19.031 C 348.950 19.031, 349.175 19.467, 350 20 M 165 22 C 164.175 22.533, 163.950 22.969, 164.500 22.969 C 165.050 22.969, 166.175 22.533, 167 22 C 167.825 21.467, 168.050 21.031, 167.500 21.031 C 166.950 21.031, 165.825 21.467, 165 22 M 355 22 C 355.825 22.533, 356.950 22.969, 357.500 22.969 C 358.050 22.969, 357.825 22.533, 357 22 C 356.175 21.467, 355.050 21.031, 354.500 21.031 C 353.950 21.031, 354.175 21.467, 355 22 M 360 24 C 360.825 24.533, 361.950 24.969, 362.500 24.969 C 363.050 24.969, 362.825 24.533, 362 24 C 361.175 23.467, 360.050 23.031, 359.500 23.031 C 358.950 23.031, 359.175 23.467, 360 24 M 156 26 C 154.075 27.054, 152.950 27.916, 153.500 27.916 C 154.050 27.916, 156.075 27.054, 158 26 C 159.925 24.946, 161.050 24.084, 160.500 24.084 C 159.950 24.084, 157.925 24.946, 156 26 M 368.083 27.384 C 369.101 28.321, 385 35.970, 385 35.522 C 385 34.965, 369.443 27, 368.356 27 C 367.977 27, 367.854 27.173, 368.083 27.384 M 135.441 36.555 C 133.577 38.049, 133.589 38.067, 135.750 37.020 C 136.988 36.420, 138 35.720, 138 35.465 C 138 34.700, 137.481 34.921, 135.441 36.555 M 127.250 41.115 C 123.841 43.298, 122.738 44.764, 125.750 43.108 C 128.044 41.847, 131.639 39.068, 131 39.049 C 130.725 39.040, 129.037 39.970, 127.250 41.115 M 393 40.430 C 393 40.705, 393.900 41.411, 395 42 C 396.100 42.589, 397 42.845, 397 42.570 C 397 42.295, 396.100 41.589, 395 41 C 393.900 40.411, 393 40.155, 393 40.430 M 123.798 46.250 C 123.058 46.938, 121.788 47.640, 120.976 47.811 C 120.164 47.982, 117.797 49.237, 115.715 50.599 C 113.633 51.960, 111.547 52.838, 111.078 52.548 C 110.610 52.259, 109.613 52.805, 108.863 53.761 C 107.601 55.371, 107.648 55.389, 109.500 54 C 111.367 52.600, 111.406 52.620, 110.090 54.296 C 109.314 55.283, 108.110 55.872, 107.413 55.605 C 106.716 55.338, 105.551 55.880, 104.823 56.809 C 103.607 58.363, 103.662 58.379, 105.500 57 C 107.364 55.602, 107.405 55.622, 106.100 57.283 C 105.330 58.264, 104.205 58.893, 103.600 58.680 C 101.441 57.921, 74.515 82.407, 75.593 84.150 C 75.898 84.645, 75.553 84.926, 74.824 84.775 C 74.096 84.624, 73.624 85.096, 73.775 85.824 C 73.926 86.553, 73.635 86.892, 73.128 86.579 C 72.092 85.939, 58.343 102.216, 50.082 113.862 C 27.807 145.261, 12.697 183.630, 6.314 225 C 4.109 239.290, 3.845 278.506, 5.856 293 C 20.631 399.466, 96.176 484.588, 198.772 510.373 C 211.121 513.477, 231.468 517, 237.042 517 C 238.988 517, 239.012 516.154, 238.758 457.406 L 238.500 397.812 227.401 395.015 C 145.795 374.446, 101.422 285.399, 133.928 207.432 C 136.206 201.969, 138.166 197.087, 138.285 196.583 C 138.403 196.079, 139.322 194.807, 140.327 193.756 C 141.332 192.705, 141.911 191.211, 141.613 190.435 C 141.312 189.650, 141.610 189.130, 142.286 189.262 C 142.954 189.393, 143.433 188.683, 143.350 187.683 C 143.268 186.684, 143.440 186.107, 143.733 186.400 C 144.511 187.177, 150.166 179.077, 149.546 178.074 C 149.258 177.608, 149.805 176.613, 150.761 175.863 C 152.362 174.608, 152.387 174.659, 151.074 176.500 C 150.290 177.600, 151.825 176.025, 154.486 173 C 157.147 169.975, 162.515 164.350, 166.415 160.500 C 170.315 156.650, 172.155 154.625, 170.503 156 L 167.500 158.500 170.462 155.224 C 172.091 153.423, 173.989 152.165, 174.680 152.431 C 175.975 152.928, 177.294 151.486, 177.642 149.194 C 177.774 148.322, 177.451 148.200, 176.670 148.827 C 175.553 149.724, 169.154 149.487, 168.180 148.513 C 167.924 148.257, 168.342 147.289, 169.107 146.360 C 170.373 144.827, 170.301 144.779, 168.316 145.836 C 165.252 147.468, 164.688 147.301, 165.305 144.943 C 165.746 143.255, 165.588 143.097, 164.421 144.065 C 163.449 144.872, 163 144.900, 163 144.154 C 163 143.554, 162.325 143.322, 161.500 143.638 C 160.537 144.008, 160 143.618, 160 142.548 C 160 141.632, 159.550 141.160, 159 141.500 C 157.726 142.287, 157.727 141.379, 159.003 138.995 C 160.059 137.020, 158.654 135.132, 157.508 136.986 C 157.110 137.631, 156.248 137.668, 155.163 137.087 C 154.098 136.517, 152.772 136.548, 151.663 137.168 C 150.067 138.062, 150.012 137.954, 151.139 136.148 C 151.833 135.038, 152.664 134.292, 152.986 134.491 C 153.308 134.690, 153.571 134.037, 153.571 133.040 C 153.571 131.978, 153.041 131.431, 152.291 131.718 C 151.587 131.989, 151.204 132.521, 151.440 132.903 C 152.726 134.984, 150.228 136, 147.422 134.536 C 145.815 133.698, 143.911 133.010, 143.191 133.006 C 142.471 133.003, 142.167 132.538, 142.516 131.973 C 142.865 131.409, 143.894 131.071, 144.803 131.223 C 145.712 131.376, 146.465 130.901, 146.478 130.169 C 146.490 129.436, 148.525 127.026, 151 124.813 L 155.500 120.789 151 124.090 C 144.725 128.693, 128.771 144.821, 129.433 145.891 C 129.733 146.376, 129.195 147.387, 128.239 148.137 C 126.631 149.397, 126.612 149.349, 127.983 147.500 C 129.456 145.513, 129.451 145.513, 127.197 147.437 C 125.950 148.502, 125.144 149.932, 125.405 150.614 C 125.667 151.296, 125.120 152.449, 124.191 153.177 C 122.734 154.317, 122.638 154.286, 123.500 152.953 C 124.050 152.102, 123.715 152.261, 122.755 153.307 C 121.796 154.353, 121.303 155.681, 121.660 156.259 C 122.017 156.836, 121.844 157.022, 121.276 156.671 C 119.804 155.761, 108.997 172.600, 103.096 185 C 73.524 247.138, 82.196 318.875, 125.733 372.263 C 143.528 394.084, 172.355 415.135, 197.250 424.487 L 202 426.272 202 449.655 L 202 473.038 199.250 472.378 C 192.840 470.840, 176.825 464.563, 166.554 459.563 C 64.187 409.730, 16.365 292.744, 54.726 186 C 61.679 166.651, 70.548 149.828, 82.863 132.626 C 85.963 128.295, 88.500 124.395, 88.500 123.959 C 88.500 123.523, 88.910 122.792, 89.410 122.333 C 89.939 121.849, 90.019 122.024, 89.601 122.750 C 88.078 125.397, 89.879 123.811, 93.118 119.654 C 94.981 117.264, 101.903 109.737, 108.502 102.928 C 115.101 96.118, 119.600 91.683, 118.500 93.071 C 117.400 94.459, 118.599 93.323, 121.164 90.547 C 123.729 87.771, 126.147 85.818, 126.538 86.207 C 127.797 87.461, 134.156 81.893, 133.023 80.528 C 132.470 79.861, 132.254 79.079, 132.543 78.790 C 132.833 78.501, 131.981 78.472, 130.652 78.726 C 129.322 78.980, 127.930 78.696, 127.558 78.094 C 126.966 77.137, 128.128 76.581, 130.157 76.851 C 130.518 76.899, 130.665 76.164, 130.483 75.219 C 130.302 74.274, 130.103 73.050, 130.041 72.500 C 129.980 71.950, 129.326 72.588, 128.590 73.918 L 127.250 76.336 126.090 74.168 C 125.134 72.382, 125.200 72, 126.465 72 C 127.309 72, 128 71.502, 128 70.893 C 128 70.284, 127.395 70.018, 126.656 70.302 C 125.706 70.666, 125.441 70.146, 125.750 68.526 C 125.991 67.266, 125.626 65.887, 124.940 65.463 C 124.064 64.922, 123.934 65.111, 124.506 66.095 C 124.956 66.872, 124.936 67.150, 124.461 66.718 C 123.989 66.287, 123.538 64.447, 123.459 62.627 C 123.380 60.808, 122.986 58.786, 122.583 58.135 C 122.181 57.483, 122.290 57.074, 122.826 57.225 C 123.362 57.376, 123.800 57.050, 123.800 56.500 C 123.800 55.950, 123.395 55.613, 122.900 55.750 C 122.405 55.888, 122 55.100, 122 54 C 122 52.216, 123.030 51.538, 125.230 51.875 C 125.631 51.936, 125.805 50.657, 125.615 49.031 C 125.426 47.406, 125.773 45.870, 126.386 45.617 C 127.160 45.298, 127.141 45.134, 126.321 45.079 C 125.673 45.036, 124.537 45.563, 123.798 46.250 M 115.732 48.536 C 113.679 49.931, 112 51.287, 112 51.550 C 112 51.813, 113.800 50.837, 116 49.381 C 119.493 47.070, 120.674 46, 119.732 46 C 119.585 46, 117.785 47.141, 115.732 48.536 M 129.545 49.927 C 129.321 50.289, 130.457 50.686, 132.069 50.808 C 133.681 50.931, 135 50.852, 135 50.632 C 135 49.907, 129.961 49.255, 129.545 49.927 M 198.750 49.662 C 199.438 49.940, 200.563 49.940, 201.250 49.662 C 201.938 49.385, 201.375 49.158, 200 49.158 C 198.625 49.158, 198.063 49.385, 198.750 49.662 M 320.431 72.500 C 320.432 85.700, 320.574 90.962, 320.747 84.193 C 320.921 77.424, 320.920 66.624, 320.746 60.193 C 320.572 53.762, 320.431 59.300, 320.431 72.500 M 410 51.378 C 410 51.585, 410.788 52.373, 411.750 53.128 C 413.336 54.371, 413.371 54.336, 412.128 52.750 C 410.821 51.084, 410 50.555, 410 51.378 M 125 54.500 C 125 55.325, 125.450 56, 126 56 C 126.550 56, 127 55.325, 127 54.500 C 127 53.675, 126.550 53, 126 53 C 125.450 53, 125 53.675, 125 54.500 M 414 54.378 C 414 54.585, 414.788 55.373, 415.750 56.128 C 417.336 57.371, 417.371 57.336, 416.128 55.750 C 414.821 54.084, 414 53.555, 414 54.378 M 180 56 C 179.175 56.533, 178.950 56.969, 179.500 56.969 C 180.050 56.969, 181.175 56.533, 182 56 C 182.825 55.467, 183.050 55.031, 182.500 55.031 C 181.950 55.031, 180.825 55.467, 180 56 M 125 58.059 C 125 58.641, 125.450 58.840, 126 58.500 C 126.550 58.160, 127 57.684, 127 57.441 C 127 57.198, 126.550 57, 126 57 C 125.450 57, 125 57.477, 125 58.059 M 175 58 C 174.175 58.533, 173.950 58.969, 174.500 58.969 C 175.050 58.969, 176.175 58.533, 177 58 C 177.825 57.467, 178.050 57.031, 177.500 57.031 C 176.950 57.031, 175.825 57.467, 175 58 M 419.347 58.831 C 420.259 59.838, 420.666 61.035, 420.252 61.491 C 419.838 61.948, 420.092 61.979, 420.815 61.561 C 422.041 60.853, 419.823 57, 418.190 57 C 417.915 57, 418.436 57.824, 419.347 58.831 M 100.405 61.250 L 98.500 63.500 100.750 61.595 C 101.987 60.547, 103 59.535, 103 59.345 C 103 58.545, 102.195 59.136, 100.405 61.250 M 351 60.500 C 352.375 61.286, 353.950 61.929, 354.500 61.929 C 355.050 61.929, 354.375 61.286, 353 60.500 C 351.625 59.714, 350.050 59.071, 349.500 59.071 C 348.950 59.071, 349.625 59.714, 351 60.500 M 167 61.500 C 165.625 62.286, 164.950 62.929, 165.500 62.929 C 166.050 62.929, 167.625 62.286, 169 61.500 C 170.375 60.714, 171.050 60.071, 170.500 60.071 C 169.950 60.071, 168.375 60.714, 167 61.500 M 425 63.500 C 426.292 64.875, 427.574 66, 427.849 66 C 428.124 66, 427.292 64.875, 426 63.500 C 424.708 62.125, 423.426 61, 423.151 61 C 422.876 61, 423.708 62.125, 425 63.500 M 95.872 64.750 C 94.629 66.336, 94.664 66.371, 96.250 65.128 C 97.916 63.821, 98.445 63, 97.622 63 C 97.415 63, 96.627 63.788, 95.872 64.750 M 159.742 65.085 C 158.775 65.648, 157.425 65.787, 156.742 65.394 C 156.059 65.001, 155.831 65.045, 156.234 65.491 C 156.638 65.937, 156.188 66.929, 155.234 67.696 C 154.281 68.463, 155.412 68.160, 157.750 67.025 C 160.088 65.889, 162 64.743, 162 64.480 C 162 63.836, 161.790 63.892, 159.742 65.085 M 362 65.449 C 362 65.724, 363.350 66.647, 365 67.500 C 366.650 68.353, 368 68.826, 368 68.551 C 368 68.276, 366.650 67.353, 365 66.500 C 363.350 65.647, 362 65.174, 362 65.449 M 150.500 67.777 C 145.094 70.882, 144.775 74.202, 150.150 71.423 C 151.820 70.559, 152.923 69.590, 152.602 69.268 C 152.280 68.947, 152.519 68.080, 153.131 67.342 C 154.569 65.610, 154.152 65.679, 150.500 67.777 M 433 70.500 C 435.429 72.975, 437.062 75, 436.628 75 C 436.195 75, 438.109 77.546, 440.882 80.657 C 443.655 83.768, 445.690 86.693, 445.403 87.157 C 445.116 87.621, 445.584 88, 446.441 88 C 448.222 88, 448.524 89.558, 446.933 90.541 C 446.347 90.904, 445.185 90.368, 444.352 89.350 C 442.990 87.687, 442.892 87.677, 443.387 89.250 C 443.690 90.213, 443.475 91, 442.910 91 C 442.344 91, 442.160 91.450, 442.500 92 C 442.840 92.550, 442.586 93, 441.937 93 C 441.056 93, 441.072 93.382, 442 94.500 C 442.685 95.325, 442.852 96.052, 442.372 96.115 C 441.893 96.179, 441.050 96.335, 440.500 96.463 C 439.950 96.591, 439.034 96.764, 438.464 96.848 C 437.895 96.931, 437.429 97.849, 437.429 98.886 C 437.429 100.008, 437.947 100.574, 438.709 100.282 C 439.413 100.011, 439.787 99.464, 439.541 99.066 C 439.023 98.227, 442.677 98.344, 443.526 99.193 C 443.838 99.505, 442.947 100.047, 441.547 100.399 C 440.146 100.750, 439 101.506, 439 102.078 C 439 102.650, 438.581 102.859, 438.069 102.543 C 437.557 102.226, 436.813 102.494, 436.415 103.138 C 436.017 103.782, 436.098 104.062, 436.595 103.759 C 437.693 103.093, 439.403 104.904, 439.763 107.114 C 439.962 108.342, 439.420 108.612, 437.490 108.243 C 435.340 107.832, 435.148 107.525, 436.228 106.219 C 437.360 104.848, 437.254 104.832, 435.272 106.066 L 433.044 107.453 435.272 108.691 L 437.500 109.929 435.250 109.965 C 434.012 109.984, 433.053 110.338, 433.118 110.750 C 433.433 112.743, 432.899 114.056, 432 113.500 C 431.450 113.160, 431 113.385, 431 114 C 431 114.615, 430.581 114.859, 430.069 114.543 C 427.862 113.179, 428.202 116.105, 430.607 119.165 L 433.227 122.500 430.140 119.264 C 428.138 117.166, 427.275 115.447, 427.686 114.377 C 428.127 113.227, 427.892 112.886, 426.909 113.250 C 426.055 113.567, 421.579 109.982, 415.533 104.137 L 405.567 94.500 417.066 106.500 C 423.391 113.100, 430.754 121.313, 433.430 124.750 C 437.679 130.209, 440.849 133.386, 438.372 129.703 C 437.893 128.989, 438.535 129.552, 439.799 130.953 C 441.064 132.354, 442.567 134.400, 443.138 135.500 C 443.710 136.600, 442.992 136.150, 441.542 134.500 C 440.092 132.850, 441.290 135.169, 444.203 139.654 C 447.116 144.139, 449.907 147.557, 450.405 147.250 C 450.902 146.942, 451.041 147.125, 450.713 147.655 C 449.879 149.005, 460.425 169.224, 461.469 168.275 C 461.937 167.849, 462.025 168.018, 461.663 168.651 C 461.301 169.284, 462.302 172.884, 463.887 176.651 C 490.740 240.470, 484.751 317.903, 448.507 375.500 C 425.175 412.578, 394.239 440.666, 356.500 459.038 C 343.900 465.171, 330.254 470.564, 322.750 472.375 L 320 473.038 320 449.968 L 320 426.898 323.750 425.362 C 409.655 390.176, 454.774 299.426, 429.583 212.493 C 428.150 207.547, 426.558 203.358, 426.045 203.185 C 425.532 203.012, 425.389 202.151, 425.726 201.271 C 426.109 200.273, 425.935 199.922, 425.263 200.337 C 424.566 200.768, 424.386 200.241, 424.751 198.845 C 425.171 197.238, 424.980 196.894, 424.003 197.498 C 423.162 198.018, 422.933 197.918, 423.364 197.220 C 424.176 195.906, 421.102 187.819, 420.040 188.475 C 419.629 188.729, 418.777 187.805, 418.146 186.422 C 416.547 182.912, 416.778 181.987, 418.500 185 C 419.286 186.375, 419.945 187.148, 419.965 186.717 C 420.016 185.577, 415.065 176, 414.424 176 C 414.126 176, 414.160 176.450, 414.500 177 C 414.840 177.550, 414.882 178, 414.594 178 C 414.306 178, 413.560 177.046, 412.935 175.879 C 412.070 174.263, 412.082 173.932, 412.983 174.489 C 414.388 175.358, 411.956 170.474, 409.502 167.500 C 408.594 166.400, 408.180 166.132, 408.580 166.905 C 409.076 167.860, 408.918 168.067, 408.086 167.553 C 407.414 167.138, 407.100 166.183, 407.388 165.431 C 407.677 164.679, 407.413 163.755, 406.802 163.378 C 406.082 162.933, 405.976 163.152, 406.500 164 C 407.048 164.887, 406.919 165.068, 406.102 164.563 C 405.438 164.152, 405.078 163.295, 405.301 162.658 C 405.525 162.021, 404.333 159.567, 402.652 157.205 C 398.685 151.629, 397.387 150.565, 396.435 152.106 C 395.980 152.842, 396.113 153.048, 396.777 152.638 C 398.089 151.827, 401.170 155.915, 400.304 157.317 C 399.967 157.863, 400.188 158.002, 400.795 157.627 C 402.250 156.728, 403.769 159.793, 403.582 163.250 C 403.501 164.762, 403.861 166, 404.384 166 C 404.906 166, 405.044 166.289, 404.691 166.643 C 404.337 166.996, 403.276 166.658, 402.332 165.893 C 401.388 165.127, 400.913 164.997, 401.277 165.604 C 401.646 166.221, 400.828 167.213, 399.422 167.854 C 395.862 169.476, 395.247 169.303, 395.501 166.750 C 395.624 165.512, 395.533 165.266, 395.299 166.203 C 395.065 167.139, 393.995 168.184, 392.922 168.525 C 391.767 168.891, 391.259 169.624, 391.677 170.322 C 392.211 171.211, 392.030 171.221, 390.942 170.365 C 389.930 169.569, 388.755 169.531, 387 170.241 L 384.500 171.251 387.750 172.154 C 391.835 173.289, 392.002 174.205, 387.995 173.499 C 385.893 173.129, 385.067 173.350, 385.245 174.235 C 385.396 174.984, 384.684 175.388, 383.500 175.225 C 381.672 174.974, 381.651 175.043, 383.250 176.025 C 385.414 177.354, 385.487 178.599, 383.448 179.382 C 382.490 179.749, 382.150 179.566, 382.560 178.902 C 382.998 178.193, 382.007 177.932, 379.649 178.136 C 376.840 178.378, 375.441 177.839, 373.130 175.624 C 371.511 174.074, 369.807 172.736, 369.343 172.652 C 368.880 172.569, 368.650 172.050, 368.833 171.500 C 369.017 170.950, 368.833 170.834, 368.425 171.241 C 368.018 171.649, 366.994 171.424, 366.152 170.741 C 365.309 170.059, 366.624 171.975, 369.074 175 C 371.524 178.025, 374.571 182.188, 375.846 184.250 C 377.120 186.312, 378.378 188, 378.641 188 C 378.903 188, 378.797 187.480, 378.405 186.845 C 377.972 186.146, 378.129 185.962, 378.802 186.378 C 379.413 186.755, 379.697 187.625, 379.434 188.311 C 379.171 188.996, 379.674 190.444, 380.552 191.529 C 381.430 192.613, 381.820 192.868, 381.420 192.095 C 380.936 191.164, 381.085 190.935, 381.862 191.415 C 382.506 191.813, 382.791 192.529, 382.496 193.006 C 381.807 194.121, 387.130 205.038, 388.077 204.452 C 388.929 203.926, 390.277 207.056, 389.524 207.810 C 389.236 208.098, 389 207.733, 389 207 C 389 206.267, 388.764 205.902, 388.476 206.190 C 387.543 207.124, 389.177 210.009, 390.259 209.340 C 390.879 208.957, 391.011 209.172, 390.583 209.865 C 389.547 211.542, 391.912 218.173, 393.251 217.345 C 393.956 216.909, 394.104 217.287, 393.670 218.418 C 393.301 219.379, 393.864 223.615, 394.920 227.832 C 403.253 261.104, 398.780 296.555, 382.459 326.600 C 363.542 361.423, 328.967 387.771, 291.500 395.916 L 283.500 397.655 283.242 457.445 L 282.984 517.235 289.742 516.557 C 335.524 511.969, 383.879 491.929, 420.780 462.249 C 506.033 393.680, 538.925 283.119, 504.897 179.500 C 499.850 164.130, 485.385 132.644, 483.816 133.614 C 483.340 133.908, 483.051 133.778, 483.173 133.324 C 483.668 131.496, 481.804 128.001, 480.678 128.646 C 480.030 129.017, 479.820 128.966, 480.210 128.534 C 480.911 127.756, 478.449 122, 477.415 122 C 477.122 122, 477.203 122.520, 477.595 123.155 C 478.041 123.876, 477.869 124.037, 477.138 123.585 C 476.494 123.187, 476.226 122.443, 476.543 121.930 C 477.206 120.858, 468.599 108.074, 463.368 102.360 L 459.834 98.500 463.556 103.500 L 467.278 108.500 462.677 103.500 C 458.175 98.607, 456.756 96.165, 459.250 97.602 C 459.938 97.998, 459.409 97.125, 458.076 95.661 C 455.483 92.815, 454.429 92.214, 455.602 94.250 C 455.998 94.938, 455.125 94.409, 453.661 93.076 C 450.438 90.139, 450.077 87.926, 453.250 90.552 C 454.488 91.576, 449.656 86.470, 442.514 79.207 C 435.372 71.943, 429.316 66, 429.056 66 C 428.796 66, 430.571 68.025, 433 70.500 M 148.441 70.555 C 146.611 72.022, 146.643 72.042, 149 70.920 C 152.061 69.462, 152.628 69, 151.358 69 C 150.821 69, 149.509 69.700, 148.441 70.555 M 85 74.500 C 82.571 76.975, 80.809 79, 81.084 79 C 81.359 79, 83.571 76.975, 86 74.500 C 88.429 72.025, 90.191 70, 89.916 70 C 89.641 70, 87.429 72.025, 85 74.500 M 371 70.430 C 371 70.705, 371.900 71.411, 373 72 C 374.100 72.589, 375 72.845, 375 72.570 C 375 72.295, 374.100 71.589, 373 71 C 371.900 70.411, 371 70.155, 371 70.430 M 377.500 74.518 C 378.600 75.414, 380.400 76.588, 381.500 77.128 L 383.500 78.110 381.500 76.482 C 380.400 75.586, 378.600 74.412, 377.500 73.872 L 375.500 72.890 377.500 74.518 M 443.500 82 C 447.320 85.850, 450.671 89, 450.946 89 C 451.221 89, 448.320 85.850, 444.500 82 C 440.680 78.150, 437.329 75, 437.054 75 C 436.779 75, 439.680 78.150, 443.500 82 M 384 78.364 C 384 78.639, 385.350 79.825, 387 81 C 388.650 82.175, 390 82.911, 390 82.636 C 390 82.361, 388.650 81.175, 387 80 C 385.350 78.825, 384 78.089, 384 78.364 M 131.270 80.603 C 131.601 80.934, 130.664 82.317, 129.186 83.676 L 126.500 86.146 129.711 83.914 C 132.471 81.995, 133.268 80, 131.274 80 C 130.940 80, 130.938 80.271, 131.270 80.603 M 391 83.378 C 391 83.585, 391.788 84.373, 392.750 85.128 C 394.336 86.371, 394.371 86.336, 393.128 84.750 C 391.821 83.084, 391 82.555, 391 83.378 M 395 86.314 C 395 86.589, 397.250 88.698, 400 91 C 402.750 93.302, 405 94.961, 405 94.686 C 405 94.411, 402.750 92.302, 400 90 C 397.250 87.698, 395 86.039, 395 86.314 M 123.405 89.250 L 121.500 91.500 123.750 89.595 C 124.987 88.547, 126 87.535, 126 87.345 C 126 86.545, 125.195 87.136, 123.405 89.250 M 436.500 90 C 436.840 90.550, 437.316 91, 437.559 91 C 437.802 91, 438 90.550, 438 90 C 438 89.450, 437.523 89, 436.941 89 C 436.359 89, 436.160 89.450, 436.500 90 M 200 96 C 199.099 96.582, 198.975 96.975, 199.691 96.985 C 200.346 96.993, 201.160 96.550, 201.500 96 C 202.267 94.758, 201.921 94.758, 200 96 M 446 95.393 C 446 95.609, 446.698 96.054, 447.552 96.382 C 448.442 96.723, 448.843 96.555, 448.493 95.989 C 447.906 95.038, 446 94.583, 446 95.393 M 323 97 C 323.825 97.533, 324.950 97.969, 325.500 97.969 C 326.050 97.969, 325.825 97.533, 325 97 C 324.175 96.467, 323.050 96.031, 322.500 96.031 C 321.950 96.031, 322.175 96.467, 323 97 M 105.971 103.750 L 99.500 110.500 106.250 104.029 C 112.520 98.018, 113.457 97, 112.721 97 C 112.568 97, 109.530 100.037, 105.971 103.750 M 328 99 C 328.825 99.533, 329.950 99.969, 330.500 99.969 C 331.050 99.969, 330.825 99.533, 330 99 C 329.175 98.467, 328.050 98.031, 327.500 98.031 C 326.950 98.031, 327.175 98.467, 328 99 M 188 101 C 186.075 102.054, 184.950 102.916, 185.500 102.916 C 186.050 102.916, 188.075 102.054, 190 101 C 191.925 99.946, 193.050 99.084, 192.500 99.084 C 191.950 99.084, 189.925 99.946, 188 101 M 176.750 106.572 C 173.012 108.600, 173.239 109.445, 177 107.500 C 178.650 106.647, 180 105.735, 180 105.474 C 180 104.831, 179.893 104.867, 176.750 106.572 M 346 107.430 C 346 107.705, 346.900 108.411, 348 109 C 349.100 109.589, 350 109.845, 350 109.570 C 350 109.295, 349.100 108.589, 348 108 C 346.900 107.411, 346 107.155, 346 107.430 M 170.441 110.555 C 168.577 112.049, 168.589 112.067, 170.750 111.020 C 171.988 110.420, 173 109.720, 173 109.465 C 173 108.700, 172.481 108.921, 170.441 110.555 M 467 109.378 C 467 109.585, 467.788 110.373, 468.750 111.128 C 470.336 112.371, 470.371 112.336, 469.128 110.750 C 467.821 109.084, 467 108.555, 467 109.378 M 352.500 111.518 C 353.600 112.414, 355.400 113.588, 356.500 114.128 L 358.500 115.110 356.500 113.482 C 355.400 112.586, 353.600 111.412, 352.500 110.872 L 350.500 109.890 352.500 111.518 M 163.732 114.536 C 161.679 115.931, 160 117.287, 160 117.550 C 160 117.813, 161.800 116.837, 164 115.381 C 167.493 113.070, 168.674 112, 167.732 112 C 167.585 112, 165.785 113.141, 163.732 114.536 M 362 117.378 C 362 117.585, 362.788 118.373, 363.750 119.128 C 365.336 120.371, 365.371 120.336, 364.128 118.750 C 362.821 117.084, 362 116.555, 362 117.378 M 156.872 119.750 C 155.629 121.336, 155.664 121.371, 157.250 120.128 C 158.213 119.373, 159 118.585, 159 118.378 C 159 117.555, 158.179 118.084, 156.872 119.750 M 366 120.296 C 366 120.550, 368.117 122.493, 370.703 124.613 C 373.290 126.733, 375.084 127.945, 374.690 127.307 C 373.849 125.947, 366 119.614, 366 120.296 M 434.500 125 C 435.495 126.100, 436.535 127, 436.810 127 C 437.085 127, 436.495 126.100, 435.500 125 C 434.505 123.900, 433.465 123, 433.190 123 C 432.915 123, 433.505 123.900, 434.500 125 M 283.750 124.662 C 284.438 124.940, 285.563 124.940, 286.250 124.662 C 286.938 124.385, 286.375 124.158, 285 124.158 C 283.625 124.158, 283.063 124.385, 283.750 124.662 M 231.813 125.683 C 232.534 125.972, 233.397 125.936, 233.729 125.604 C 234.061 125.272, 233.471 125.036, 232.417 125.079 C 231.252 125.127, 231.015 125.364, 231.813 125.683 M 289.813 125.683 C 290.534 125.972, 291.397 125.936, 291.729 125.604 C 292.061 125.272, 291.471 125.036, 290.417 125.079 C 289.252 125.127, 289.015 125.364, 289.813 125.683 M 227.813 126.683 C 228.534 126.972, 229.397 126.936, 229.729 126.604 C 230.061 126.272, 229.471 126.036, 228.417 126.079 C 227.252 126.127, 227.015 126.364, 227.813 126.683 M 293.813 126.683 C 294.534 126.972, 295.397 126.936, 295.729 126.604 C 296.061 126.272, 295.471 126.036, 294.417 126.079 C 293.252 126.127, 293.015 126.364, 293.813 126.683 M 223.813 127.683 C 224.534 127.972, 225.397 127.936, 225.729 127.604 C 226.061 127.272, 225.471 127.036, 224.417 127.079 C 223.252 127.127, 223.015 127.364, 223.813 127.683 M 300.813 128.683 C 301.534 128.972, 302.397 128.936, 302.729 128.604 C 303.061 128.272, 302.471 128.036, 301.417 128.079 C 300.252 128.127, 300.015 128.364, 300.813 128.683 M 376 128.275 C 376 128.426, 379.488 131.914, 383.750 136.025 L 391.500 143.500 384.025 135.750 C 377.082 128.552, 376 127.544, 376 128.275 M 308 131 C 308.825 131.533, 309.950 131.969, 310.500 131.969 C 311.050 131.969, 310.825 131.533, 310 131 C 309.175 130.467, 308.050 130.031, 307.500 130.031 C 306.950 130.031, 307.175 130.467, 308 131 M 210 132 C 209.175 132.533, 208.950 132.969, 209.500 132.969 C 210.050 132.969, 211.175 132.533, 212 132 C 212.825 131.467, 213.050 131.031, 212.500 131.031 C 211.950 131.031, 210.825 131.467, 210 132 M 313 133 C 313.825 133.533, 314.950 133.969, 315.500 133.969 C 316.050 133.969, 315.825 133.533, 315 133 C 314.175 132.467, 313.050 132.031, 312.500 132.031 C 311.950 132.031, 312.175 132.467, 313 133 M 138.437 136.250 L 135.500 139.500 138.750 136.563 C 140.537 134.948, 142 133.485, 142 133.313 C 142 132.540, 141.175 133.221, 138.437 136.250 M 202 135.500 C 199.525 136.825, 197.950 137.910, 198.500 137.910 C 199.050 137.910, 201.525 136.825, 204 135.500 C 206.475 134.175, 208.050 133.090, 207.500 133.090 C 206.950 133.090, 204.475 134.175, 202 135.500 M 193.750 139.572 C 190.012 141.600, 190.239 142.445, 194 140.500 C 195.650 139.647, 197 138.735, 197 138.474 C 197 137.831, 196.893 137.867, 193.750 139.572 M 445.511 140.377 C 446.457 141.820, 447.419 143, 447.650 143 C 448.374 143, 446.045 139.146, 444.891 138.433 C 444.287 138.059, 444.566 138.934, 445.511 140.377 M 329 140.430 C 329 140.705, 329.900 141.411, 331 142 C 332.100 142.589, 333 142.845, 333 142.570 C 333 142.295, 332.100 141.589, 331 141 C 329.900 140.411, 329 140.155, 329 140.430 M 187.441 143.555 C 185.577 145.049, 185.589 145.067, 187.750 144.020 C 188.988 143.420, 190 142.720, 190 142.465 C 190 141.700, 189.481 141.921, 187.441 143.555 M 390.654 144.750 C 390.399 145.163, 391.287 146.851, 392.628 148.500 C 394.252 150.499, 394.825 150.833, 394.345 149.500 C 393.684 147.663, 393.783 147.619, 395.563 148.962 C 396.628 149.766, 396.178 148.978, 394.563 147.212 C 391.336 143.683, 391.320 143.673, 390.654 144.750 M 391 145.378 C 391 145.585, 391.788 146.373, 392.750 147.128 C 394.336 148.371, 394.371 148.336, 393.128 146.750 C 391.821 145.084, 391 144.555, 391 145.378 M 179.872 148.750 C 178.629 150.336, 178.664 150.371, 180.250 149.128 C 181.916 147.821, 182.445 147, 181.622 147 C 181.415 147, 180.627 147.787, 179.872 148.750 M 343 149.296 C 343 149.550, 345.117 151.493, 347.703 153.613 C 350.290 155.733, 352.084 156.945, 351.690 156.307 C 350.849 154.947, 343 148.614, 343 149.296 M 358.519 163.019 C 361.722 166.256, 364.712 168.678, 365.161 168.401 C 366.360 167.659, 363.538 163.788, 359.382 160.475 C 353.011 155.395, 352.491 156.928, 358.519 163.019 M 359.500 163 C 362.209 165.750, 364.650 168, 364.925 168 C 365.200 168, 363.209 165.750, 360.500 163 C 357.791 160.250, 355.350 158, 355.075 158 C 354.800 158, 356.791 160.250, 359.500 163 M 161.435 163.250 C 155.365 169.731, 152.596 173, 153.180 173 C 153.471 173, 156.508 169.850, 159.930 166 C 166.762 158.313, 167.749 156.510, 161.435 163.250 M 391.014 163.414 C 391.662 164.062, 392.338 164.062, 392.986 163.414 C 393.633 162.767, 393.295 162.429, 392 162.429 C 390.705 162.429, 390.367 162.767, 391.014 163.414 M 370.970 175.944 C 371.543 177.014, 372.505 178.194, 373.109 178.567 C 373.713 178.941, 373.434 178.066, 372.489 176.623 C 370.487 173.568, 369.451 173.105, 370.970 175.944 M 375.511 182.377 C 376.457 183.820, 377.419 185, 377.650 185 C 378.374 185, 376.045 181.146, 374.891 180.433 C 374.287 180.059, 374.566 180.934, 375.511 182.377 M 250.618 215.112 C 221.634 221.917, 206.322 254.562, 219.466 281.531 C 240.953 325.616, 307.329 310.106, 307.329 261 C 307.329 230.792, 279.556 208.319, 250.618 215.112 M 256.362 223.792 C 246.855 228.967, 243.774 234.762, 246.689 241.986 C 252.304 255.903, 268.734 255.987, 274.578 242.128 C 276.639 237.241, 276.358 234.956, 273.057 229.751 C 268.402 222.411, 262.663 220.362, 256.362 223.792" stroke="none" fill="#c4922a" fill-rule="evenodd"/>
</svg>