<svg xmlns="http://www.w3.org/2000/svg" width="464" height="436" viewBox="0 0 464 436" version="1.1">
	<path d="M 444.250 5.899 C 437.081 7.730, 437.264 7.207, 439.485 19.500 C 446.180 56.554, 429.052 122.320, 400.735 168.291 L 398.400 172.082 398.813 165.599 C 399.323 157.583, 397.624 147.383, 394.476 139.569 C 392.263 134.076, 384.167 120.978, 383.008 121.017 C 382.729 121.026, 380.605 124.964, 378.288 129.767 C 369.695 147.585, 355.843 164.812, 337.121 180.966 C 331.087 186.173, 326.374 190.797, 326.649 191.241 C 326.924 191.686, 326.778 191.943, 326.324 191.812 C 324.751 191.359, 320.947 194.106, 321.627 195.205 C 322.008 195.823, 321.856 196.029, 321.281 195.673 C 320.715 195.324, 314.876 200.317, 308.305 206.769 C 301.734 213.221, 299.990 215.117, 304.429 210.982 C 317.708 198.613, 321.524 195.431, 315.768 201.523 C 311.496 206.045, 311.204 206.646, 312.768 207.701 C 314.282 208.722, 314.185 208.819, 312 208.473 C 309.748 208.115, 309.672 208.206, 311.234 209.387 C 312.188 210.108, 312.676 210.991, 312.318 211.349 C 311.960 211.707, 312.218 212, 312.892 212 C 313.566 212, 313.840 212.450, 313.500 213 C 313.160 213.550, 313.385 214, 314 214 C 314.615 214, 314.835 214.457, 314.490 215.016 C 314.144 215.575, 313.373 215.731, 312.776 215.362 C 312.129 214.961, 311.979 215.156, 312.405 215.845 C 312.797 216.480, 314.243 217, 315.618 217 C 317.057 217, 317.851 217.431, 317.490 218.016 C 317.144 218.575, 316.373 218.731, 315.776 218.362 C 315.179 217.993, 314.975 218.150, 315.322 218.712 C 315.669 219.273, 315.063 220.538, 313.976 221.521 C 312.191 223.137, 312 223.150, 312 221.655 C 312 220.745, 311.534 220, 310.965 220 C 310.263 220, 310.274 220.644, 311 222 C 311.589 223.100, 311.830 224.056, 311.535 224.125 C 310.954 224.261, 308.032 224.639, 305.250 224.938 C 303.868 225.087, 303.987 225.322, 305.814 226.055 C 308.657 227.195, 307.845 228.973, 304.749 228.386 C 302.951 228.044, 302.860 228.119, 304.296 228.759 C 305.866 229.458, 305.252 230.623, 299.415 238.029 C 291.374 248.232, 283.278 260, 284.299 260 C 284.529 260, 286.421 257.413, 288.504 254.250 C 300.638 235.829, 315.018 220.231, 339 199.477 C 359.946 181.351, 378.966 161.233, 381.275 154.764 C 382.404 151.601, 383.302 155.737, 383.239 163.804 C 383.081 183.931, 370.625 208.084, 349.523 229.187 C 345.385 233.325, 342 237.134, 342 237.652 C 342 238.170, 343.781 240.333, 345.958 242.459 L 349.916 246.324 359.567 237.465 C 395.016 204.925, 420.628 165.598, 437.697 117.500 C 443.712 100.550, 444.079 102.435, 439.340 125.928 C 426.396 190.083, 398.216 232.472, 332 287.392 C 326.225 292.182, 321.500 296.597, 321.500 297.205 C 321.500 297.812, 320.642 298.435, 319.593 298.589 C 318.545 298.743, 316.745 299.885, 315.593 301.126 C 313.650 303.222, 313.643 303.280, 315.500 301.942 C 317.343 300.613, 317.393 300.636, 316.137 302.239 C 315.387 303.195, 314.412 303.755, 313.971 303.482 C 313.032 302.902, 310.474 304.941, 295 318.612 C 276.143 335.270, 263.423 349.217, 249.461 368.543 L 243.713 376.500 244.341 372 C 245.255 365.448, 245.806 360.143, 245.302 362.750 C 245.063 363.988, 244.495 365, 244.040 365 C 243.585 365, 243.679 363.164, 244.248 360.920 C 244.818 358.677, 245.581 357.321, 245.943 357.908 C 246.306 358.496, 247.598 354.594, 248.814 349.238 C 251.924 335.544, 252.171 334.226, 251.271 336.125 C 250.652 337.429, 250.006 337.548, 248 336.723 C 245.699 335.777, 245.659 335.658, 247.500 335.232 C 250.085 334.633, 251.040 333.059, 250.532 330.230 C 250.308 328.979, 250.546 328.219, 251.063 328.539 C 251.578 328.857, 252 328.641, 252 328.059 C 252 327.477, 251.480 327, 250.845 327 C 250.169 327, 250.402 326.214, 251.406 325.104 C 252.740 323.630, 252.830 323.090, 251.811 322.683 C 250.889 322.314, 250.974 322.134, 252.097 322.079 C 252.976 322.036, 254.222 320.988, 254.868 319.750 C 256.170 317.253, 256.200 316.836, 254.493 325 C 254.205 326.375, 255.323 323.708, 256.975 319.074 C 258.628 314.439, 259.760 310.427, 259.490 310.157 C 259.221 309.887, 259 310.162, 259 310.766 C 259 311.371, 257.652 311.828, 256.004 311.781 C 253.608 311.713, 253.232 311.426, 254.126 310.348 C 254.951 309.354, 254.951 309, 254.122 309 C 251.646 309, 253.191 306.992, 255.750 306.884 C 257.465 306.812, 257.837 306.595, 256.738 306.308 C 255.769 306.055, 255.233 305.433, 255.547 304.924 C 255.861 304.416, 255.143 304, 253.952 304 C 252.367 304, 251.953 303.566, 252.407 302.381 C 252.906 301.083, 252.519 300.859, 250.456 301.253 C 248.499 301.627, 248.017 301.397, 248.442 300.291 C 248.749 299.491, 249.007 298.536, 249.015 298.168 C 249.024 297.801, 249.455 298.171, 249.974 298.992 C 250.725 300.180, 251.170 300.230, 252.158 299.242 C 253.147 298.253, 253.054 298, 251.700 298 C 249.380 298, 249.532 296.988, 253 289.340 C 256.186 282.312, 256.870 279.864, 254.491 284 C 251.563 289.091, 244.882 307.249, 245.420 308.652 C 245.773 309.572, 245.557 309.844, 244.831 309.396 C 244.051 308.914, 243.865 309.377, 244.249 310.845 C 244.560 312.032, 244.428 312.764, 243.956 312.473 C 242.733 311.717, 238.841 324.923, 239.590 327.285 C 239.983 328.521, 239.828 329.012, 239.172 328.606 C 238.520 328.203, 237.085 332.461, 235.340 339.981 C 233.806 346.591, 232.314 351.989, 232.025 351.976 C 231.736 351.963, 229.628 344.381, 227.341 335.127 C 212.560 275.335, 183.721 229.324, 135 187.801 C 109.475 166.048, 94.133 147.878, 85.276 128.914 C 83.244 124.561, 81.337 121.006, 81.040 121.013 C 79.891 121.040, 71.481 134.712, 69.381 139.967 C 66.507 147.159, 64.618 160.047, 65.418 167 L 66.051 172.500 61.935 165.500 C 33.758 117.586, 18.559 59.102, 24.399 21.074 C 26.643 6.461, 27.007 7.567, 19.452 6.065 C 15.850 5.349, 12.643 5.023, 12.326 5.340 C 11.468 6.199, 8.193 24.758, 6.387 39 C 4.551 53.473, 4.326 88.247, 5.973 103 C 13.151 167.326, 39.045 220.732, 84.939 265.871 C 95.667 276.423, 106.548 285.788, 145.500 317.996 C 173.158 340.866, 196.064 366.077, 210.010 389 C 215.719 398.382, 230.997 428.774, 230.999 430.750 C 231.001 433.466, 232.614 431.703, 234.847 426.544 C 236.137 423.562, 236.855 420.575, 236.442 419.906 C 236.029 419.238, 236.098 418.941, 236.595 419.246 C 237.093 419.552, 240.510 413.987, 244.189 406.880 C 247.868 399.772, 250.456 394.218, 249.939 394.538 C 249.423 394.857, 249 394.674, 249 394.132 C 249 393.590, 248.212 392.941, 247.250 392.689 C 245.583 392.254, 245.583 392.226, 247.250 392.116 C 249.824 391.945, 249.384 390.014, 246.750 389.919 C 244.742 389.846, 244.823 389.690, 247.500 388.464 C 249.838 387.393, 250.058 387.077, 248.500 387.030 C 246.838 386.980, 246.754 386.805, 248 386 C 249.244 385.196, 249.159 385.025, 247.500 385 C 245.952 384.976, 245.816 384.770, 246.895 384.086 C 248.016 383.376, 247.918 383.107, 246.395 382.717 C 245.266 382.428, 245.915 382.154, 248 382.039 C 255.892 381.605, 258.106 380.404, 251.477 380.153 C 248.985 380.059, 246.411 379.873, 245.758 379.741 C 244.109 379.406, 241.836 374.957, 242.347 373.064 C 242.612 372.078, 242.811 372.310, 242.884 373.691 C 243.022 376.303, 244.797 377.692, 245.536 375.768 C 245.889 374.846, 247.256 374.542, 249.779 374.824 C 251.825 375.053, 253.239 374.962, 252.919 374.623 C 252.600 374.283, 251.188 373.910, 249.781 373.794 C 248.070 373.652, 247.398 373.127, 247.751 372.207 C 248.041 371.451, 248.553 371.252, 248.889 371.765 C 249.645 372.920, 257 372.982, 257 371.833 C 257 370.886, 255.718 370.653, 251.696 370.868 L 248.892 371.018 251.960 366.558 C 262.036 351.914, 277.584 334.950, 295.231 319.348 C 305.618 310.165, 306.035 309.911, 308.204 311.430 C 310.108 312.764, 310.177 313, 308.663 313 C 307.684 313, 307.160 313.450, 307.500 314 C 307.840 314.550, 307.304 315.032, 306.309 315.070 C 304.694 315.133, 304.715 315.233, 306.500 316 C 307.933 316.616, 308.075 316.915, 307 317.055 C 306.175 317.162, 307.525 317.587, 310 317.998 C 312.766 318.458, 315.271 318.332, 316.500 317.671 C 317.600 317.080, 319.014 316.509, 319.642 316.402 C 321.547 316.079, 358.604 285.280, 371.973 272.909 C 442.112 208.006, 471.669 119.966, 455.566 23.915 C 452.760 7.176, 452.035 3.941, 451.142 4.151 C 450.789 4.234, 447.688 5.020, 444.250 5.899 M 21.061 103.500 C 20.681 111.220, 28.522 144.955, 34.582 161.675 C 52.575 211.320, 79.169 244.414, 142.500 295.972 C 177.879 324.775, 194.430 341.326, 213.329 366.802 C 222.010 378.504, 221.719 379.662, 216.415 354.500 C 210.719 327.484, 199.481 295.587, 188.757 276 C 171.763 244.962, 156.081 226.235, 123.283 197.811 C 104.601 181.621, 94.915 171.689, 87.355 160.969 C 84.685 157.184, 82.162 154.067, 81.750 154.043 C 80.984 153.999, 80.687 159.635, 80.994 168.413 C 81.553 184.416, 94.148 207.691, 112.750 227.095 C 117.838 232.402, 122 237.057, 122 237.440 C 122 238.708, 115.520 245.964, 114.370 245.982 C 112.467 246.012, 83.852 217.093, 75.707 206.909 C 54.876 180.860, 37.692 149.513, 25.872 116 C 23.253 108.575, 21.088 102.950, 21.061 103.500 M 320.437 214.250 L 317.500 217.500 320.750 214.563 C 323.779 211.825, 324.460 211, 323.687 211 C 323.515 211, 322.052 212.463, 320.437 214.250 M 290.748 225.250 C 286.054 230.841, 279.891 239.171, 281.683 237.500 C 283.389 235.911, 296.002 220, 295.557 220 C 295.336 220, 293.171 222.363, 290.748 225.250 M 305.750 221.662 C 306.438 221.940, 307.563 221.940, 308.250 221.662 C 308.938 221.385, 308.375 221.158, 307 221.158 C 305.625 221.158, 305.063 221.385, 305.750 221.662 M 278 242 C 276.825 243.650, 276.089 245, 276.364 245 C 276.639 245, 277.825 243.650, 279 242 C 280.175 240.350, 280.911 239, 280.636 239 C 280.361 239, 279.175 240.350, 278 242 M 272 251 C 271.411 252.100, 271.155 253, 271.430 253 C 271.705 253, 272.411 252.100, 273 251 C 273.589 249.900, 273.845 249, 273.570 249 C 273.295 249, 272.589 249.900, 272 251 M 269 256 C 268.411 257.100, 268.155 258, 268.430 258 C 268.705 258, 269.411 257.100, 270 256 C 270.589 254.900, 270.845 254, 270.570 254 C 270.295 254, 269.589 254.900, 269 256 M 264.718 263.250 C 261.107 269.459, 255.819 280.154, 256.185 280.508 C 256.358 280.677, 259.066 275.906, 262.202 269.907 C 267.960 258.892, 269.272 255.421, 264.718 263.250 M 282.381 262.250 C 278.939 268.090, 278.715 268.589, 280.468 266.500 C 282.499 264.080, 284.250 261, 283.594 261 C 283.332 261, 282.786 261.563, 282.381 262.250 M 274 277 C 272.334 280.300, 271.196 283, 271.471 283 C 271.746 283, 273.334 280.300, 275 277 C 276.666 273.700, 277.804 271, 277.529 271 C 277.254 271, 275.666 273.700, 274 277 M 268.189 288.549 C 265.176 294.749, 265.512 295.617, 268.615 289.652 C 270.003 286.986, 270.967 284.633, 270.757 284.424 C 270.548 284.215, 269.392 286.071, 268.189 288.549 M 264.624 296.539 C 263.659 299.053, 263.943 299.702, 265.122 297.675 C 265.706 296.671, 265.973 295.639, 265.715 295.382 C 265.458 295.124, 264.966 295.645, 264.624 296.539 M 262.624 301.539 C 261.659 304.053, 261.943 304.702, 263.122 302.675 C 263.706 301.671, 263.973 300.639, 263.715 300.382 C 263.458 300.124, 262.966 300.645, 262.624 301.539 M 260.624 306.539 C 259.659 309.053, 259.943 309.702, 261.122 307.675 C 261.706 306.671, 261.973 305.639, 261.715 305.382 C 261.458 305.124, 260.966 305.645, 260.624 306.539 M 308.924 307.750 L 306.500 310.500 309.250 308.076 C 310.762 306.742, 312 305.505, 312 305.326 C 312 304.541, 311.190 305.180, 308.924 307.750 M 255.750 313.757 C 253.657 314.223, 253.428 316.566, 255.401 317.324 C 256.261 317.654, 257.019 317.035, 257.362 315.724 C 258.013 313.233, 258.028 313.251, 255.750 313.757 M 312.940 322.076 L 307.500 327.153 313.250 322.386 C 318.527 318.011, 319.548 317, 318.690 317 C 318.520 317, 315.933 319.284, 312.940 322.076 M 241.079 321.583 C 241.127 322.748, 241.364 322.985, 241.683 322.188 C 241.972 321.466, 241.936 320.603, 241.604 320.271 C 241.272 319.939, 241.036 320.529, 241.079 321.583 M 247.500 324 C 247.160 324.550, 247.359 325, 247.941 325 C 248.523 325, 249 324.550, 249 324 C 249 323.450, 248.802 323, 248.559 323 C 248.316 323, 247.840 323.450, 247.500 324 M 291.292 342.250 C 277.542 356.132, 271.451 362.775, 268.551 367.049 C 267.973 367.901, 269.278 366.551, 271.451 364.049 C 273.624 361.547, 282.606 352.188, 291.411 343.250 C 300.217 334.313, 307.190 327, 306.908 327 C 306.626 327, 299.599 333.863, 291.292 342.250 M 252.571 330.571 C 252.204 332.037, 252.096 333.429, 252.331 333.665 C 252.567 333.900, 253.061 332.894, 253.429 331.429 C 253.796 329.963, 253.904 328.571, 253.669 328.335 C 253.433 328.100, 252.939 329.106, 252.571 330.571 M 247.600 338.765 C 248.205 339.169, 248.957 340.175, 249.271 341 C 249.653 342.002, 249.868 341.753, 249.921 340.250 C 249.974 338.738, 249.426 338.005, 248.250 338.015 C 247.171 338.025, 246.922 338.312, 247.600 338.765 M 246.079 353.583 C 246.127 354.748, 246.364 354.985, 246.683 354.188 C 246.972 353.466, 246.936 352.603, 246.604 352.271 C 246.272 351.939, 246.036 352.529, 246.079 353.583 M 243.158 368 C 243.158 369.375, 243.385 369.938, 243.662 369.250 C 243.940 368.563, 243.940 367.438, 243.662 366.750 C 243.385 366.063, 243.158 366.625, 243.158 368 M 261.691 376.250 C 256.640 383.407, 253.158 388.968, 254.647 387.500 C 256.248 385.921, 267.098 370, 266.573 370 C 266.313 370, 264.116 372.813, 261.691 376.250 M 252 391 C 251.411 392.100, 251.155 393, 251.430 393 C 251.705 393, 252.411 392.100, 253 391 C 253.589 389.900, 253.845 389, 253.570 389 C 253.295 389, 252.589 389.900, 252 391 M 247 398 C 246.411 399.100, 246.155 400, 246.430 400 C 246.705 400, 247.411 399.100, 248 398 C 248.589 396.900, 248.845 396, 248.570 396 C 248.295 396, 247.589 396.900, 247 398 M 240.450 410.099 C 239.028 412.904, 238.033 415.367, 238.238 415.571 C 238.443 415.776, 239.818 413.482, 241.295 410.472 C 242.771 407.462, 243.766 405, 243.506 405 C 243.246 405, 241.871 407.295, 240.450 410.099" stroke="none" fill="#c4922a" fill-rule="evenodd"/>
</svg>