<svg xmlns="http://www.w3.org/2000/svg" width="985" height="542" viewBox="0 0 985 542" version="1.1">
	<path d="M 565.510 150.016 C 565.856 150.575, 566.557 150.774, 567.069 150.457 C 568.456 149.600, 568.198 149, 566.441 149 C 565.584 149, 565.165 149.457, 565.510 150.016 M 622.500 167 C 622.840 167.550, 623.316 168, 623.559 168 C 623.802 168, 624 167.550, 624 167 C 624 166.450, 623.523 166, 622.941 166 C 622.359 166, 622.160 166.450, 622.500 167 M 781 180 C 781 180.550, 781.477 181, 782.059 181 C 782.641 181, 782.840 180.550, 782.500 180 C 782.160 179.450, 781.684 179, 781.441 179 C 781.198 179, 781 179.450, 781 180 M 597.500 187 C 597.840 187.550, 598.316 188, 598.559 188 C 598.802 188, 599 187.550, 599 187 C 599 186.450, 598.523 186, 597.941 186 C 597.359 186, 597.160 186.450, 597.500 187 M 637.613 187.183 C 637.902 187.650, 638.557 187.774, 639.069 187.457 C 640.377 186.649, 640.230 186.333, 638.544 186.333 C 637.743 186.333, 637.324 186.716, 637.613 187.183 M 595.500 190 C 595.840 190.550, 596.541 191, 597.059 191 C 597.577 191, 598 190.550, 598 190 C 598 189.450, 597.298 189, 596.441 189 C 595.584 189, 595.160 189.450, 595.500 190 M 626.603 198.833 C 626.320 199.292, 626.723 199.667, 627.500 199.667 C 628.277 199.667, 628.680 199.292, 628.397 198.833 C 628.114 198.375, 627.710 198, 627.500 198 C 627.290 198, 626.886 198.375, 626.603 198.833 M 645.500 211 C 645.840 211.550, 646.316 212, 646.559 212 C 646.802 212, 647 211.550, 647 211 C 647 210.450, 646.523 210, 645.941 210 C 645.359 210, 645.160 210.450, 645.500 211 M 720.500 212 C 720.160 212.550, 720.359 213, 720.941 213 C 721.523 213, 722 212.550, 722 212 C 722 211.450, 721.802 211, 721.559 211 C 721.316 211, 720.840 211.450, 720.500 212 M 662 215 C 662 215.550, 662.466 216, 663.035 216 C 663.714 216, 663.674 216.774, 662.918 218.250 C 661.857 220.324, 661.896 220.377, 663.420 218.928 C 664.384 218.010, 664.805 216.656, 664.430 215.678 C 663.732 213.859, 662 213.376, 662 215 M 666 216.941 C 666 217.459, 666.445 218.157, 666.989 218.493 C 667.555 218.843, 667.723 218.442, 667.382 217.552 C 666.717 215.820, 666 215.503, 666 216.941 M 670 218 C 670 218.550, 670.450 219, 671 219 C 671.550 219, 672 218.550, 672 218 C 672 217.450, 671.550 217, 671 217 C 670.450 217, 670 217.450, 670 218 M 697 219.941 C 697 220.459, 697.445 221.157, 697.989 221.493 C 698.555 221.843, 698.723 221.442, 698.382 220.552 C 697.717 218.820, 697 218.503, 697 219.941 M 677.733 221.124 C 678.412 221.808, 679.219 222.115, 679.526 221.807 C 679.834 221.499, 679.279 220.940, 678.293 220.564 C 676.868 220.022, 676.753 220.136, 677.733 221.124 M 650 222 C 650 222.550, 650.477 223, 651.059 223 C 651.641 223, 651.840 222.550, 651.500 222 C 651.160 221.450, 650.684 221, 650.441 221 C 650.198 221, 650 221.450, 650 222 M 737.733 223.124 C 738.412 223.808, 739.219 224.115, 739.526 223.807 C 739.834 223.499, 739.279 222.940, 738.293 222.564 C 736.868 222.022, 736.753 222.136, 737.733 223.124 M 529.733 225.124 C 530.412 225.808, 531.219 226.115, 531.526 225.807 C 531.834 225.499, 531.279 224.940, 530.293 224.564 C 528.868 224.022, 528.753 224.136, 529.733 225.124 M 709 225 C 708.099 225.582, 707.975 225.975, 708.691 225.985 C 709.346 225.993, 710.160 225.550, 710.500 225 C 711.267 223.758, 710.921 223.758, 709 225 M 667 227.500 C 667 228.325, 667.436 229, 667.969 229 C 668.501 229, 668.678 228.325, 668.362 227.500 C 668.045 226.675, 667.609 226, 667.393 226 C 667.177 226, 667 226.675, 667 227.500 M 705.500 227 C 705.840 227.550, 706.316 228, 706.559 228 C 706.802 228, 707 227.550, 707 227 C 707 226.450, 706.523 226, 705.941 226 C 705.359 226, 705.160 226.450, 705.500 227 M 4.290 249.250 L 4.413 269 14.957 269.018 C 26.823 269.037, 36.650 269.716, 45.500 271.127 C 48.800 271.653, 56.900 272.942, 63.500 273.991 C 77.008 276.140, 100.613 281.883, 108.367 284.908 C 111.190 286.010, 120.025 289.447, 128 292.546 C 156.106 303.469, 183.443 319.627, 205.500 338.355 C 214.021 345.590, 234 364.618, 234 365.499 C 234 366.491, 243.056 377.403, 244.634 378.311 C 245.408 378.758, 245.781 379.545, 245.462 380.061 C 245.143 380.578, 245.304 381, 245.820 381 C 247.268 381, 257.888 397.410, 263.294 408 C 270.952 423.002, 277.587 439.382, 280.636 450.813 C 281.181 452.858, 283.012 451.143, 282.900 448.691 C 282.808 446.670, 282.744 446.694, 282.071 449 C 281.415 451.249, 281.289 451.098, 280.813 447.500 C 280.172 442.654, 280.670 441.856, 282.685 444.502 C 284.189 446.476, 284.199 446.474, 283.569 444.355 C 282.856 441.954, 285.753 433.729, 287.034 434.521 C 288.154 435.213, 289.306 431.304, 288.410 429.854 C 287.930 429.077, 288.131 428.963, 289.015 429.510 C 290.008 430.123, 290.159 429.856, 289.617 428.445 C 289.220 427.409, 289.187 426.854, 289.546 427.212 C 289.904 427.571, 293.517 421.225, 297.575 413.111 C 327.839 352.596, 385.258 306.229, 457 284.374 C 484.517 275.991, 522.180 270.068, 548.271 270.020 L 559.041 270 558.771 249.750 L 558.500 229.500 554 229.390 L 549.500 229.280 553.750 229.698 L 558 230.115 558.002 249.307 L 558.005 268.500 549.641 268.180 C 510.318 266.678, 448.278 281.679, 405.933 302.929 C 397.024 307.400, 392.333 309.279, 392.333 308.377 C 392.333 307.601, 393.352 307, 394.667 307 C 395.950 307, 397 306.550, 397 306 C 397 305.450, 397.675 305, 398.500 305 C 399.325 305, 400 304.580, 400 304.067 C 400 303.554, 400.907 302.847, 402.015 302.495 C 403.123 302.144, 403.760 301.420, 403.431 300.888 C 403.068 300.301, 403.850 300.175, 405.416 300.568 C 407.031 300.974, 408 300.801, 408 300.108 C 408 299.499, 406.538 298.993, 404.750 298.985 C 402.587 298.974, 401.947 298.686, 402.835 298.123 C 403.570 297.657, 404.136 296.881, 404.094 296.399 C 404.052 295.916, 404.576 295.472, 405.259 295.413 C 409.039 295.083, 409.264 294.730, 406.500 293.464 L 403.500 292.090 407.821 292.045 C 411.761 292.004, 412.003 291.860, 410.562 290.419 C 408.672 288.529, 409.305 287.215, 412.736 285.910 C 415.858 284.723, 415.222 283.901, 411.089 283.783 C 407.050 283.669, 407.838 282.934, 412.684 282.294 C 417.139 281.707, 417.936 281.196, 416.137 280.085 C 415.136 279.466, 415.259 279.106, 416.666 278.539 C 418.319 277.873, 418.253 277.691, 416 276.704 C 413.669 275.683, 413.837 275.568, 418.500 275.008 C 422.838 274.486, 423.103 274.335, 420.500 273.868 L 417.500 273.330 420.831 272.524 C 422.680 272.076, 423.667 271.412, 423.051 271.031 C 422.303 270.569, 422.648 269.446, 424.109 267.588 C 425.773 265.473, 426.475 265.142, 427.124 266.166 C 427.785 267.209, 427.973 267.143, 427.985 265.867 C 428.003 263.920, 422.850 262.624, 421.807 264.312 C 421.423 264.934, 420.760 265.093, 420.333 264.667 C 419.076 263.410, 422.195 262.037, 426.500 261.952 C 430.287 261.877, 430.367 261.814, 428 260.763 C 425.685 259.735, 425.651 259.626, 427.535 259.285 C 428.655 259.083, 430.105 258.061, 430.759 257.014 C 431.911 255.170, 431.803 255.158, 427.224 256.625 C 419.456 259.113, 418.316 259.216, 422 257.097 C 426.262 254.645, 425.376 254.376, 420.577 256.665 C 418.657 257.580, 417.289 258.658, 417.537 259.060 C 417.785 259.462, 417.293 260.057, 416.442 260.384 C 415.592 260.710, 415.160 260.550, 415.482 260.029 C 415.821 259.480, 414.790 259.526, 413.035 260.137 C 411.367 260.719, 410.250 261.596, 410.553 262.086 C 410.856 262.576, 410.332 262.681, 409.388 262.319 C 408.132 261.836, 407.891 262.015, 408.490 262.985 C 409.015 263.833, 408.921 264.069, 408.229 263.642 C 406.750 262.728, 401.912 265.048, 402.686 266.301 C 403.034 266.864, 402.812 267.002, 402.184 266.614 C 401.565 266.231, 399.696 266.623, 398.029 267.485 C 394.732 269.190, 393.942 270.317, 396.750 269.309 C 399.027 268.492, 398.144 269.393, 395.129 270.964 C 393.201 271.969, 392.909 271.956, 393.564 270.897 C 395.708 267.428, 369.233 284.898, 354.962 296.369 C 324.052 321.215, 296.095 359.179, 283.986 392.750 C 281.397 399.930, 281.258 400.039, 279.851 396.001 C 279.276 394.352, 278.351 393.283, 277.795 393.626 C 277.157 394.021, 277.049 393.422, 277.500 392 C 277.945 390.598, 277.840 389.981, 277.220 390.364 C 276.673 390.702, 276.246 390.421, 276.270 389.739 C 276.394 386.318, 275.917 384.933, 274.845 385.595 C 274.137 386.033, 273.962 385.870, 274.392 385.174 C 275.063 384.090, 265.939 364.583, 263.788 362.500 C 263.217 361.947, 263.282 362.618, 263.933 364 C 265.068 366.411, 265.052 366.429, 263.479 364.500 C 262.582 363.400, 261.180 361.150, 260.364 359.500 L 258.880 356.500 261.039 359 C 263.122 361.412, 263.118 361.360, 260.917 357.500 C 257.793 352.021, 253.012 345, 252.404 345 C 252.129 345, 253.199 346.912, 254.782 349.250 C 258.265 354.394, 259.691 356.910, 258.324 355.500 C 256.824 353.954, 250 344.065, 250 343.439 C 250 343.132, 250.563 343.220, 251.250 343.633 C 252.099 344.143, 252.060 343.842, 251.128 342.692 C 249.527 340.719, 248.551 340.434, 249.613 342.250 C 250.015 342.938, 249.366 342.643, 248.172 341.595 C 245.594 339.334, 245.219 337.143, 247.750 339.128 C 249.329 340.366, 249.368 340.332, 248.154 338.782 C 247.414 337.837, 246.345 337.162, 245.779 337.282 C 245.213 337.402, 244.523 336.875, 244.245 336.111 C 243.897 335.151, 244.167 334.973, 245.120 335.533 C 245.879 335.979, 245.643 335.366, 244.595 334.172 C 242.320 331.578, 241.192 331.262, 243.089 333.750 C 243.823 334.712, 242.978 334.178, 241.212 332.563 C 237.603 329.263, 236.751 326.632, 240.250 329.595 L 242.500 331.500 240.589 329.244 C 239.539 328.003, 238.449 327.218, 238.167 327.500 C 237.886 327.781, 234.192 324.746, 229.959 320.756 C 225.726 316.765, 221.641 312.993, 220.881 312.373 C 220.122 311.753, 218.788 310.403, 217.918 309.373 C 214.467 305.288, 209.792 301.900, 208.189 302.322 C 206.614 302.738, 206.613 302.776, 208.183 302.884 C 209.108 302.948, 210.151 303.900, 210.500 305 C 210.849 306.100, 211.779 307, 212.567 307 C 213.355 307, 214 307.450, 214 308 C 214 308.550, 212.088 309.032, 209.750 309.070 C 203.838 309.168, 207.739 310.793, 214.500 311.049 L 219.500 311.238 215 312.369 C 212.525 312.991, 210.036 313.803, 209.468 314.174 C 207.811 315.257, 192.845 315.060, 193.522 313.965 C 193.850 313.434, 193.690 313, 193.166 313 C 191.442 313, 190.973 316.052, 192.601 316.677 C 194.692 317.479, 192.512 318.928, 189 319.071 C 186.584 319.169, 186.597 319.201, 189.384 320.035 C 190.970 320.510, 195.020 320.639, 198.384 320.323 C 201.748 320.006, 204.262 320.005, 203.970 320.320 C 203.679 320.635, 201.512 321.007, 199.156 321.146 C 191.305 321.609, 193.758 322.998, 202.691 323.147 C 211.474 323.294, 211.482 323.296, 205.500 324.023 C 198.171 324.914, 191.759 324.213, 192.710 322.625 C 193.119 321.943, 192.782 321.987, 191.855 322.737 C 190.583 323.766, 188.581 322.815, 179.913 317.065 C 168.038 309.186, 144.952 297.056, 131.106 291.420 C 125.940 289.317, 122.242 287.419, 122.890 287.203 C 123.537 286.988, 124.620 287.270, 125.296 287.830 C 126.805 289.083, 129.504 289.356, 138.417 289.156 C 147.555 288.950, 146.542 288.386, 135.500 287.531 C 130.550 287.148, 126.050 286.371, 125.500 285.805 C 124.818 285.102, 125.255 285.004, 126.875 285.495 C 128.424 285.964, 129.027 285.852, 128.607 285.174 C 127.732 283.757, 134.079 283.937, 135.942 285.382 C 137.043 286.236, 137.206 286.204, 136.633 285.250 C 136.156 284.456, 136.472 284, 137.500 284 C 138.470 284, 138.832 283.537, 138.404 282.844 C 137.893 282.017, 138.589 281.868, 140.845 282.319 C 142.580 282.666, 144 282.549, 144 282.058 C 144 280.497, 141.596 280.222, 138.500 281.429 C 136.837 282.077, 134.163 282.295, 132.500 281.918 C 129.933 281.335, 130.797 280.435, 133.436 280.943 C 133.950 281.043, 135.525 280.834, 136.935 280.480 L 139.498 279.837 137.014 278.508 L 134.531 277.179 138.196 276.491 C 144.642 275.282, 143.682 273.211, 136.886 273.666 C 133.614 273.885, 130.164 273.613, 129.219 273.063 C 127.871 272.277, 128.470 272.024, 132 271.889 L 136.500 271.716 132.500 271 C 130.300 270.606, 129.175 270.170, 130 270.031 C 132.580 269.597, 136.451 270.154, 137.644 271.132 C 138.389 271.742, 139.348 271.509, 140.394 270.463 C 142.067 268.790, 142.547 266.914, 141.250 267.118 C 139.524 267.391, 138 266.945, 138 266.167 C 138 265.195, 139.687 264.939, 146.351 264.899 C 152.384 264.862, 151.345 263.450, 145 263.061 C 143.827 262.989, 143.783 262.790, 144.796 262.148 C 146.651 260.970, 130.924 254.270, 111.279 247.868 C 102.357 244.961, 95.551 242.277, 96.155 241.904 C 97.817 240.877, 79.454 236.861, 76.272 237.556 C 74.329 237.981, 73.912 237.872, 74.879 237.192 C 76.569 236.004, 66.767 234.408, 64.892 235.567 C 64.183 236.005, 63.952 235.887, 64.327 235.279 C 64.702 234.674, 63.428 234.010, 61.232 233.668 C 51.676 232.177, 26.356 229.999, 15.834 229.762 L 4.167 229.500 4.290 249.250 M 530.768 230.725 C 532.565 230.947, 535.265 230.943, 536.768 230.715 C 538.271 230.486, 536.800 230.304, 533.500 230.310 C 530.200 230.315, 528.971 230.502, 530.768 230.725 M 638 231.059 C 638 231.641, 638.450 231.840, 639 231.500 C 639.550 231.160, 640 230.684, 640 230.441 C 640 230.198, 639.550 230, 639 230 C 638.450 230, 638 230.477, 638 231.059 M 518.750 231.706 C 519.987 231.944, 522.013 231.944, 523.250 231.706 C 524.487 231.467, 523.475 231.272, 521 231.272 C 518.525 231.272, 517.513 231.467, 518.750 231.706 M 494 233.059 C 494 233.641, 494.450 233.840, 495 233.500 C 495.550 233.160, 496 232.684, 496 232.441 C 496 232.198, 495.550 232, 495 232 C 494.450 232, 494 232.477, 494 233.059 M 510.269 232.693 C 511.242 232.947, 512.592 232.930, 513.269 232.656 C 513.946 232.382, 513.150 232.175, 511.500 232.195 C 509.850 232.215, 509.296 232.439, 510.269 232.693 M 503.269 233.693 C 504.242 233.947, 505.592 233.930, 506.269 233.656 C 506.946 233.382, 506.150 233.175, 504.500 233.195 C 502.850 233.215, 502.296 233.439, 503.269 233.693 M 643 234 C 643 234.550, 643.477 235, 644.059 235 C 644.641 235, 644.840 234.550, 644.500 234 C 644.160 233.450, 643.684 233, 643.441 233 C 643.198 233, 643 233.450, 643 234 M 496.750 234.662 C 497.438 234.940, 498.563 234.940, 499.250 234.662 C 499.938 234.385, 499.375 234.158, 498 234.158 C 496.625 234.158, 496.063 234.385, 496.750 234.662 M 491.813 235.683 C 492.534 235.972, 493.397 235.936, 493.729 235.604 C 494.061 235.272, 493.471 235.036, 492.417 235.079 C 491.252 235.127, 491.015 235.364, 491.813 235.683 M 485.750 236.662 C 486.438 236.940, 487.563 236.940, 488.250 236.662 C 488.938 236.385, 488.375 236.158, 487 236.158 C 485.625 236.158, 485.063 236.385, 485.750 236.662 M 675.029 236.961 C 674.220 237.473, 673.818 238.152, 674.136 238.470 C 674.455 238.788, 675.284 238.362, 675.980 237.524 C 677.423 235.786, 677.146 235.622, 675.029 236.961 M 480.813 237.683 C 481.534 237.972, 482.397 237.936, 482.729 237.604 C 483.061 237.272, 482.471 237.036, 481.417 237.079 C 480.252 237.127, 480.015 237.364, 480.813 237.683 M 650.651 238.468 C 650.341 239.275, 650.424 240.144, 650.836 240.399 C 651.248 240.653, 651.650 239.993, 651.730 238.931 C 651.903 236.634, 651.432 236.432, 650.651 238.468 M 476.813 238.683 C 477.534 238.972, 478.397 238.936, 478.729 238.604 C 479.061 238.272, 478.471 238.036, 477.417 238.079 C 476.252 238.127, 476.015 238.364, 476.813 238.683 M 705.500 239 C 705.160 239.550, 705.332 240, 705.882 240 C 706.432 240, 707.160 239.550, 707.500 239 C 707.840 238.450, 707.668 238, 707.118 238 C 706.568 238, 705.840 238.450, 705.500 239 M 84 240 C 85.375 240.440, 87.400 240.801, 88.500 240.801 C 90.084 240.801, 89.980 240.634, 88 240 C 86.625 239.560, 84.600 239.199, 83.500 239.199 C 81.916 239.199, 82.020 239.366, 84 240 M 472.813 239.683 C 473.534 239.972, 474.397 239.936, 474.729 239.604 C 475.061 239.272, 474.471 239.036, 473.417 239.079 C 472.252 239.127, 472.015 239.364, 472.813 239.683 M 468.813 240.683 C 469.534 240.972, 470.397 240.936, 470.729 240.604 C 471.061 240.272, 470.471 240.036, 469.417 240.079 C 468.252 240.127, 468.015 240.364, 468.813 240.683 M 703.226 241.574 C 704.176 242.568, 705.227 243.107, 705.562 242.771 C 705.897 242.436, 705.120 241.623, 703.836 240.964 C 701.603 239.819, 701.576 239.846, 703.226 241.574 M 91.813 241.683 C 92.534 241.972, 93.397 241.936, 93.729 241.604 C 94.061 241.272, 93.471 241.036, 92.417 241.079 C 91.252 241.127, 91.015 241.364, 91.813 241.683 M 574 242 C 574 242.550, 574.477 243, 575.059 243 C 575.641 243, 575.840 242.550, 575.500 242 C 575.160 241.450, 574.684 241, 574.441 241 C 574.198 241, 574 241.450, 574 242 M 685.226 242.579 C 686.176 243.570, 687.168 244.166, 687.431 243.903 C 687.694 243.640, 686.917 242.829, 685.705 242.100 C 683.598 240.835, 683.577 240.857, 685.226 242.579 M 698 242 C 698 242.550, 698.477 243, 699.059 243 C 699.641 243, 699.840 242.550, 699.500 242 C 699.160 241.450, 698.684 241, 698.441 241 C 698.198 241, 698 241.450, 698 242 M 98.813 242.683 C 99.534 242.972, 100.397 242.936, 100.729 242.604 C 101.061 242.272, 100.471 242.036, 99.417 242.079 C 98.252 242.127, 98.015 242.364, 98.813 242.683 M 102.813 243.683 C 103.534 243.972, 104.397 243.936, 104.729 243.604 C 105.061 243.272, 104.471 243.036, 103.417 243.079 C 102.252 243.127, 102.015 243.364, 102.813 243.683 M 457.813 243.683 C 458.534 243.972, 459.397 243.936, 459.729 243.604 C 460.061 243.272, 459.471 243.036, 458.417 243.079 C 457.252 243.127, 457.015 243.364, 457.813 243.683 M 703 245.393 C 703 245.609, 703.698 246.054, 704.552 246.382 C 705.442 246.723, 705.843 246.555, 705.493 245.989 C 704.906 245.038, 703 244.583, 703 245.393 M 113.500 247 C 116.249 248.181, 117.828 248.181, 116 247 C 115.175 246.467, 113.825 246.055, 113 246.086 C 112.011 246.122, 112.181 246.433, 113.500 247 M 554.566 250.953 C 553.138 251.472, 552.965 251.860, 553.904 252.440 C 554.602 252.872, 555.668 252.732, 556.270 252.130 C 557.746 250.654, 556.934 250.094, 554.566 250.953 M 566 251 C 566 251.550, 566.477 252, 567.059 252 C 567.641 252, 567.840 251.550, 567.500 251 C 567.160 250.450, 566.684 250, 566.441 250 C 566.198 250, 566 250.450, 566 251 M 644 250.393 C 644 250.609, 644.675 251.045, 645.500 251.362 C 646.325 251.678, 647 251.501, 647 250.969 C 647 250.436, 646.325 250, 645.500 250 C 644.675 250, 644 250.177, 644 250.393 M 706 251 C 706 251.550, 706.477 252, 707.059 252 C 707.641 252, 707.840 251.550, 707.500 251 C 707.160 250.450, 706.684 250, 706.441 250 C 706.198 250, 706 250.450, 706 251 M 678.079 252.583 C 678.127 253.748, 678.364 253.985, 678.683 253.188 C 678.972 252.466, 678.936 251.603, 678.604 251.271 C 678.272 250.939, 678.036 251.529, 678.079 252.583 M 429 253 C 428.175 253.533, 427.950 253.969, 428.500 253.969 C 429.050 253.969, 430.175 253.533, 431 253 C 431.825 252.467, 432.050 252.031, 431.500 252.031 C 430.950 252.031, 429.825 252.467, 429 253 M 552.250 255.250 C 552.388 255.938, 552.910 256.797, 553.412 257.159 C 553.914 257.522, 553.559 258.584, 552.623 259.520 C 551.021 261.122, 551.026 261.301, 552.711 262.579 C 554.342 263.817, 554.351 263.939, 552.809 263.968 C 549.367 264.033, 549.928 266, 553.389 266 L 556.896 266 556.867 260 C 556.840 254.431, 555.852 252.301, 554.662 255.250 C 554.259 256.250, 554.142 256.250, 554.079 255.250 C 554.036 254.563, 553.550 254, 553 254 C 552.450 254, 552.112 254.563, 552.250 255.250 M 720.507 254.989 C 720.157 255.555, 720.558 255.723, 721.448 255.382 C 723.180 254.717, 723.497 254, 722.059 254 C 721.541 254, 720.843 254.445, 720.507 254.989 M 650 257.059 C 650 257.641, 650.450 257.840, 651 257.500 C 651.550 257.160, 652 256.684, 652 256.441 C 652 256.198, 651.550 256, 651 256 C 650.450 256, 650 256.477, 650 257.059 M 148 260.500 C 149.375 261.286, 150.950 261.929, 151.500 261.929 C 152.050 261.929, 151.375 261.286, 150 260.500 C 148.625 259.714, 147.050 259.071, 146.500 259.071 C 145.950 259.071, 146.625 259.714, 148 260.500 M 666.603 259.833 C 666.320 260.292, 666.723 260.667, 667.500 260.667 C 668.277 260.667, 668.680 260.292, 668.397 259.833 C 668.114 259.375, 667.710 259, 667.500 259 C 667.290 259, 666.886 259.375, 666.603 259.833 M 693.564 260.707 C 693.022 262.132, 693.136 262.247, 694.124 261.267 C 694.808 260.588, 695.115 259.781, 694.807 259.474 C 694.499 259.166, 693.940 259.721, 693.564 260.707 M 132 260.383 C 132 260.594, 132.901 261.002, 134.001 261.290 C 135.102 261.578, 135.751 261.405, 135.442 260.907 C 134.904 260.036, 132 259.594, 132 260.383 M 128.269 262.693 C 129.242 262.947, 130.592 262.930, 131.269 262.656 C 131.946 262.382, 131.150 262.175, 129.500 262.195 C 127.850 262.215, 127.296 262.439, 128.269 262.693 M 594.813 262.683 C 595.534 262.972, 596.397 262.936, 596.729 262.604 C 597.061 262.272, 596.471 262.036, 595.417 262.079 C 594.252 262.127, 594.015 262.364, 594.813 262.683 M 722 263.059 C 722 263.641, 722.450 263.840, 723 263.500 C 723.550 263.160, 724 262.684, 724 262.441 C 724 262.198, 723.550 262, 723 262 C 722.450 262, 722 262.477, 722 263.059 M 144 268 C 143.099 268.582, 142.975 268.975, 143.691 268.985 C 144.346 268.993, 145.160 268.550, 145.500 268 C 146.267 266.758, 145.921 266.758, 144 268 M 165 268.430 C 165 268.705, 165.900 269.411, 167 270 C 168.100 270.589, 169 270.845, 169 270.570 C 169 270.295, 168.100 269.589, 167 269 C 165.900 268.411, 165 268.155, 165 268.430 M 619.559 269.532 C 617.986 270.721, 617.918 271, 619.202 271 C 620.073 271, 621.045 270.325, 621.362 269.500 C 622.059 267.683, 622.002 267.684, 619.559 269.532 M 669 268.393 C 669 268.609, 669.698 269.054, 670.552 269.382 C 671.442 269.723, 671.843 269.555, 671.493 268.989 C 670.906 268.038, 669 267.583, 669 268.393 M 124.813 270.683 C 125.534 270.972, 126.397 270.936, 126.729 270.604 C 127.061 270.272, 126.471 270.036, 125.417 270.079 C 124.252 270.127, 124.015 270.364, 124.813 270.683 M 142.813 270.683 C 143.534 270.972, 144.397 270.936, 144.729 270.604 C 145.061 270.272, 144.471 270.036, 143.417 270.079 C 142.252 270.127, 142.015 270.364, 142.813 270.683 M 117.445 272.911 C 118.065 273.915, 120.546 273.787, 121.638 272.696 C 122.020 272.313, 121.107 272, 119.608 272 C 118.109 272, 117.135 272.410, 117.445 272.911 M 124.269 275.693 C 125.242 275.947, 126.592 275.930, 127.269 275.656 C 127.946 275.382, 127.150 275.175, 125.500 275.195 C 123.850 275.215, 123.296 275.439, 124.269 275.693 M 652.500 276 C 652.840 276.550, 653.879 276.993, 654.809 276.985 C 656.266 276.971, 656.293 276.835, 655 276 C 653.042 274.734, 651.718 274.734, 652.500 276 M 143.861 278.107 C 142.936 278.693, 143.540 278.974, 145.750 278.985 C 147.537 278.993, 149 278.827, 149 278.617 C 149 277.707, 145.102 277.321, 143.861 278.107 M 650 278 C 650 278.550, 650.477 279, 651.059 279 C 651.641 279, 651.840 278.550, 651.500 278 C 651.160 277.450, 650.684 277, 650.441 277 C 650.198 277, 650 277.450, 650 278 M 681 280.430 C 681 280.705, 681.900 281.411, 683 282 C 684.100 282.589, 685 282.845, 685 282.570 C 685 282.295, 684.100 281.589, 683 281 C 681.900 280.411, 681 280.155, 681 280.430 M 581 282 C 581 282.550, 581.450 283, 582 283 C 582.550 283, 583 282.550, 583 282 C 583 281.450, 582.550 281, 582 281 C 581.450 281, 581 281.450, 581 282 M 662.459 282.067 C 662.096 282.653, 662.014 283.348, 662.276 283.610 C 662.538 283.872, 663.019 283.392, 663.345 282.543 C 664.021 280.781, 663.445 280.471, 662.459 282.067 M 123.269 282.693 C 124.242 282.947, 125.592 282.930, 126.269 282.656 C 126.946 282.382, 126.150 282.175, 124.500 282.195 C 122.850 282.215, 122.296 282.439, 123.269 282.693 M 141.813 286.683 C 142.534 286.972, 143.397 286.936, 143.729 286.604 C 144.061 286.272, 143.471 286.036, 142.417 286.079 C 141.252 286.127, 141.015 286.364, 141.813 286.683 M 152.250 288.689 C 153.213 288.941, 154.787 288.941, 155.750 288.689 C 156.713 288.438, 155.925 288.232, 154 288.232 C 152.075 288.232, 151.287 288.438, 152.250 288.689 M 136 292.059 C 136 292.641, 136.450 292.840, 137 292.500 C 137.550 292.160, 138 291.684, 138 291.441 C 138 291.198, 137.550 291, 137 291 C 136.450 291, 136 291.477, 136 292.059 M 139.550 292.866 C 140.072 293.343, 142.750 293.403, 145.500 293 L 150.500 292.267 144.550 292.134 C 141.140 292.057, 139.006 292.370, 139.550 292.866 M 202 292.378 C 202 292.585, 202.787 293.373, 203.750 294.128 C 205.336 295.371, 205.371 295.336, 204.128 293.750 C 202.821 292.084, 202 291.555, 202 292.378 M 650.813 294.683 C 651.534 294.972, 652.397 294.936, 652.729 294.604 C 653.061 294.272, 652.471 294.036, 651.417 294.079 C 650.252 294.127, 650.015 294.364, 650.813 294.683 M 694 295.059 C 694 295.641, 694.450 295.840, 695 295.500 C 695.550 295.160, 696 294.684, 696 294.441 C 696 294.198, 695.550 294, 695 294 C 694.450 294, 694 294.477, 694 295.059 M 208.500 298 C 209.495 299.100, 210.535 300, 210.810 300 C 211.085 300, 210.495 299.100, 209.500 298 C 208.505 296.900, 207.465 296, 207.190 296 C 206.915 296, 207.505 296.900, 208.500 298 M 646.651 299.468 C 646.341 300.275, 646.424 301.144, 646.836 301.399 C 647.248 301.653, 647.650 300.993, 647.730 299.931 C 647.903 297.634, 647.432 297.432, 646.651 299.468 M 213 301.313 C 213 301.485, 214.463 302.948, 216.250 304.563 L 219.500 307.500 216.563 304.250 C 213.825 301.221, 213 300.540, 213 301.313 M 204.250 304.689 C 205.213 304.941, 206 305.516, 206 305.966 C 206 306.417, 206.675 307.045, 207.500 307.362 C 209.423 308.100, 209.401 307.544, 207.429 305.571 C 206.564 304.707, 205.102 304.052, 204.179 304.116 C 202.684 304.219, 202.692 304.282, 204.250 304.689 M 590.564 307.707 C 590.022 309.132, 590.136 309.247, 591.124 308.267 C 591.808 307.588, 592.115 306.781, 591.807 306.474 C 591.499 306.166, 590.940 306.721, 590.564 307.707 M 634.601 307.836 C 634.347 308.248, 635.007 308.650, 636.069 308.730 C 638.366 308.903, 638.568 308.432, 636.532 307.651 C 635.725 307.341, 634.856 307.424, 634.601 307.836 M 192.768 309.725 C 194.565 309.947, 197.265 309.943, 198.768 309.715 C 200.271 309.486, 198.800 309.304, 195.500 309.310 C 192.200 309.315, 190.971 309.502, 192.768 309.725 M 4 330 L 4 350 16.750 350.008 C 64.683 350.036, 128.091 369.728, 170.500 397.756 C 190.391 410.901, 211.012 429.636, 224.866 447.150 C 233.784 458.423, 247 478.399, 247 480.606 C 247 481.671, 248.288 481.080, 251.250 478.656 C 253.588 476.743, 257.750 474.025, 260.500 472.615 C 263.416 471.120, 264.701 470.041, 263.583 470.026 C 262.529 470.012, 261.926 469.741, 262.242 469.425 C 262.559 469.108, 261.284 465.483, 259.409 461.369 C 255.709 453.251, 255.501 452.574, 256.989 453.493 C 257.555 453.843, 257.724 453.443, 257.384 452.558 C 257.057 451.707, 256.311 451.308, 255.725 451.670 C 255.059 452.082, 254.897 451.710, 255.294 450.676 C 255.643 449.767, 255.485 449.131, 254.944 449.262 C 254.403 449.393, 252.128 446.125, 249.889 442 C 247.582 437.751, 246.753 435.584, 247.976 437 C 249.546 438.819, 249.864 438.955, 249.140 437.500 C 247.905 435.015, 244.610 430.942, 245.500 433 C 246.390 435.058, 243.095 430.985, 241.860 428.500 C 241.138 427.047, 241.455 427.184, 243.020 429 C 246.006 432.467, 244.512 429.700, 239.239 422 C 236.791 418.425, 232.908 413.700, 230.610 411.500 C 228.312 409.300, 227.138 407.950, 228.002 408.500 C 228.866 409.050, 227.054 407.025, 223.975 404 C 220.896 400.975, 219.979 399.850, 221.938 401.500 L 225.500 404.500 222.054 400.750 C 220.158 398.688, 218.299 397, 217.921 397 C 217.085 397, 209 389.002, 209 388.174 C 209 387.849, 211.137 389.590, 213.750 392.042 L 218.500 396.500 214.084 391.793 C 211.656 389.205, 209.300 387.315, 208.849 387.593 C 208.398 387.872, 206.314 386.390, 204.217 384.300 C 201.686 381.778, 201.429 381.340, 203.452 382.998 C 206.326 385.353, 206.303 385.282, 203.054 381.748 C 199.696 378.096, 198.251 376.979, 199.500 379 C 199.840 379.550, 199.697 380, 199.181 380 C 197.979 380, 195.861 377.473, 196.515 376.819 C 196.788 376.545, 196.005 375.461, 194.773 374.411 C 192.961 372.864, 192.793 372.833, 193.890 374.250 C 196.076 377.073, 193.577 376.256, 190.924 373.280 C 189.117 371.253, 189.009 370.930, 190.500 372.013 C 192.480 373.451, 192.481 373.443, 190.595 371.233 C 188.581 368.872, 187.405 368.228, 188.580 370.130 C 189.004 370.815, 188.732 371.077, 187.889 370.796 C 187.125 370.542, 186.500 369.831, 186.500 369.217 C 186.500 368.603, 185.847 367.515, 185.048 366.800 C 183.795 365.678, 183.778 365.739, 184.921 367.250 C 185.732 368.323, 185.833 369, 185.181 369 C 184.128 369, 182.545 367.119, 182.515 365.833 C 182.507 365.467, 182.090 364.792, 181.590 364.333 C 181.061 363.849, 180.981 364.024, 181.399 364.750 C 181.794 365.438, 181.863 366, 181.550 366 C 180.464 366, 172.500 359.850, 172.500 359.011 C 172.500 358.547, 172.090 357.792, 171.590 357.333 C 171.061 356.849, 170.981 357.024, 171.399 357.750 C 172.575 359.795, 171.173 359.247, 162.119 354.122 C 144.583 344.199, 124.995 335.065, 122.750 335.766 C 122.337 335.895, 122 335.550, 122 335 C 122 334.450, 121.190 334, 120.200 334 C 119.210 334, 117.973 333.614, 117.450 333.141 C 114.329 330.321, 78.679 319.721, 62.630 316.842 C 57.596 315.939, 56.260 315.396, 57.630 314.809 C 58.727 314.339, 57.227 314.198, 54 314.468 C 49.846 314.816, 49.112 314.699, 51 313.990 C 52.855 313.294, 51.952 313.170, 47.500 313.509 C 43.911 313.783, 42.282 313.639, 43.446 313.151 C 45.753 312.185, 23.645 309.982, 11.750 309.993 L 4 310 4 330 M 546.250 310.747 L 558 311.063 557.792 320.782 L 557.585 330.500 557.255 321.250 L 556.925 312 546.712 312.022 C 535.800 312.045, 518.117 314.101, 514 315.826 C 512.625 316.402, 512.063 316.902, 512.750 316.937 C 514.700 317.035, 514.217 319.999, 512.250 320.008 C 511.288 320.012, 509.997 321.100, 509.383 322.425 C 508.434 324.473, 508.509 324.770, 509.883 324.403 C 510.772 324.165, 510.192 324.591, 508.593 325.349 C 506.633 326.279, 506.144 326.896, 507.093 327.241 C 507.974 327.562, 507.472 328.027, 505.750 328.485 C 502.019 329.478, 502.247 331.338, 506.031 330.782 C 507.699 330.537, 508.711 330.682, 508.281 331.103 C 507.624 331.746, 502.279 332.624, 497.191 332.923 C 496.471 332.965, 496.136 333.412, 496.447 333.915 C 496.758 334.418, 496.447 335.057, 495.756 335.336 C 495.065 335.614, 495.539 335.878, 496.809 335.921 C 498.109 335.965, 498.848 335.563, 498.500 335 C 498.160 334.450, 498.359 334, 498.941 334 C 499.523 334, 500 334.480, 500 335.067 C 500 335.664, 500.845 335.867, 501.916 335.527 C 502.970 335.192, 504.086 335.330, 504.397 335.833 C 504.708 336.336, 502.739 337.042, 500.022 337.403 C 494.031 338.197, 492.601 339.635, 498.107 339.327 C 500.498 339.194, 501.812 339.496, 501.442 340.094 C 501.106 340.637, 500.007 340.820, 499 340.500 C 497.993 340.180, 496.890 340.370, 496.549 340.921 C 496.159 341.552, 495.055 341.591, 493.567 341.026 C 491.301 340.164, 490 340.535, 490 342.042 C 490 342.431, 491.414 343.033, 493.142 343.378 L 496.285 344.007 493.591 346.503 C 490.748 349.138, 490.894 349.662, 494.005 347.997 C 495.081 347.421, 496.114 347.375, 496.431 347.888 C 496.998 348.806, 494.382 349.439, 485.250 350.594 C 481.625 351.052, 480 350.908, 480 350.129 C 480 349.508, 479.564 349, 479.031 349 C 477.447 349, 478.994 351.765, 480.849 352.250 C 481.791 352.496, 484.884 352.400, 487.724 352.035 C 490.564 351.671, 492.680 351.708, 492.427 352.118 C 492.173 352.528, 493.211 353.007, 494.733 353.182 C 496.404 353.374, 491.815 354.849, 483.154 356.904 C 471.074 359.770, 468.650 360.086, 467.810 358.904 C 467.004 357.771, 466.912 357.818, 467.335 359.147 C 467.689 360.261, 467.153 360.950, 465.679 361.276 C 456.383 363.334, 425.999 376.356, 413.321 383.717 C 409.020 386.215, 402.667 389.870, 399.205 391.840 C 391.798 396.055, 372 410.798, 372 412.100 C 372 412.595, 371.582 413, 371.071 413 C 370.561 413, 366.577 416.488, 362.218 420.750 C 357.860 425.012, 353.236 429.288, 351.943 430.250 C 350.651 431.212, 350.003 432, 350.505 432 C 351.006 432, 349.410 434.124, 346.958 436.721 C 344.506 439.317, 348.634 435.527, 356.132 428.299 C 392.575 393.161, 436.634 369.466, 485.764 358.580 C 512.459 352.666, 532.560 350.035, 551.250 350.010 L 559 350 559 330 L 559 310 546.750 310.215 L 534.500 310.430 546.250 310.747 M 201 312 C 201 312.550, 203.052 313, 205.559 313 C 208.344 313, 209.878 312.611, 209.500 312 C 209.160 311.450, 207.109 311, 204.941 311 C 202.773 311, 201 311.450, 201 312 M 527.750 311.706 C 528.987 311.944, 531.013 311.944, 532.250 311.706 C 533.487 311.467, 532.475 311.272, 530 311.272 C 527.525 311.272, 526.513 311.467, 527.750 311.706 M 518.250 312.689 C 519.212 312.941, 520.788 312.941, 521.750 312.689 C 522.712 312.438, 521.925 312.232, 520 312.232 C 518.075 312.232, 517.288 312.438, 518.250 312.689 M 510.269 313.693 C 511.242 313.947, 512.592 313.930, 513.269 313.656 C 513.946 313.382, 513.150 313.175, 511.500 313.195 C 509.850 313.215, 509.296 313.439, 510.269 313.693 M 503.269 314.693 C 504.242 314.947, 505.592 314.930, 506.269 314.656 C 506.946 314.382, 506.150 314.175, 504.500 314.195 C 502.850 314.215, 502.296 314.439, 503.269 314.693 M 626.500 315 C 626.840 315.550, 627.568 316, 628.118 316 C 628.668 316, 628.840 315.550, 628.500 315 C 628.160 314.450, 627.432 314, 626.882 314 C 626.332 314, 626.160 314.450, 626.500 315 M 61.750 315.662 C 62.438 315.940, 63.563 315.940, 64.250 315.662 C 64.938 315.385, 64.375 315.158, 63 315.158 C 61.625 315.158, 61.063 315.385, 61.750 315.662 M 183.733 316.124 C 184.412 316.808, 185.219 317.115, 185.526 316.807 C 185.834 316.499, 185.279 315.940, 184.293 315.564 C 182.868 315.022, 182.753 315.136, 183.733 316.124 M 497.813 315.683 C 498.534 315.972, 499.397 315.936, 499.729 315.604 C 500.061 315.272, 499.471 315.036, 498.417 315.079 C 497.252 315.127, 497.015 315.364, 497.813 315.683 M 67.813 316.683 C 68.534 316.972, 69.397 316.936, 69.729 316.604 C 70.061 316.272, 69.471 316.036, 68.417 316.079 C 67.252 316.127, 67.015 316.364, 67.813 316.683 M 199.500 317.093 C 196.750 317.419, 194.950 317.798, 195.500 317.936 C 197.585 318.457, 205.563 317.783, 207 316.964 C 208.653 316.023, 208.500 316.026, 199.500 317.093 M 491.813 316.683 C 492.534 316.972, 493.397 316.936, 493.729 316.604 C 494.061 316.272, 493.471 316.036, 492.417 316.079 C 491.252 316.127, 491.015 316.364, 491.813 316.683 M 72.813 317.683 C 73.534 317.972, 74.397 317.936, 74.729 317.604 C 75.061 317.272, 74.471 317.036, 73.417 317.079 C 72.252 317.127, 72.015 317.364, 72.813 317.683 M 486.813 317.683 C 487.534 317.972, 488.397 317.936, 488.729 317.604 C 489.061 317.272, 488.471 317.036, 487.417 317.079 C 486.252 317.127, 486.015 317.364, 486.813 317.683 M 702 318 C 702 318.550, 702.477 319, 703.059 319 C 703.641 319, 703.840 318.550, 703.500 318 C 703.160 317.450, 702.684 317, 702.441 317 C 702.198 317, 702 317.450, 702 318 M 77.813 318.683 C 78.534 318.972, 79.397 318.936, 79.729 318.604 C 80.061 318.272, 79.471 318.036, 78.417 318.079 C 77.252 318.127, 77.015 318.364, 77.813 318.683 M 233.500 322 C 235.648 324.200, 237.631 326, 237.906 326 C 238.181 326, 236.648 324.200, 234.500 322 C 232.352 319.800, 230.369 318, 230.094 318 C 229.819 318, 231.352 319.800, 233.500 322 M 81.813 319.683 C 82.534 319.972, 83.397 319.936, 83.729 319.604 C 84.061 319.272, 83.471 319.036, 82.417 319.079 C 81.252 319.127, 81.015 319.364, 81.813 319.683 M 478.813 319.683 C 479.534 319.972, 480.397 319.936, 480.729 319.604 C 481.061 319.272, 480.471 319.036, 479.417 319.079 C 478.252 319.127, 478.015 319.364, 478.813 319.683 M 205.813 320.683 C 206.534 320.972, 207.397 320.936, 207.729 320.604 C 208.061 320.272, 207.471 320.036, 206.417 320.079 C 205.252 320.127, 205.015 320.364, 205.813 320.683 M 474.813 320.683 C 475.534 320.972, 476.397 320.936, 476.729 320.604 C 477.061 320.272, 476.471 320.036, 475.417 320.079 C 474.252 320.127, 474.015 320.364, 474.813 320.683 M 92.813 322.683 C 93.534 322.972, 94.397 322.936, 94.729 322.604 C 95.061 322.272, 94.471 322.036, 93.417 322.079 C 92.252 322.127, 92.015 322.364, 92.813 322.683 M 512.750 322.662 C 513.438 322.940, 514.563 322.940, 515.250 322.662 C 515.938 322.385, 515.375 322.158, 514 322.158 C 512.625 322.158, 512.063 322.385, 512.750 322.662 M 697.507 322.989 C 697.157 323.555, 697.558 323.723, 698.448 323.382 C 700.180 322.717, 700.497 322, 699.059 322 C 698.541 322, 697.843 322.445, 697.507 322.989 M 191 324.350 C 191 324.581, 192.125 325.507, 193.500 326.408 C 195.827 327.932, 196 327.929, 196 326.356 C 196 325.427, 195.716 324.951, 195.369 325.298 C 195.021 325.645, 193.896 325.480, 192.869 324.930 C 191.841 324.380, 191 324.119, 191 324.350 M 110 328 C 110.825 328.533, 111.950 328.969, 112.500 328.969 C 113.050 328.969, 112.825 328.533, 112 328 C 111.175 327.467, 110.050 327.031, 109.500 327.031 C 108.950 327.031, 109.175 327.467, 110 328 M 197 328.378 C 197 328.585, 197.787 329.373, 198.750 330.128 C 200.336 331.371, 200.371 331.336, 199.128 329.750 C 197.821 328.084, 197 327.555, 197 328.378 M 202.500 333 C 203.495 334.100, 204.535 335, 204.810 335 C 205.085 335, 204.495 334.100, 203.500 333 C 202.505 331.900, 201.465 331, 201.190 331 C 200.915 331, 201.505 331.900, 202.500 333 M 557.286 336.500 C 557.294 339.250, 557.488 340.256, 557.718 338.736 C 557.947 337.216, 557.941 334.966, 557.704 333.736 C 557.467 332.506, 557.279 333.750, 557.286 336.500 M 434 334 C 433.175 334.533, 432.950 334.969, 433.500 334.969 C 434.050 334.969, 435.175 334.533, 436 334 C 436.825 333.467, 437.050 333.031, 436.500 333.031 C 435.950 333.031, 434.825 333.467, 434 334 M 474.250 334.716 C 475.762 334.945, 478.238 334.945, 479.750 334.716 C 481.262 334.487, 480.025 334.300, 477 334.300 C 473.975 334.300, 472.738 334.487, 474.250 334.716 M 135 338 C 135.825 338.533, 136.950 338.969, 137.500 338.969 C 138.050 338.969, 137.825 338.533, 137 338 C 136.175 337.467, 135.050 337.031, 134.500 337.031 C 133.950 337.031, 134.175 337.467, 135 338 M 425 338 C 424.175 338.533, 423.950 338.969, 424.500 338.969 C 425.050 338.969, 426.175 338.533, 427 338 C 427.825 337.467, 428.050 337.031, 427.500 337.031 C 426.950 337.031, 425.825 337.467, 425 338 M 465.762 337.707 C 467.006 337.946, 468.806 337.937, 469.762 337.687 C 470.718 337.437, 469.700 337.241, 467.500 337.252 C 465.300 337.263, 464.518 337.468, 465.762 337.707 M 472 337.393 C 472 337.609, 472.698 338.054, 473.552 338.382 C 474.442 338.723, 474.843 338.555, 474.493 337.989 C 473.906 337.038, 472 336.583, 472 337.393 M 478 337.383 C 478 338.293, 481.898 338.679, 483.139 337.893 C 484.064 337.307, 483.460 337.026, 481.250 337.015 C 479.462 337.007, 478 337.173, 478 337.383 M 118.366 339.674 C 118.737 340.337, 118.256 341.049, 117.262 341.308 C 116.062 341.621, 116.298 341.800, 118 341.869 C 119.375 341.924, 121.175 341.484, 122 340.890 C 123.297 339.958, 123.279 339.881, 121.872 340.328 C 120.976 340.611, 119.673 340.316, 118.975 339.672 C 118.005 338.776, 117.862 338.776, 118.366 339.674 M 139 339.471 C 139 339.746, 141.700 341.334, 145 343 C 148.300 344.666, 151 345.804, 151 345.529 C 151 345.254, 148.300 343.666, 145 342 C 141.700 340.334, 139 339.196, 139 339.471 M 419 341 C 417.075 342.054, 415.860 342.935, 416.300 342.958 C 417.359 343.014, 423 340.081, 423 339.474 C 423 338.820, 422.941 338.842, 419 341 M 456.301 340.634 C 457.339 341.672, 462 341.899, 462 340.912 C 462 340.410, 460.575 340, 458.833 340 C 457.092 340, 455.952 340.285, 456.301 340.634 M 557.158 344 C 557.158 345.375, 557.385 345.938, 557.662 345.250 C 557.940 344.563, 557.940 343.438, 557.662 342.750 C 557.385 342.063, 557.158 342.625, 557.158 344 M 410.750 345.068 C 408.688 346.157, 407 347.271, 407 347.544 C 407 347.817, 408.800 347.122, 411 346 C 413.200 344.878, 415 343.743, 415 343.480 C 415 342.826, 414.993 342.828, 410.750 345.068 M 465 344.103 C 462.798 344.749, 462.896 344.820, 465.826 344.699 C 467.655 344.624, 469.323 344.286, 469.532 343.948 C 470.036 343.132, 468.085 343.199, 465 344.103 M 130.750 345.662 C 131.438 345.940, 132.563 345.940, 133.250 345.662 C 133.938 345.385, 133.375 345.158, 132 345.158 C 130.625 345.158, 130.063 345.385, 130.750 345.662 M 139.211 346.395 C 139.920 347.162, 140.886 347.556, 141.357 347.270 C 141.828 346.984, 141.603 346.363, 140.857 345.890 C 138.747 344.553, 137.782 344.849, 139.211 346.395 M 476.331 346.273 C 476.041 346.743, 477.535 346.814, 479.652 346.431 C 484.804 345.499, 485.312 344.849, 480.642 345.163 C 478.562 345.304, 476.622 345.803, 476.331 346.273 M 448.199 347.532 C 449.083 348.416, 464.317 348.735, 467 347.926 C 468.506 347.472, 465.161 347.138, 458.583 347.086 C 452.579 347.039, 447.906 347.240, 448.199 347.532 M 158 349.430 C 158 349.705, 158.900 350.411, 160 351 C 161.100 351.589, 162 351.845, 162 351.570 C 162 351.295, 161.100 350.589, 160 350 C 158.900 349.411, 158 349.155, 158 349.430 M 446 350.139 C 446 350.612, 447.125 351, 448.500 351 C 449.875 351, 451 350.827, 451 350.617 C 451 350.406, 449.875 350.018, 448.500 349.755 C 447.125 349.492, 446 349.665, 446 350.139 M 464.500 350 C 462.870 350.701, 462.812 350.872, 464.191 350.930 C 465.121 350.968, 466.160 350.550, 466.500 350 C 467.211 348.850, 467.176 348.850, 464.500 350 M 453 351 C 453.825 351.533, 455.400 351.969, 456.500 351.969 C 458.156 351.969, 458.242 351.803, 457 351 C 456.175 350.467, 454.600 350.031, 453.500 350.031 C 451.844 350.031, 451.758 350.197, 453 351 M 398.441 352.555 C 396.577 354.049, 396.589 354.067, 398.750 353.020 C 399.988 352.420, 401 351.720, 401 351.465 C 401 350.700, 400.481 350.921, 398.441 352.555 M 443 352.971 C 443 354.136, 446.832 354.971, 452.250 354.986 C 454.863 354.994, 457 355.378, 457 355.839 C 457 356.300, 458.688 356.601, 460.750 356.506 C 462.813 356.412, 465.550 356.712, 466.834 357.174 C 468.118 357.636, 469.686 357.694, 470.320 357.303 C 470.953 356.911, 472.940 356.717, 474.736 356.872 C 476.741 357.045, 478 356.697, 478 355.970 C 478 355.311, 477.312 355.050, 476.448 355.382 C 475.558 355.723, 475.157 355.555, 475.507 354.989 C 475.843 354.445, 475.390 354, 474.500 354 C 473.610 354, 473.160 354.450, 473.500 355 C 474.266 356.239, 472.743 356.321, 471.450 355.111 C 470.012 353.766, 459.282 352.207, 457.800 353.129 C 457.085 353.573, 454.925 353.728, 453 353.474 C 451.075 353.220, 448.038 352.823, 446.250 352.593 C 444.462 352.363, 443 352.533, 443 352.971 M 460.813 354.683 C 461.534 354.972, 462.397 354.936, 462.729 354.604 C 463.061 354.272, 462.471 354.036, 461.417 354.079 C 460.252 354.127, 460.015 354.364, 460.813 354.683 M 464 354.393 C 464 354.609, 464.698 355.054, 465.552 355.382 C 466.442 355.723, 466.843 355.555, 466.493 354.989 C 465.906 354.038, 464 353.583, 464 354.393 M 481.813 354.683 C 482.534 354.972, 483.397 354.936, 483.729 354.604 C 484.061 354.272, 483.471 354.036, 482.417 354.079 C 481.252 354.127, 481.015 354.364, 481.813 354.683 M 444.607 357.582 C 443.760 359.788, 443.845 360.214, 444.992 359.505 C 445.538 359.168, 446.775 359.388, 447.742 359.994 C 449.287 360.962, 449.238 361.024, 447.334 360.507 C 446.143 360.183, 444.887 360.374, 444.543 360.930 C 442.956 363.498, 453.743 363.472, 462.500 360.887 L 466.500 359.706 463.500 358.848 C 461.850 358.377, 458.076 358.189, 455.113 358.430 C 451.289 358.742, 449.310 358.453, 448.292 357.435 C 446.434 355.577, 445.360 355.620, 444.607 357.582 M 174 359.364 C 174 359.639, 175.350 360.825, 177 362 C 178.650 363.175, 180 363.911, 180 363.636 C 180 363.361, 178.650 362.175, 177 361 C 175.350 359.825, 174 359.089, 174 359.364 M 456.813 360.683 C 457.534 360.972, 458.397 360.936, 458.729 360.604 C 459.061 360.272, 458.471 360.036, 457.417 360.079 C 456.252 360.127, 456.015 360.364, 456.813 360.683 M 382.872 362.750 C 381.629 364.336, 381.664 364.371, 383.250 363.128 C 384.212 362.373, 385 361.585, 385 361.378 C 385 360.555, 384.179 361.084, 382.872 362.750 M 451.813 361.683 C 452.534 361.972, 453.397 361.936, 453.729 361.604 C 454.061 361.272, 453.471 361.036, 452.417 361.079 C 451.252 361.127, 451.015 361.364, 451.813 361.683 M 375.872 367.750 C 374.629 369.336, 374.664 369.371, 376.250 368.128 C 377.916 366.821, 378.445 366, 377.622 366 C 377.415 366, 376.627 366.788, 375.872 367.750 M 371.872 370.750 C 370.629 372.336, 370.664 372.371, 372.250 371.128 C 373.212 370.373, 374 369.585, 374 369.378 C 374 368.555, 373.179 369.084, 371.872 370.750 M 427.750 371.662 C 428.438 371.940, 429.563 371.940, 430.250 371.662 C 430.938 371.385, 430.375 371.158, 429 371.158 C 427.625 371.158, 427.063 371.385, 427.750 371.662 M 357 383.368 C 335.064 403.090, 317.234 426.974, 304.102 454.227 C 297.500 467.926, 296.828 470.100, 299 470.722 C 300.028 471.017, 300.129 470.888, 299.323 470.312 C 298.475 469.707, 299.817 465.982, 304.125 456.986 C 316.869 430.374, 330.123 411.889, 352.665 389.290 C 361.602 380.330, 368.820 373.007, 368.707 373.015 C 368.593 373.023, 363.325 377.682, 357 383.368 M 651.500 389 C 651.160 389.550, 651.359 390, 651.941 390 C 652.523 390, 653 389.550, 653 389 C 653 388.450, 652.802 388, 652.559 388 C 652.316 388, 651.840 388.450, 651.500 389 M 231.500 414 C 232.495 415.100, 233.535 416, 233.810 416 C 234.085 416, 233.495 415.100, 232.500 414 C 231.505 412.900, 230.465 412, 230.190 412 C 229.915 412, 230.505 412.900, 231.500 414 M 284.624 440.539 C 283.659 443.053, 283.943 443.702, 285.122 441.675 C 285.706 440.671, 285.973 439.639, 285.715 439.382 C 285.458 439.124, 284.966 439.645, 284.624 440.539 M 252 444 C 252.589 445.100, 253.295 446, 253.570 446 C 253.845 446, 253.589 445.100, 253 444 C 252.411 442.900, 251.705 442, 251.430 442 C 251.155 442, 251.411 442.900, 252 444 M 339.908 444.750 C 335.625 449.527, 333.674 452, 334.188 452 C 334.463 452, 336.584 449.750, 338.903 447 C 343.362 441.712, 344.086 440.090, 339.908 444.750 M 331 456 C 329.825 457.650, 329.089 459, 329.364 459 C 329.639 459, 330.825 457.650, 332 456 C 333.175 454.350, 333.911 453, 333.636 453 C 333.361 453, 332.175 454.350, 331 456 M 326.872 461.750 C 325.629 463.336, 325.664 463.371, 327.250 462.128 C 328.916 460.821, 329.445 460, 328.622 460 C 328.415 460, 327.627 460.788, 326.872 461.750 M 324 466 C 323.411 467.100, 323.155 468, 323.430 468 C 323.705 468, 324.411 467.100, 325 466 C 325.589 464.900, 325.845 464, 325.570 464 C 325.295 464, 324.589 464.900, 324 466 M 263.031 465.500 C 263.031 466.050, 263.467 467.175, 264 468 C 264.533 468.825, 264.969 469.050, 264.969 468.500 C 264.969 467.950, 264.533 466.825, 264 466 C 263.467 465.175, 263.031 464.950, 263.031 465.500 M 302.500 472.203 C 303.600 472.832, 306.843 475.068, 309.707 477.173 C 315.985 481.787, 315.582 481.757, 317.523 477.750 C 318.913 474.879, 318.916 474.727, 317.548 476.441 C 316.697 477.509, 316 478.743, 316 479.184 C 316 479.626, 313.047 477.965, 309.437 475.493 C 305.827 473.022, 302.340 471.014, 301.687 471.030 C 301.034 471.047, 301.400 471.575, 302.500 472.203 M 278.750 486.706 C 279.988 486.944, 282.012 486.944, 283.250 486.706 C 284.488 486.467, 283.475 486.272, 281 486.272 C 278.525 486.272, 277.512 486.467, 278.750 486.706 M 273.813 487.683 C 274.534 487.972, 275.397 487.936, 275.729 487.604 C 276.061 487.272, 275.471 487.036, 274.417 487.079 C 273.252 487.127, 273.015 487.364, 273.813 487.683 M 266.944 490.523 C 250.554 502.529, 251.960 527.351, 269.500 535.623 C 278.386 539.813, 291.588 538.245, 298.362 532.195 C 300.644 530.157, 305.312 522.979, 304.733 522.400 C 304.507 522.173, 303.516 523.484, 302.531 525.313 C 301.546 527.141, 299.960 529.057, 299.006 529.569 C 298.053 530.081, 295.384 531.815, 293.076 533.423 C 288.229 536.799, 280.885 537.854, 274.396 536.107 C 253.741 530.545, 250.650 501.333, 269.500 489.837 C 271.150 488.831, 272.025 488.006, 271.444 488.004 C 270.864 488.002, 268.839 489.135, 266.944 490.523 M 296 491.313 C 296 491.485, 297.462 492.948, 299.250 494.563 L 302.500 497.500 299.563 494.250 C 296.825 491.221, 296 490.540, 296 491.313 M 306.310 512.500 C 306.315 515.800, 306.502 517.029, 306.725 515.232 C 306.947 513.435, 306.943 510.735, 306.715 509.232 C 306.486 507.729, 306.304 509.200, 306.310 512.500" stroke="none" fill="#c4922a" fill-rule="evenodd"/>
</svg>