<svg xmlns="http://www.w3.org/2000/svg" width="554" height="530" viewBox="0 0 554 530" version="1.1">
	<path d="M 227.258 17.660 C 226.382 18.014, 226.303 18.697, 226.991 19.983 C 227.807 21.507, 227.643 21.719, 225.983 21.285 C 224.474 20.891, 224 21.265, 224 22.852 C 224 24.289, 223.537 24.759, 222.508 24.365 C 221.661 24.040, 220.754 24.477, 220.409 25.377 C 219.789 26.992, 216.369 27.050, 212.707 25.508 C 209.706 24.244, 209.651 25.724, 212.646 27.159 C 216.026 28.779, 215.976 30.386, 212.531 30.816 C 210.193 31.109, 209.493 32.081, 209.938 34.419 C 210.034 34.925, 209.418 34.762, 208.568 34.057 C 207.280 32.987, 206.909 33.083, 206.331 34.637 C 205.569 36.688, 202.182 40, 200.847 40 C 200.381 40, 200 41.098, 200 42.441 C 200 43.784, 199.519 45.179, 198.932 45.542 C 198.344 45.905, 198.094 46.803, 198.376 47.537 C 199.033 49.251, 197.001 49.987, 194.773 48.842 C 193.439 48.156, 193.178 48.301, 193.629 49.477 C 194.168 50.879, 195.355 51.418, 197.250 51.118 C 198.631 50.900, 198.019 53.056, 196.538 53.624 C 195.255 54.116, 195.255 54.460, 196.541 56.422 C 198.196 58.948, 197.627 59.993, 194.583 60.015 C 193.009 60.027, 192.836 60.244, 193.878 60.904 C 194.636 61.384, 194.947 62.277, 194.569 62.888 C 194.169 63.535, 194.583 64, 195.558 64 C 196.807 64, 197.080 64.572, 196.630 66.250 C 196.299 67.487, 196.021 68.838, 196.014 69.250 C 196.006 69.662, 195.339 70, 194.531 70 C 193.602 70, 193.286 70.582, 193.671 71.584 C 194.160 72.859, 194.443 72.908, 195.124 71.834 C 195.589 71.100, 196.011 70.950, 196.061 71.500 C 196.112 72.050, 196.309 73.322, 196.499 74.327 C 196.740 75.599, 196.397 75.983, 195.371 75.589 C 194.560 75.278, 194.147 75.429, 194.454 75.926 C 194.761 76.423, 194.480 77.007, 193.829 77.224 C 193.135 77.455, 192.977 78.154, 193.448 78.916 C 194.004 79.815, 194.457 79.878, 194.925 79.121 C 195.296 78.521, 195.600 79.598, 195.600 81.515 C 195.600 86.383, 197.065 87.523, 200.176 85.076 C 201.857 83.754, 203.076 83.415, 203.839 84.056 C 204.468 84.584, 204.773 84.724, 204.516 84.366 C 204.259 84.008, 206.239 81.187, 208.916 78.097 C 215.751 70.208, 229.144 51.308, 235.304 40.861 C 241.119 30.998, 241.195 30.937, 242.915 34.712 C 245.089 39.485, 254.913 54.117, 264.850 67.385 C 270.157 74.472, 274.404 80.610, 274.287 81.024 C 273.782 82.812, 300.547 109.164, 324.967 130.920 C 399.224 197.079, 425.757 227.799, 449.839 275.500 C 455.277 286.271, 464.435 308.898, 463.668 309.665 C 463.410 309.923, 462.652 308.475, 461.982 306.447 C 459.072 297.629, 455.012 290.058, 453.504 290.637 C 452.677 290.954, 452 290.689, 452 290.048 C 452 289.407, 452.508 289.196, 453.130 289.580 C 453.778 289.981, 454.087 289.761, 453.855 289.064 C 453.632 288.396, 453.062 287.922, 452.587 288.010 C 452.112 288.099, 451.367 287.593, 450.931 286.888 C 450.379 285.995, 449.933 286.417, 449.468 288.273 C 448.871 290.649, 448.633 290.776, 447.292 289.435 C 446.463 288.606, 446.016 287.045, 446.299 285.965 C 446.581 284.885, 446.404 283.750, 445.906 283.442 C 445.408 283.134, 445 284.060, 445 285.500 C 445 287.197, 444.601 287.872, 443.866 287.417 C 443.078 286.930, 442.874 287.691, 443.199 289.902 C 443.756 293.701, 442.766 294.623, 440.531 292.388 C 439.025 290.882, 438.952 290.976, 439.569 293.629 C 439.936 295.208, 437.789 291.775, 434.798 286 C 429.206 275.204, 418.948 257.716, 413.870 250.320 C 410.322 245.152, 410.204 244.113, 413.545 247.455 C 414.945 248.855, 416.452 250, 416.893 250 C 417.334 250, 418.183 251.012, 418.780 252.250 L 419.865 254.500 419.932 252.215 C 419.970 250.958, 419.273 248.820, 418.385 247.465 C 417.393 245.951, 417.200 245, 417.885 245 C 418.498 245, 419.037 244.213, 419.082 243.250 C 419.131 242.190, 419.723 242.781, 420.584 244.750 C 421.366 246.538, 422.679 248, 423.503 248 C 425.401 248, 425.386 247.529, 423.429 245.571 C 422 244.143, 422 244, 423.429 244 C 424.293 244, 425 243.363, 425 242.583 C 425 241.804, 425.563 240.940, 426.250 240.662 C 427.211 240.274, 427.198 240.140, 426.191 240.079 C 425.471 240.036, 425.137 239.587, 425.449 239.082 C 426.092 238.043, 415.213 223.130, 402.627 207.796 C 390.272 192.745, 352.030 155.392, 326.500 133.440 C 313.245 122.043, 289.178 99.938, 282.197 92.750 C 276.465 86.847, 272.639 83.990, 274.500 87 C 274.840 87.550, 274.191 88.056, 273.059 88.125 C 269.754 88.326, 269.209 88.458, 268.417 89.250 C 268.004 89.662, 268.267 90, 269 90 C 269.733 90, 269.996 90.338, 269.583 90.750 C 268.862 91.471, 268.430 91.600, 265.809 91.875 C 265.148 91.944, 265.482 92.674, 266.559 93.514 C 267.626 94.347, 268.050 94.937, 267.500 94.824 C 265.482 94.410, 260 96.191, 260.550 97.081 C 260.863 97.587, 260.304 98.037, 259.309 98.082 C 258.149 98.134, 258.666 98.673, 260.750 99.584 C 263.929 100.975, 265.463 102.775, 262.500 101.638 C 261.675 101.322, 261 101.499, 261 102.031 C 261 105.368, 257.508 101.767, 253.576 94.376 C 247.797 83.513, 242.291 75.951, 240.625 76.590 C 238.061 77.574, 228.598 93.480, 224.405 103.854 C 207.373 145.989, 217.332 183.405, 256.724 225.284 L 266.332 235.500 255.879 225 C 250.130 219.225, 244.050 212.876, 242.369 210.892 L 239.311 207.284 233.655 208.309 C 230.545 208.873, 228 209.695, 228 210.136 C 228 210.577, 228.787 210.642, 229.750 210.281 C 231.212 209.733, 231.297 209.875, 230.268 211.144 C 229.266 212.378, 229.413 213.066, 231.057 214.831 L 233.078 217 230.539 217 C 229.143 217, 228 217.505, 228 218.122 C 228 222.202, 217.153 206.222, 209.928 191.500 C 199.747 170.752, 195.233 143.001, 199.104 124.953 C 200.581 118.062, 199.240 116.802, 195.078 121.173 C 183.767 133.054, 172.901 157.187, 170.411 175.958 C 169.869 180.043, 169.388 180.884, 167.375 181.269 C 165.318 181.662, 165.159 181.508, 166.241 180.176 C 167.303 178.868, 167.227 178.728, 165.750 179.281 C 164.787 179.642, 164 179.501, 164 178.969 C 164 178.436, 164.450 178, 165 178 C 165.550 178, 166 177.561, 166 177.025 C 166 176.416, 165.123 176.383, 163.667 176.937 C 161.905 177.606, 161.333 177.478, 161.333 176.412 C 161.333 175.635, 162.046 174.964, 162.917 174.921 C 163.910 174.872, 164.044 174.657, 163.276 174.346 C 162.602 174.074, 161.040 174.559, 159.803 175.425 C 156.184 177.961, 155.226 177.224, 158.500 174.423 C 160.150 173.011, 160.969 172.120, 160.319 172.444 C 159.670 172.768, 158.888 172.628, 158.582 172.132 C 158.276 171.637, 159.384 170.669, 161.045 169.981 C 165.250 168.240, 163.953 167.530, 159.345 169.051 C 154.467 170.661, 152.311 172.711, 153.864 174.264 C 154.712 175.112, 155 175.096, 155 174.200 C 155 173.540, 156.012 173.036, 157.250 173.079 C 158.704 173.130, 158.969 173.347, 158 173.694 C 157.175 173.989, 155.938 174.939, 155.250 175.806 C 154.498 176.754, 154 176.907, 154 176.191 C 154 175.536, 153.550 175, 153 175 C 152.450 175, 151.933 177.137, 151.850 179.750 C 151.742 183.182, 151.577 183.667, 151.256 181.500 C 150.660 177.470, 152.930 163.706, 154.359 162.684 C 154.987 162.236, 154.375 162.183, 153 162.566 C 151.625 162.949, 149.262 164.134, 147.750 165.199 C 145.259 166.954, 144.561 166.854, 144.870 164.786 C 144.928 164.393, 144.194 164.318, 143.238 164.620 C 141.995 165.011, 142.172 164.574, 143.861 163.084 C 145.159 161.938, 145.748 161, 145.170 161 C 144.591 161, 143.840 161.450, 143.500 162 C 143.160 162.550, 142.389 163, 141.786 163 C 141.183 163, 141.505 162.100, 142.500 161 C 143.526 159.866, 143.810 159, 143.155 159 C 142.520 159, 142 159.450, 142 160 C 142 160.550, 141.045 161, 139.878 161 C 136.969 161, 139.014 158.547, 143.909 156.165 C 149.564 153.412, 153.987 150.573, 153.994 149.691 C 154.001 148.812, 152.861 149.382, 148.989 152.197 C 145.982 154.383, 142.889 155.240, 137.449 155.392 C 132.228 155.537, 126.178 160.256, 104 181.481 C 91.215 193.716, 92.454 192.342, 109.500 175.378 C 121.600 163.336, 142.748 143.363, 156.495 130.992 C 186.151 104.306, 195.998 95.027, 195.711 94.037 C 195.595 93.635, 196.963 91.931, 198.750 90.252 C 200.537 88.572, 202 86.605, 202 85.881 C 202 85.157, 198.296 88.561, 193.768 93.444 C 189.241 98.328, 173.157 113.389, 158.027 126.912 C 80.191 196.483, 54.180 226.745, 29.450 276.500 C 11.762 312.087, 4 342.548, 4 376.369 C 4 391.437, 5.837 409.816, 7.009 406.475 C 7.926 403.861, 9.338 412.835, 8.441 415.576 C 8 416.922, 8.092 417.110, 8.744 416.202 C 9.399 415.291, 10.222 416.918, 11.505 421.658 C 25.409 473.023, 64.834 512.016, 111.958 521.011 C 125.698 523.634, 131.528 523.909, 131.391 521.928 C 131.331 521.064, 130.997 515.439, 130.650 509.428 C 130.302 503.418, 129.817 497.497, 129.570 496.271 C 129.324 495.045, 129.518 493.798, 130 493.500 C 130.482 493.202, 130.670 491.955, 130.417 490.729 C 128.659 482.218, 135.325 457.314, 144.012 439.937 C 150.939 426.080, 164.964 406.242, 166.960 407.475 C 167.385 407.738, 168.580 406.959, 169.616 405.744 C 171.184 403.906, 171.206 403.762, 169.750 404.890 C 168.787 405.635, 168 405.842, 168 405.350 C 168 402.738, 195.343 378.386, 214.941 363.545 C 224.722 356.138, 226.828 354.851, 225.405 357.155 C 224.959 357.876, 225.131 358.037, 225.862 357.585 C 226.506 357.187, 226.790 356.469, 226.493 355.989 C 225.737 354.765, 241.961 341.858, 243.253 342.656 C 243.893 343.052, 244.012 342.828, 243.554 342.088 C 243.080 341.321, 243.312 340.984, 244.175 341.182 C 245.597 341.509, 256.081 333.259, 255.709 332.105 C 255.418 331.202, 282.588 304.922, 283.191 305.524 C 283.459 305.793, 284.539 305.032, 285.589 303.834 C 286.640 302.636, 286.938 301.985, 286.250 302.387 C 283.801 303.819, 285.054 301.325, 288.234 298.437 C 290.649 296.245, 290.966 296.114, 289.484 297.922 C 288.393 299.254, 288.069 300.011, 288.765 299.603 C 290.129 298.805, 302.907 282.170, 307.428 275.308 C 309.005 272.913, 309.868 270.596, 309.440 269.903 C 308.978 269.156, 309.110 268.950, 309.785 269.367 C 311.216 270.252, 318.393 257.467, 317.610 255.426 C 317.228 254.431, 317.428 254.147, 318.181 254.612 C 318.962 255.095, 319.125 254.769, 318.681 253.612 C 318.319 252.668, 318.405 252.132, 318.872 252.421 C 320.094 253.176, 323.374 245.413, 322.458 243.932 C 321.977 243.153, 322.101 242.945, 322.793 243.372 C 324.151 244.212, 328.071 232.188, 331.139 217.773 C 333.628 206.081, 334.325 176.073, 332.293 168.176 L 331.179 163.852 333.332 165.676 C 342.598 173.527, 351.902 182.350, 351.537 182.940 C 351.295 183.332, 354.107 186.544, 357.786 190.077 C 361.465 193.609, 362.930 194.813, 361.042 192.750 C 359.153 190.688, 358.063 189, 358.620 189 C 360.552 189, 378.201 207.865, 377.433 209.109 C 376.986 209.832, 377.114 210.048, 377.754 209.652 C 379.041 208.856, 392.409 223.528, 391.596 224.845 C 391.280 225.355, 391.805 226.387, 392.761 227.137 C 394.369 228.397, 394.388 228.349, 393.017 226.500 C 391.549 224.520, 391.557 224.519, 393.767 226.405 C 396.131 228.422, 396.867 230.639, 394.750 229.367 C 393.923 228.870, 393.971 229.197, 394.893 230.332 C 395.658 231.276, 396.517 231.816, 396.800 231.533 C 397.468 230.865, 400 232.961, 400 234.181 C 400 234.697, 399.550 234.840, 399 234.500 C 397.372 233.494, 397.860 234.642, 399.692 236.128 C 401.149 237.309, 401.276 237.292, 400.608 236 C 400.181 235.175, 401.207 236.075, 402.889 238 C 404.570 239.925, 405.956 241.950, 405.968 242.500 C 405.980 243.050, 404.830 242.150, 403.412 240.500 L 400.835 237.500 402.972 240.732 C 404.148 242.509, 405.592 243.859, 406.180 243.732 C 406.769 243.604, 407.477 244.125, 407.755 244.889 C 408.100 245.841, 407.825 246.031, 406.880 245.492 C 405.742 244.844, 405.728 244.951, 406.800 246.103 C 407.515 246.871, 408.603 247.500, 409.217 247.500 C 409.831 247.500, 410.542 248.125, 410.796 248.889 C 411.094 249.783, 410.825 250.010, 410.040 249.524 C 409.369 249.110, 410.040 250.615, 411.532 252.869 C 413.024 255.123, 414.709 256.680, 415.277 256.329 C 415.863 255.966, 416.009 256.177, 415.613 256.817 C 414.696 258.301, 417.916 263.170, 419.264 262.337 C 419.866 261.965, 420.012 262.172, 419.608 262.825 C 418.647 264.381, 420.837 268.219, 422.205 267.373 C 422.864 266.966, 423.027 267.148, 422.608 267.825 C 421.647 269.381, 423.837 273.219, 425.205 272.373 C 425.872 271.961, 426.026 272.149, 425.593 272.850 C 424.668 274.346, 429.007 282.114, 430.316 281.305 C 430.862 280.967, 430.999 281.193, 430.619 281.807 C 429.672 283.340, 436.995 299.121, 438.284 298.324 C 438.891 297.949, 439.003 298.186, 438.558 298.906 C 437.679 300.329, 439.865 306.201, 441.011 305.493 C 441.908 304.939, 443.313 308.020, 442.524 308.810 C 442.236 309.098, 442 308.733, 442 308 C 442 307.267, 441.783 306.883, 441.519 307.148 C 441.254 307.412, 442.561 312.004, 444.423 317.351 C 446.285 322.699, 448.002 326.495, 448.239 325.787 C 448.475 325.079, 448.668 326.075, 448.667 328 C 448.666 329.925, 449.617 335.775, 450.780 341 C 463.968 400.230, 444.069 457.057, 400.025 485.938 C 389.796 492.647, 388.764 492.583, 391.924 485.438 C 393.057 482.878, 393.730 480.373, 393.421 479.872 C 392.664 478.648, 394.905 471.755, 396.469 470.493 C 399.759 467.839, 403.820 445.527, 404.681 425.367 C 406.724 377.567, 390.407 339.487, 352.161 302.796 C 340.525 291.634, 319.001 273.833, 317.674 274.275 C 317.180 274.440, 313.930 278.676, 310.451 283.689 C 304.331 292.507, 304.187 292.859, 306 294.500 C 307.031 295.433, 308.321 295.919, 308.868 295.582 C 309.415 295.244, 310.187 295.494, 310.585 296.138 C 311.076 296.932, 310.857 297.046, 309.905 296.493 C 309.132 296.045, 309.591 296.875, 310.924 298.339 C 313.479 301.143, 315.130 302.067, 313 299.500 C 312.315 298.675, 312.190 298, 312.723 298 C 313.982 298, 317.157 301.509, 316.496 302.171 C 316.216 302.450, 316.995 303.539, 318.227 304.589 C 320.039 306.136, 320.207 306.167, 319.110 304.750 C 316.505 301.386, 319.330 303.045, 325.643 308.588 C 329.144 311.662, 331.712 314.657, 331.350 315.243 C 330.966 315.864, 331.163 316.017, 331.822 315.610 C 333.015 314.872, 350 330.478, 350 332.312 C 350 332.882, 348.772 332.258, 347.271 330.924 C 345.770 329.591, 346.349 330.525, 348.558 333 C 350.766 335.475, 354.534 340.200, 356.930 343.500 C 361.478 349.762, 363.964 352.691, 362.449 350 C 361.984 349.175, 360.076 346.363, 358.208 343.750 C 356.340 341.138, 355.040 339, 355.318 339 C 357.299 339, 370.420 360.511, 369.423 362.125 C 368.989 362.827, 369.118 363.045, 369.741 362.660 C 370.318 362.303, 371.063 362.721, 371.395 363.588 C 372.239 365.787, 372.154 366.213, 371.011 365.507 C 370.445 365.157, 370.276 365.557, 370.616 366.442 C 370.943 367.293, 371.565 367.769, 372 367.500 C 372.435 367.231, 373.057 367.707, 373.384 368.558 C 373.710 369.408, 373.555 369.843, 373.040 369.525 C 372.525 369.206, 372.797 370.983, 373.646 373.474 C 374.494 375.964, 375.554 377.776, 376.001 377.499 C 376.448 377.223, 376.560 377.968, 376.249 379.155 C 375.829 380.762, 376.020 381.106, 376.997 380.502 C 377.845 379.977, 378.068 380.082, 377.626 380.797 C 377.250 381.405, 377.924 386.537, 379.125 392.201 C 383.665 413.628, 381.953 439.217, 374.374 463.209 L 371.796 471.372 369.081 460.936 C 359.278 423.241, 339.117 394.495, 298.798 360.723 C 286.386 350.326, 266.192 335, 264.906 335 C 264.157 335, 246.646 349.923, 247.215 350.077 C 247.372 350.119, 248.260 350.300, 249.189 350.479 C 251.338 350.894, 258.226 356.108, 257.536 356.797 C 256.616 357.717, 259.102 359.898, 260.472 359.372 C 261.201 359.093, 262.138 359.414, 262.553 360.086 C 263.082 360.941, 262.887 361.054, 261.905 360.463 C 260.708 359.742, 260.704 359.867, 261.872 361.308 C 263.358 363.140, 264.506 363.628, 263.500 362 C 262.098 359.732, 264.694 361.376, 273.114 368.091 C 278.004 371.991, 281.784 375.540, 281.514 375.978 C 281.243 376.415, 281.778 377.387, 282.703 378.137 C 283.859 379.074, 284.149 379.110, 283.633 378.250 C 283.220 377.563, 283.289 377, 283.786 377 C 284.989 377, 288.141 380.526, 287.506 381.161 C 287.232 381.435, 288.244 382.748, 289.754 384.079 L 292.500 386.500 290.076 383.750 C 288.742 382.238, 288.096 381, 288.639 381 C 289.944 381, 295.176 386.490, 294.508 387.159 C 294.222 387.445, 294.968 388.539, 296.166 389.589 C 297.364 390.640, 298.015 390.938, 297.613 390.250 C 295.832 387.204, 299.044 389.499, 304.531 395.194 C 307.814 398.601, 309.702 400.787, 308.726 400.052 C 304.482 396.854, 306.565 400.106, 312.253 405.557 C 315.664 408.826, 317.341 410.150, 315.981 408.500 L 313.507 405.500 316.779 408.462 C 318.579 410.091, 319.842 411.970, 319.585 412.639 C 319.329 413.307, 319.880 414.449, 320.809 415.177 C 322.350 416.382, 322.376 416.322, 321.104 414.500 C 320.337 413.400, 321.312 414.300, 323.271 416.500 C 325.231 418.700, 327.566 421.850, 328.461 423.500 C 330.072 426.472, 330.070 426.477, 328.294 424.054 C 323.678 417.760, 323.363 418.195, 327.608 425 C 332.793 433.310, 335.578 436.741, 332.074 430.500 C 330.839 428.300, 330.576 427.400, 331.490 428.500 C 333.800 431.279, 336.396 436.362, 335.094 435.558 C 334.436 435.151, 334.252 435.492, 334.616 436.442 C 334.943 437.293, 335.682 437.697, 336.259 437.340 C 336.837 436.983, 337.024 437.153, 336.675 437.717 C 336.326 438.281, 337.577 442.288, 339.454 446.621 C 348.004 466.360, 351.336 484.714, 350.812 509.184 C 350.570 520.460, 350.786 525.609, 351.477 525.068 C 352.040 524.627, 356.637 523.750, 361.694 523.117 C 373.718 521.614, 385.769 518.058, 397.636 512.513 C 402.915 510.045, 407.701 508.315, 408.272 508.668 C 408.856 509.029, 409.011 508.826, 408.627 508.205 C 407.781 506.837, 411.619 504.647, 413.175 505.608 C 413.821 506.008, 414.035 505.866, 413.672 505.279 C 413.322 504.712, 416.065 501.969, 419.768 499.183 C 423.471 496.397, 427.938 492.741, 429.696 491.059 C 433.015 487.882, 434.637 487.091, 433.404 489.250 C 433.012 489.938, 434.110 489.178, 435.845 487.563 C 437.580 485.948, 439 484.415, 439 484.158 C 439 483.901, 438.100 484.505, 437 485.500 C 435.900 486.495, 435 486.969, 435 486.552 C 435 485.382, 444.194 475.472, 445.050 475.718 C 445.467 475.838, 446.414 475.189, 447.154 474.276 C 448.101 473.108, 448.130 472.839, 447.250 473.367 C 445.266 474.559, 445.769 473.299, 449.096 468.741 C 450.799 466.409, 452.632 464.624, 453.170 464.775 C 453.708 464.926, 453.869 464.598, 453.528 464.045 C 452.715 462.730, 454.840 458.783, 455.981 459.488 C 456.465 459.788, 457.187 459.506, 457.585 458.862 C 458.037 458.131, 457.876 457.959, 457.155 458.405 C 455.388 459.496, 455.703 458.536, 459.669 450.725 C 461.686 446.751, 464.999 438.812, 467.030 433.083 C 469.060 427.354, 470.979 423.304, 471.293 424.083 C 471.608 424.862, 471.632 423.925, 471.348 422 C 470.939 419.231, 471.071 418.813, 471.976 420 C 472.877 421.179, 472.989 420.752, 472.500 418 C 472.104 415.769, 472.209 414.977, 472.789 415.816 C 474.166 417.807, 477.088 401.679, 478.010 387 C 481.160 336.845, 463.141 283.403, 425.331 230.765 C 404.577 201.871, 379.917 176.486, 326.999 129.541 C 314.624 118.564, 298.875 103.959, 292 97.087 C 285.125 90.214, 279.216 84.665, 278.869 84.756 C 278.522 84.846, 277.397 83.961, 276.369 82.788 C 275.187 81.440, 275.052 80.985, 276 81.549 C 276.825 82.040, 278.400 82.581, 279.500 82.750 C 280.600 82.919, 281.646 83.482, 281.824 84 C 282.002 84.519, 282.731 84.396, 283.448 83.726 C 284.164 83.057, 284.555 82.005, 284.318 81.387 C 284.081 80.769, 284.816 80.020, 285.951 79.723 C 287.949 79.201, 288.389 76.056, 286.701 74.368 C 286.325 73.992, 286.508 73.093, 287.108 72.370 C 287.916 71.396, 287.775 70.633, 286.565 69.422 C 285.290 68.147, 285.189 67.477, 286.105 66.373 C 287.665 64.494, 288.117 60.001, 286.718 60.280 C 286.113 60.401, 285.451 59.737, 285.247 58.805 C 284.949 57.447, 285.434 57.203, 287.687 57.576 C 289.807 57.928, 290.130 57.795, 289 57.037 C 288.175 56.483, 287.887 56.024, 288.361 56.015 C 288.834 56.007, 288.159 55.115, 286.861 54.033 C 285.353 52.778, 285.007 52.055, 285.903 52.033 C 286.838 52.011, 286.567 51.359, 285.087 50.076 C 283.867 49.017, 282.837 47.780, 282.799 47.326 C 282.612 45.110, 280.498 41.975, 278.834 41.447 C 277.809 41.122, 277.248 40.408, 277.586 39.861 C 277.924 39.313, 277.238 38.613, 276.060 38.305 C 274.882 37.997, 274.082 37.253, 274.283 36.651 C 274.484 36.049, 273.602 34.511, 272.324 33.233 C 271.046 31.955, 270 30.206, 270 29.348 C 270 28.347, 269.442 28, 268.448 28.382 C 267.552 28.726, 267.156 28.556, 267.512 27.981 C 267.850 27.433, 267.424 26.281, 266.564 25.421 C 264.680 23.537, 264.542 22.013, 266.250 21.965 C 266.938 21.945, 266.417 21.329, 265.093 20.596 C 263.767 19.861, 261.132 19.472, 259.224 19.729 C 256.704 20.068, 255.963 19.869, 256.501 18.998 C 257.071 18.076, 256.746 18.065, 255.093 18.950 C 253.911 19.583, 253.205 20.523, 253.524 21.039 C 253.844 21.557, 253.383 21.700, 252.494 21.360 C 251.543 20.994, 251.114 20.080, 251.445 19.121 C 251.957 17.640, 251.897 17.638, 250.752 19.100 C 249.956 20.117, 248.589 20.515, 247 20.193 C 245.625 19.915, 243.262 19.645, 241.750 19.594 C 240.131 19.539, 239 18.935, 239 18.128 C 239 17.011, 238.715 16.991, 237.476 18.020 C 236.638 18.716, 235.663 18.996, 235.309 18.643 C 234.956 18.289, 235.267 18, 236 18 C 236.733 18, 237.100 17.767, 236.815 17.482 C 236.531 17.197, 234.993 17.645, 233.399 18.476 C 229.704 20.403, 228.413 20.412, 230 18.500 C 231.311 16.921, 230.047 16.533, 227.258 17.660 M 261.516 20.974 C 261.140 21.583, 259.857 21.809, 258.666 21.475 C 256.952 20.995, 256.813 21.088, 258 21.919 C 259.264 22.804, 259.186 22.977, 257.500 23.015 C 255.601 23.058, 255.593 23.115, 257.335 24.128 C 259.123 25.167, 264.049 21.716, 262.701 20.367 C 262.425 20.092, 261.892 20.365, 261.516 20.974 M 213.851 23.251 C 214.608 24.008, 215.337 24.063, 215.988 23.412 C 216.639 22.761, 216.247 22.369, 214.839 22.263 C 213.229 22.142, 212.985 22.385, 213.851 23.251 M 269 23 C 269.825 23.533, 270.950 23.969, 271.500 23.969 C 272.050 23.969, 271.825 23.533, 271 23 C 270.175 22.467, 269.050 22.031, 268.500 22.031 C 267.950 22.031, 268.175 22.467, 269 23 M 274.500 30 C 274.160 30.550, 274.610 31, 275.500 31 C 276.390 31, 276.840 30.550, 276.500 30 C 276.160 29.450, 275.710 29, 275.500 29 C 275.290 29, 274.840 29.450, 274.500 30 M 206.500 31 C 206.840 31.550, 207.316 32, 207.559 32 C 207.802 32, 208 31.550, 208 31 C 208 30.450, 207.523 30, 206.941 30 C 206.359 30, 206.160 30.450, 206.500 31 M 273.506 41.006 C 274.504 42.110, 275.527 42.806, 275.780 42.554 C 276.321 42.012, 273.471 39, 272.416 39 C 272.017 39, 272.507 39.903, 273.506 41.006 M 281.500 41 C 281.840 41.550, 282.316 42, 282.559 42 C 282.802 42, 283 41.550, 283 41 C 283 40.450, 282.523 40, 281.941 40 C 281.359 40, 281.160 40.450, 281.500 41 M 283 43.393 C 283 43.609, 283.698 44.054, 284.552 44.382 C 285.442 44.723, 285.843 44.555, 285.493 43.989 C 284.906 43.038, 283 42.583, 283 43.393 M 285 78.059 C 285 78.641, 285.450 78.840, 286 78.500 C 286.550 78.160, 287 77.684, 287 77.441 C 287 77.198, 286.550 77, 286 77 C 285.450 77, 285 77.477, 285 78.059 M 190 98.500 C 187.571 100.975, 185.809 103, 186.084 103 C 186.359 103, 188.571 100.975, 191 98.500 C 193.429 96.025, 195.191 94, 194.916 94 C 194.641 94, 192.429 96.025, 190 98.500 M 227.967 103.709 C 211.969 139.135, 217.802 174.265, 245.365 208.500 C 251.916 216.636, 269.339 234.106, 280.858 244.087 L 287.216 249.596 281.654 258.217 C 275.732 267.397, 274.252 268.146, 270.410 263.900 C 268.249 261.513, 266.271 261.383, 268.128 263.750 C 269.370 265.334, 269.335 265.370, 267.761 264.137 C 266.805 263.387, 266.223 262.448, 266.470 262.049 C 267.137 260.969, 259.333 253.676, 258.236 254.354 C 257.716 254.676, 256.213 253.715, 254.895 252.219 L 252.500 249.500 255.500 251.983 C 257.150 253.349, 256.494 252.336, 254.042 249.733 C 249.956 245.395, 246.875 243.371, 248.595 246.155 C 249.028 246.854, 248.871 247.038, 248.198 246.622 C 247.587 246.245, 247.281 245.388, 247.517 244.718 C 247.753 244.048, 246.759 242.636, 245.309 241.579 C 243.663 240.381, 242.977 240.193, 243.486 241.079 C 243.934 241.861, 242.647 240.939, 240.627 239.031 C 238.607 237.124, 237.154 235.041, 237.399 234.402 C 237.644 233.764, 236.192 231.725, 234.172 229.871 L 230.500 226.500 233.500 230.069 C 235.150 232.031, 233.695 230.681, 230.268 227.069 C 226.840 223.456, 224.140 219.825, 224.268 219 C 224.395 218.175, 223.959 217.605, 223.297 217.734 C 221.719 218.042, 211.813 202.929, 212.470 201.217 C 212.782 200.404, 212.532 200.171, 211.819 200.612 C 211.038 201.095, 210.875 200.769, 211.319 199.612 C 211.697 198.626, 211.571 198.147, 211.022 198.486 C 209.780 199.254, 204.712 189.162, 201.428 179.381 C 196.263 163.994, 193.976 144.205, 195.840 131.032 C 196.421 126.924, 196.751 123.417, 196.572 123.239 C 195.905 122.572, 185.572 139.637, 181.908 147.455 C 168.796 175.436, 169.283 209.548, 183.232 240.255 C 186.205 246.800, 186.245 247.072, 184.495 249.005 C 182.513 251.196, 180.423 251.743, 181.653 249.750 C 182.077 249.063, 180.529 250, 178.212 251.834 C 172.991 255.967, 172.652 257.210, 177.750 253.531 C 180.960 251.215, 180.852 251.403, 177 254.839 C 168.922 262.043, 167.365 262.607, 165.501 259.002 C 164.631 257.319, 164.231 255.435, 164.614 254.816 C 165.070 254.078, 164.853 253.973, 163.985 254.510 C 163.015 255.109, 162.836 254.868, 163.319 253.612 C 163.682 252.666, 163.566 252.150, 163.061 252.463 C 162.086 253.065, 160.463 249.204, 161.327 248.340 C 162.153 247.514, 159.886 241.953, 158.958 242.526 C 157.773 243.258, 152.316 225.753, 150.522 215.464 C 148.485 203.782, 147.718 187.263, 148.728 176.830 C 149.652 167.290, 149.235 166.893, 144.076 172.408 C 141.369 175.302, 138.984 175.983, 141.128 173.250 C 141.882 172.287, 140.626 173.075, 138.335 175 C 136.044 176.925, 134.131 178.922, 134.085 179.437 C 134.038 179.952, 135.463 179.088, 137.250 177.516 C 139.037 175.944, 136.780 178.356, 132.232 182.877 C 127.685 187.397, 123.601 190.871, 123.157 190.597 C 122.135 189.965, 108.756 203.365, 109.471 204.304 C 109.762 204.687, 109.688 204.763, 109.308 204.474 C 108.493 203.856, 98 213.985, 98 215.390 C 98 215.917, 99.237 215.258, 100.750 213.924 L 103.500 211.500 101.105 214.219 C 99.787 215.715, 98.366 216.726, 97.946 216.467 C 97.526 216.207, 94.779 218.729, 91.841 222.071 C 86.039 228.671, 84.294 231.676, 88.104 228.507 L 90.500 226.514 88.076 229.257 C 85.478 232.196, 84.493 232.770, 85.513 230.750 C 85.861 230.063, 84.544 231.300, 82.587 233.500 C 80.631 235.700, 79.023 237.933, 79.015 238.462 C 79.007 238.991, 80.382 237.866, 82.072 235.962 L 85.144 232.500 82.433 236.277 C 80.941 238.355, 79.488 239.821, 79.203 239.536 C 78.533 238.866, 76 240.958, 76 242.181 C 76 242.697, 76.520 242.797, 77.155 242.405 C 77.876 241.959, 78.037 242.131, 77.585 242.862 C 77.187 243.506, 76.471 243.791, 75.993 243.496 C 75.251 243.037, 71.418 247.885, 68.478 253 C 67.716 254.325, 67.827 254.329, 69.429 253.027 C 70.582 252.091, 70.260 253.002, 68.546 255.527 C 67.063 257.712, 65.471 259.500, 65.008 259.500 C 64.545 259.500, 63.792 259.910, 63.333 260.410 C 62.841 260.948, 63.065 260.993, 63.880 260.521 C 64.829 259.971, 65.102 260.155, 64.755 261.111 C 64.477 261.875, 63.760 262.393, 63.161 262.262 C 62.562 262.131, 62.311 262.648, 62.604 263.411 C 62.897 264.174, 62.586 265.138, 61.914 265.553 C 61.132 266.037, 60.948 265.893, 61.405 265.155 C 61.797 264.520, 61.903 264, 61.641 264 C 60.467 264, 56.935 271.085, 57.584 272.136 C 58.070 272.923, 57.873 273.040, 56.985 272.490 C 56.015 271.891, 55.836 272.132, 56.319 273.388 C 56.694 274.365, 56.570 274.852, 56.031 274.519 C 55.511 274.198, 54.364 275.412, 53.482 277.217 L 51.880 280.500 54 278 L 56.120 275.500 54.518 278.783 C 53.636 280.588, 52.558 281.845, 52.122 281.576 C 51.686 281.306, 50.573 282.673, 49.648 284.612 C 48.723 286.552, 48.482 287.820, 49.113 287.430 C 49.779 287.019, 50.090 287.230, 49.855 287.936 C 49.632 288.604, 49.083 289.004, 48.634 288.825 C 47.558 288.396, 44.753 293.792, 45.459 294.933 C 46.185 296.109, 44.998 299.117, 44.041 298.526 C 42.877 297.806, 40.976 302.774, 41.697 304.652 C 42.101 305.706, 41.944 306.084, 41.275 305.670 C 40.689 305.308, 39.937 305.721, 39.605 306.588 C 38.697 308.954, 38.904 309.695, 40 308 C 40.533 307.175, 40.969 306.950, 40.969 307.500 C 40.969 308.837, 39.039 311.778, 39 310.500 C 38.961 309.222, 37.031 312.163, 37.031 313.500 C 37.031 314.050, 37.516 313.825, 38.110 313 C 39.007 311.752, 39.089 311.808, 38.594 313.332 C 38.267 314.339, 38 315.603, 38 316.141 C 38 316.678, 37.592 316.866, 37.093 316.558 C 36.595 316.249, 36.409 317.010, 36.680 318.249 C 37.088 320.109, 36.973 320.239, 36.021 319 C 35.072 317.764, 34.976 317.881, 35.475 319.665 C 36.351 322.795, 35.028 327.599, 33.773 325.845 C 33.069 324.860, 32.977 325.008, 33.430 326.396 C 34.102 328.452, 30.942 344, 29.853 344 C 29.487 344, 29.409 345.012, 29.680 346.250 C 30.087 348.105, 29.973 348.237, 29.028 347 C 28.145 345.843, 28.024 346.757, 28.500 351 C 28.849 354.114, 28.748 355.970, 28.267 355.278 C 26.321 352.481, 27.651 393.123, 29.863 404.062 C 37.207 440.369, 55.634 468.988, 83.157 486.833 C 88.296 490.165, 93.044 493.365, 93.708 493.945 C 95.712 495.696, 95.791 495.197, 94.248 490.512 C 93.394 487.917, 92.332 486.295, 91.731 486.666 C 91.152 487.024, 90.988 486.829, 91.361 486.226 C 91.729 485.630, 90.221 479.691, 88.010 473.029 C 85.798 466.367, 83.234 456.654, 82.311 451.446 C 81.251 445.464, 80.319 442.440, 79.780 443.238 C 79.288 443.964, 79.213 442.846, 79.601 440.605 C 80.031 438.127, 79.917 436.933, 79.287 437.323 C 77.900 438.180, 76.975 421.969, 77.641 408.500 C 79.177 377.460, 90.557 348.522, 111.130 323.342 C 124.227 307.311, 140.838 292.441, 183.450 258.601 C 193.768 250.406, 206.159 239.944, 210.986 235.351 C 215.812 230.758, 220.152 227.034, 220.631 227.075 C 221.551 227.154, 236.428 245.039, 235.816 245.330 C 235.619 245.423, 233.016 247.750, 230.031 250.500 C 227.047 253.250, 225.199 254.713, 225.925 253.750 C 226.651 252.787, 226.810 252, 226.277 252 C 225.036 252, 221.838 255.505, 222.487 256.154 C 222.758 256.425, 221.528 257.963, 219.755 259.573 C 217.965 261.198, 217.372 261.499, 218.421 260.250 C 219.460 259.012, 219.874 258, 219.342 258 C 218.259 258, 212.890 263.343, 212.652 264.657 C 212.569 265.120, 212.115 265.372, 211.645 265.215 C 210.450 264.817, 207.919 267.059, 208.500 268 C 208.763 268.425, 208.195 269.387, 207.239 270.137 C 205.665 271.370, 205.630 271.334, 206.872 269.750 C 209.275 266.686, 206.493 267.870, 203.437 271.212 C 201.822 272.978, 201.400 273.774, 202.500 272.979 C 204.479 271.549, 204.480 271.557, 202.595 273.767 C 200.574 276.136, 198.380 276.859, 199.613 274.750 C 200.015 274.063, 199.366 274.357, 198.172 275.405 C 195.623 277.641, 195.217 278.880, 197.692 276.872 C 198.719 276.040, 199.100 275.973, 198.662 276.703 C 198.265 277.365, 196.491 278.913, 194.720 280.143 L 191.500 282.378 193.500 280 L 195.500 277.622 192.500 279.719 C 189.066 282.119, 180.457 289.924, 183.500 287.879 C 185.486 286.544, 185.486 286.551, 183.563 288.803 C 182.498 290.050, 181.099 290.868, 180.456 290.621 C 178.987 290.058, 167.744 298.777, 168.455 299.928 C 168.743 300.393, 168.195 301.387, 167.239 302.137 C 165.634 303.395, 165.615 303.353, 167 301.587 C 172.823 294.162, 144.587 318.366, 134.934 329.074 C 124.359 340.804, 126.662 339.369, 139.228 326.397 C 145.403 320.023, 152.266 313.441, 154.478 311.771 C 156.690 310.101, 154.142 312.855, 148.816 317.891 C 143.490 322.927, 136.358 330.075, 132.968 333.774 C 129.579 337.473, 127.146 339.825, 127.563 339 C 128.002 338.131, 127.943 337.845, 127.423 338.321 C 126.929 338.772, 126.520 339.897, 126.513 340.821 C 126.506 341.744, 125.937 342.387, 125.250 342.250 C 124.562 342.112, 124.053 342.337, 124.118 342.750 C 124.379 344.399, 123.865 345.610, 121.891 348 C 120.755 349.375, 120.125 349.825, 120.489 349 C 122.786 343.805, 115.979 354.077, 112.386 361.230 C 108.235 369.493, 106.411 374.404, 109.500 369 C 111.504 365.494, 111.318 366.537, 108.623 373.920 C 107.227 377.746, 106.037 379.766, 105.680 378.920 C 105.350 378.139, 105.352 378.805, 105.686 380.399 C 106.084 382.304, 105.931 383.075, 105.239 382.648 C 104.583 382.242, 104.383 382.750, 104.710 383.999 C 104.998 385.099, 104.843 386, 104.367 386 C 103.890 386, 103.461 387.238, 103.414 388.750 C 103.367 390.262, 102.724 394.875, 101.985 399 C 98.762 416.987, 100.821 442.084, 107.132 461.724 L 110.274 471.500 113.033 461.193 C 124.402 418.726, 145.855 390.246, 196.379 350.547 C 243.596 313.448, 259.032 299.474, 275.647 278.790 C 301.990 245.995, 314.638 205.414, 308.505 173.361 C 307.682 169.062, 307.242 164.813, 307.526 163.918 C 307.810 163.022, 307.612 161.212, 307.085 159.895 C 306.558 158.578, 306.091 158.175, 306.047 159 C 306.002 159.825, 304.504 156.900, 302.716 152.500 C 300.928 148.100, 297.336 140.997, 294.733 136.715 C 289.690 128.419, 289.282 127.469, 291.250 128.601 C 291.976 129.019, 292.151 128.939, 291.667 128.410 C 291.208 127.910, 290.308 127.499, 289.667 127.497 C 289.025 127.496, 288.499 126.596, 288.499 125.497 C 288.498 124.399, 288.048 123.574, 287.499 123.665 C 286.949 123.756, 285.958 123.380, 285.296 122.830 C 284.374 122.065, 284.292 122.531, 284.948 124.817 C 287.698 134.406, 286.966 155.809, 283.409 169.838 C 281.208 178.519, 277.865 187.035, 276.894 186.435 C 276.415 186.139, 276.273 186.549, 276.580 187.347 C 277.295 189.211, 272.237 199.265, 270.976 198.485 C 270.452 198.161, 270.236 198.482, 270.497 199.198 C 271.041 200.691, 265.176 210.509, 264.277 209.610 C 263.532 208.865, 261 210.901, 261 212.245 C 261 212.795, 261.788 212.649, 262.750 211.921 C 264.234 210.798, 264.312 210.808, 263.260 211.988 C 260.834 214.711, 259.093 213.694, 252.071 205.448 L 244.962 197.098 248.344 191.799 C 258.951 175.182, 262.316 163.604, 262.384 143.500 C 262.437 127.614, 261.581 122.647, 256.418 108.900 C 252.947 99.657, 251.486 97.871, 249.500 100.441 C 248.675 101.509, 248 102.071, 248 101.691 C 248 101.311, 247.069 101.931, 245.931 103.069 C 243.979 105.021, 243.719 105.046, 241.370 103.506 C 239.999 102.609, 238.343 102.071, 237.689 102.312 C 237.035 102.553, 235.067 101.888, 233.315 100.834 L 230.130 98.917 227.967 103.709 M 259.079 105.583 C 259.127 106.748, 259.364 106.985, 259.683 106.188 C 259.972 105.466, 259.936 104.603, 259.604 104.271 C 259.272 103.939, 259.036 104.529, 259.079 105.583 M 260.076 108.550 C 260.118 109.073, 260.799 111.075, 261.589 113 L 263.026 116.500 262.494 113.031 C 262.028 109.989, 259.871 105.992, 260.076 108.550 M 210.750 110.662 C 211.438 110.940, 212.563 110.940, 213.250 110.662 C 213.938 110.385, 213.375 110.158, 212 110.158 C 210.625 110.158, 210.063 110.385, 210.750 110.662 M 163.924 122.750 L 161.500 125.500 164.250 123.076 C 166.820 120.810, 167.459 120, 166.674 120 C 166.495 120, 165.258 121.237, 163.924 122.750 M 213 121.059 C 213 121.641, 213.450 121.840, 214 121.500 C 214.550 121.160, 215 120.684, 215 120.441 C 215 120.198, 214.550 120, 214 120 C 213.450 120, 213 120.477, 213 121.059 M 133.601 156.836 C 133.347 157.248, 134.007 157.650, 135.069 157.730 C 137.366 157.903, 137.568 157.432, 135.532 156.651 C 134.725 156.341, 133.856 156.424, 133.601 156.836 M 156.500 158 C 156.160 158.550, 156.246 159.007, 156.691 159.015 C 157.136 159.024, 156.825 159.467, 156 160 C 154.707 160.835, 154.734 160.971, 156.191 160.985 C 157.121 160.993, 158.160 160.550, 158.500 160 C 158.840 159.450, 158.615 159, 158 159 C 157.385 159, 157.160 158.550, 157.500 158 C 157.840 157.450, 157.893 157, 157.618 157 C 157.343 157, 156.840 157.450, 156.500 158 M 264.158 160 C 264.158 161.375, 264.385 161.938, 264.662 161.250 C 264.940 160.563, 264.940 159.438, 264.662 158.750 C 264.385 158.063, 264.158 158.625, 264.158 160 M 306.079 162.583 C 306.127 163.748, 306.364 163.985, 306.683 163.188 C 306.972 162.466, 306.936 161.603, 306.604 161.271 C 306.272 160.939, 306.036 161.529, 306.079 162.583 M 263.079 164.583 C 263.127 165.748, 263.364 165.985, 263.683 165.188 C 263.972 164.466, 263.936 163.603, 263.604 163.271 C 263.272 162.939, 263.036 163.529, 263.079 164.583 M 262.079 168.583 C 262.127 169.748, 262.364 169.985, 262.683 169.188 C 262.972 168.466, 262.936 167.603, 262.604 167.271 C 262.272 166.939, 262.036 167.529, 262.079 168.583 M 128.946 183.682 L 125.500 187.364 129.750 184.098 C 132.088 182.302, 134 180.645, 134 180.416 C 134 179.135, 131.980 180.440, 128.946 183.682 M 252.932 188.964 C 248.380 196.704, 248.371 196.739, 250.250 199.060 L 252.136 201.389 251.505 198.875 C 251.055 197.083, 251.920 194.276, 254.520 189.097 C 259.378 179.415, 258.587 179.349, 252.932 188.964 M 352 183.313 C 352 183.485, 353.462 184.948, 355.250 186.563 L 358.500 189.500 355.563 186.250 C 352.825 183.221, 352 182.540, 352 183.313 M 168.195 191.500 C 168.215 193.150, 168.439 193.704, 168.693 192.731 C 168.947 191.758, 168.930 190.408, 168.656 189.731 C 168.382 189.054, 168.175 189.850, 168.195 191.500 M 273.144 192.750 C 272.053 195.300, 272.078 195.359, 273.484 193.559 C 274.318 192.491, 275 191.254, 275 190.809 C 275 189.289, 274.322 189.999, 273.144 192.750 M 116.469 197.250 L 110.500 203.500 116.750 197.531 C 120.188 194.249, 123 191.436, 123 191.281 C 123 190.542, 122.013 191.444, 116.469 197.250 M 168.768 197.554 C 168.366 197.962, 168.224 199.243, 168.453 200.398 C 168.683 201.554, 169.634 206.679, 170.566 211.786 C 171.499 216.893, 172.465 220.868, 172.714 220.619 C 172.962 220.371, 172.468 216.642, 171.614 212.334 C 170.760 208.025, 169.936 202.770, 169.781 200.655 C 169.626 198.541, 169.171 197.145, 168.768 197.554 M 231.015 197.691 C 231.024 198.136, 231.467 199.175, 232 200 C 232.835 201.293, 232.971 201.266, 232.985 199.809 C 232.993 198.879, 232.550 197.840, 232 197.500 C 231.450 197.160, 231.007 197.246, 231.015 197.691 M 83.437 202.250 L 80.500 205.500 83.750 202.563 C 85.537 200.948, 87 199.485, 87 199.313 C 87 198.540, 86.175 199.221, 83.437 202.250 M 233 203.820 C 232.175 204.194, 231.412 204.988, 231.306 205.583 C 231.051 207.004, 234.287 207.017, 235.235 205.599 C 235.734 204.853, 235.974 204.920, 235.985 205.809 C 235.993 206.529, 236.472 206.826, 237.049 206.470 C 237.765 206.027, 237.727 205.376, 236.926 204.411 C 235.646 202.869, 235.236 202.807, 233 203.820 M 265.535 205.587 C 264.603 207.009, 264.068 208.401, 264.346 208.680 C 264.625 208.958, 265.572 207.794, 266.452 206.093 C 268.396 202.333, 267.861 202.037, 265.535 205.587 M 76.405 210.250 L 74.500 212.500 76.750 210.595 C 78.864 208.805, 79.455 208, 78.655 208 C 78.465 208, 77.453 209.012, 76.405 210.250 M 71.872 215.750 C 70.629 217.336, 70.664 217.371, 72.250 216.128 C 73.213 215.373, 74 214.585, 74 214.378 C 74 213.555, 73.179 214.084, 71.872 215.750 M 228 223.500 C 229.292 224.875, 230.574 226, 230.849 226 C 231.124 226, 230.292 224.875, 229 223.500 C 227.708 222.125, 226.426 221, 226.151 221 C 225.876 221, 226.708 222.125, 228 223.500 M 174.527 227.500 C 175.258 230.958, 179.109 240.225, 179.607 239.726 C 179.791 239.542, 178.581 236.041, 176.918 231.946 C 175.254 227.851, 174.179 225.850, 174.527 227.500 M 208 240.650 C 201.675 246.455, 191.213 255.490, 184.750 260.727 C 178.287 265.964, 173 270.471, 173 270.743 C 173 271.504, 181.968 264.594, 200.179 249.801 C 205.246 245.685, 206.231 245.234, 205.396 247.410 C 205.070 248.259, 205.685 249.083, 206.942 249.482 C 208.090 249.846, 208.753 250.590, 208.416 251.136 C 208.027 251.765, 209.209 251.895, 211.652 251.491 L 215.500 250.855 213 252.905 C 210.745 254.755, 210.691 254.958, 212.450 254.978 C 213.967 254.995, 214.133 255.267, 213.200 256.200 C 212.540 256.860, 212 258.237, 212 259.259 C 212 260.456, 211.555 260.867, 210.750 260.412 C 209.792 259.872, 209.772 260.001, 210.662 260.965 C 211.577 261.957, 214.063 260.361, 222.351 253.459 L 232.878 244.694 226.875 237.347 C 223.573 233.306, 220.563 230.021, 220.186 230.047 C 219.809 230.073, 214.325 234.844, 208 240.650 M 180.071 241.500 C 180.071 242.050, 180.714 243.625, 181.500 245 C 182.286 246.375, 182.929 247.050, 182.929 246.500 C 182.929 245.950, 182.286 244.375, 181.500 243 C 180.714 241.625, 180.071 240.950, 180.071 241.500 M 74.278 246.250 C 72.779 248.188, 71.836 250, 72.326 250 C 72.570 250, 73.507 248.875, 74.408 247.500 C 76.094 244.927, 76 244.024, 74.278 246.250 M 419.079 246.583 C 419.127 247.748, 419.364 247.985, 419.683 247.188 C 419.972 246.466, 419.936 245.603, 419.604 245.271 C 419.272 244.939, 419.036 245.529, 419.079 246.583 M 411.564 251.293 C 411.940 252.279, 412.499 252.834, 412.807 252.526 C 413.115 252.219, 412.808 251.412, 412.124 250.733 C 411.136 249.753, 411.022 249.868, 411.564 251.293 M 295 254 C 294.411 255.100, 294.155 256, 294.430 256 C 294.705 256, 295.411 255.100, 296 254 C 296.589 252.900, 296.845 252, 296.570 252 C 296.295 252, 295.589 252.900, 295 254 M 280.564 256.707 C 280.022 258.132, 280.136 258.247, 281.124 257.267 C 281.808 256.588, 282.115 255.781, 281.807 255.474 C 281.499 255.166, 280.940 255.721, 280.564 256.707 M 166.564 259.293 C 166.940 260.279, 167.499 260.834, 167.807 260.526 C 168.115 260.219, 167.808 259.412, 167.124 258.733 C 166.136 257.753, 166.022 257.868, 166.564 259.293 M 277.068 261.904 C 274.690 265.245, 274.286 267.509, 276.605 264.500 C 278.621 261.885, 280.193 259, 279.603 259 C 279.346 259, 278.206 260.307, 277.068 261.904 M 286.229 268.572 C 284.993 270.457, 284.180 272, 284.423 272 C 285.118 272, 289.261 265.927, 288.847 265.514 C 288.643 265.310, 287.465 266.686, 286.229 268.572 M 59.459 268.067 C 59.096 268.653, 59.014 269.348, 59.276 269.610 C 59.538 269.872, 60.019 269.392, 60.345 268.543 C 61.021 266.781, 60.445 266.471, 59.459 268.067 M 165.847 275.439 C 162.738 277.880, 159.865 280.410, 159.462 281.061 C 159.059 281.713, 161.716 279.900, 165.365 277.032 C 171.158 272.479, 172.726 270.998, 171.750 271.001 C 171.613 271.001, 168.956 272.998, 165.847 275.439 M 275.251 283.250 C 262.522 298.585, 239.232 319.999, 214 339.569 C 191.451 357.057, 172.442 372.785, 167.500 378.042 C 165.300 380.383, 168 378.374, 173.500 373.580 C 179 368.785, 187.932 361.406, 193.348 357.181 C 217.764 338.138, 237.945 321.989, 243 317.451 C 256.683 305.166, 283.914 276, 281.701 276 C 281.463 276, 278.561 279.262, 275.251 283.250 M 303 279 C 301.825 280.650, 301.089 282, 301.364 282 C 301.639 282, 302.825 280.650, 304 279 C 305.175 277.350, 305.911 276, 305.636 276 C 305.361 276, 304.175 277.350, 303 279 M 312.598 284.561 C 309.865 288.761, 308.095 292.436, 308.598 292.865 C 316.185 299.339, 326 307.015, 326 306.476 C 326 306.092, 326.906 306.841, 328.014 308.139 C 329.122 309.438, 329.969 310.050, 329.896 309.500 C 329.560 306.973, 330.116 305.831, 331.435 306.337 C 332.225 306.640, 333.089 306.350, 333.356 305.694 C 333.624 305.037, 333.912 305.400, 333.998 306.500 C 334.264 309.931, 334.821 312.158, 335.584 312.842 C 335.988 313.204, 336.036 312.712, 335.691 311.750 C 335.345 310.788, 335.499 310, 336.031 310 C 336.564 310, 337 308.875, 337 307.500 C 337 306.125, 337.450 305, 338 305 C 338.550 305, 339 304.325, 339 303.500 C 339 302.675, 339.480 302, 340.067 302 C 340.701 302, 340.860 302.864, 340.460 304.125 C 340.035 305.465, 340.164 306.017, 340.807 305.619 C 341.369 305.272, 342.057 305.553, 342.336 306.244 C 342.614 306.935, 342.906 306.150, 342.984 304.500 L 343.127 301.500 344.219 304 C 344.819 305.375, 345.222 307.175, 345.114 308 C 344.938 309.333, 345.041 309.333, 346.034 308 C 346.835 306.925, 347.291 306.838, 347.641 307.694 C 347.909 308.350, 348.849 308.611, 349.729 308.274 C 350.784 307.869, 351.084 308.054, 350.612 308.819 C 350.175 309.525, 350.404 309.788, 351.198 309.493 C 353.358 308.691, 362.009 317.552, 376.587 335.500 C 377.835 337.037, 377.802 336.805, 376.447 334.500 C 372.967 328.583, 358.124 311.339, 349.219 302.868 C 340.641 294.708, 319.286 276.985, 318.065 277.013 C 317.754 277.020, 315.294 280.416, 312.598 284.561 M 197.500 286.745 C 188.225 294.367, 188.013 294.781, 191.716 298.029 C 193.247 299.372, 193.938 299.824, 193.250 299.035 C 191.216 296.700, 191.826 295.532, 194.035 297.532 C 195.155 298.545, 195.856 299.932, 195.595 300.614 C 195.333 301.296, 195.880 302.449, 196.809 303.177 C 198.357 304.388, 198.377 304.331, 197.044 302.500 C 196.242 301.400, 197.255 302.051, 199.294 303.946 C 201.332 305.842, 202.990 307.867, 202.978 308.446 C 202.966 309.026, 202.096 308.382, 201.046 307.015 C 199.996 305.648, 198.886 304.781, 198.579 305.088 C 198.272 305.395, 199.436 306.963, 201.165 308.573 C 202.894 310.183, 203.988 310.938, 203.596 310.250 C 201.564 306.692, 204.637 309.469, 214.187 319.822 C 217.955 323.907, 218.256 324.044, 219.661 322.322 C 220.479 321.320, 220.817 321.175, 220.413 322 C 220.008 322.825, 220.875 322.409, 222.339 321.076 C 225.324 318.356, 225.941 317.027, 223.250 319.110 C 221.825 320.214, 221.854 320.050, 223.405 318.233 C 225.357 315.945, 226.606 315.210, 225.500 317 C 224.522 318.582, 226.620 318.162, 228 316.500 C 228.685 315.675, 228.910 315, 228.500 315 C 228.090 315, 228.293 314.352, 228.951 313.559 C 229.608 312.767, 230.716 312.338, 231.413 312.605 C 232.110 312.872, 233.256 312.396, 233.961 311.547 C 235.058 310.226, 233.492 308.192, 223.114 297.455 C 216.444 290.555, 210.262 283.804, 209.378 282.454 C 207.163 279.073, 206.578 279.284, 197.500 286.745 M 154.924 284.750 L 152.500 287.500 155.250 285.076 C 157.820 282.810, 158.459 282, 157.674 282 C 157.495 282, 156.258 283.238, 154.924 284.750 M 200.167 287.437 C 191.858 294.137, 190.713 295.866, 198.500 289.952 C 207.303 283.268, 207.632 282.983, 206.450 283.068 C 205.928 283.106, 203.100 285.072, 200.167 287.437 M 298.872 284.750 C 297.629 286.336, 297.664 286.371, 299.250 285.128 C 300.916 283.821, 301.445 283, 300.622 283 C 300.415 283, 299.627 283.788, 298.872 284.750 M 148.924 289.750 L 146.500 292.500 149.250 290.076 C 151.820 287.810, 152.459 287, 151.674 287 C 151.495 287, 150.258 288.238, 148.924 289.750 M 294 291 C 292.258 293.200, 291.057 295, 291.332 295 C 291.607 295, 293.258 293.200, 295 291 C 296.742 288.800, 297.943 287, 297.668 287 C 297.393 287, 295.742 288.800, 294 291 M 177.405 293.250 L 175.500 295.500 177.750 293.595 C 178.988 292.547, 180 291.535, 180 291.345 C 180 290.545, 179.195 291.136, 177.405 293.250 M 129.637 307.250 C 110.934 325.827, 98.102 343.081, 92.990 356.527 C 91.544 360.330, 92.782 359.458, 94.431 355.511 C 96.107 351.499, 103.606 339.916, 107.385 335.500 C 109.573 332.944, 110.116 332.722, 111.057 334 C 111.930 335.185, 112.040 334.940, 111.583 332.833 C 111.264 331.366, 111.340 330.016, 111.752 329.833 C 112.163 329.650, 113.399 327.700, 114.498 325.500 C 115.598 323.300, 123.183 314.863, 131.354 306.750 C 139.526 298.637, 145.937 292, 145.601 292 C 145.265 292, 138.081 298.863, 129.637 307.250 M 219.500 298 C 222.766 301.300, 225.662 304, 225.937 304 C 226.212 304, 223.766 301.300, 220.500 298 C 217.234 294.700, 214.338 292, 214.063 292 C 213.788 292, 216.234 294.700, 219.500 298 M 439.031 300.500 C 439.031 301.050, 439.467 302.175, 440 303 C 440.533 303.825, 440.969 304.050, 440.969 303.500 C 440.969 302.950, 440.533 301.825, 440 301 C 439.467 300.175, 439.031 299.950, 439.031 300.500 M 278.490 305.016 C 278.144 305.575, 277.432 305.767, 276.906 305.442 C 276.381 305.117, 276.015 305.222, 276.094 305.676 C 276.437 307.654, 275.901 308.163, 274.606 307.088 C 272.958 305.721, 270.046 308.046, 269.930 310.821 C 269.873 312.175, 269.693 312.113, 269 310.500 C 268.230 308.707, 268.133 308.776, 268.070 311.162 C 267.979 314.601, 272.061 314.441, 275.220 310.882 C 276.382 309.572, 278.237 307.488, 279.341 306.250 C 280.445 305.012, 280.847 304, 280.233 304 C 279.620 304, 278.835 304.457, 278.490 305.016 M 279.872 309.750 C 278.629 311.336, 278.664 311.371, 280.250 310.128 C 281.212 309.373, 282 308.585, 282 308.378 C 282 307.555, 281.179 308.084, 279.872 309.750 M 464.079 312.583 C 464.127 313.748, 464.364 313.985, 464.683 313.188 C 464.972 312.466, 464.936 311.603, 464.604 311.271 C 464.272 310.939, 464.036 311.529, 464.079 312.583 M 336 320.378 C 336 320.585, 336.788 321.373, 337.750 322.128 C 339.336 323.371, 339.371 323.336, 338.128 321.750 C 336.821 320.084, 336 319.555, 336 320.378 M 116.825 326.326 C 116.452 328.151, 116.592 328.808, 117.218 328.182 C 117.751 327.649, 118.011 326.377, 117.794 325.356 C 117.503 323.981, 117.251 324.233, 116.825 326.326 M 118.079 330.809 C 118.032 331.583, 117.489 331.811, 116.750 331.367 C 115.997 330.915, 116.082 331.332, 116.963 332.418 C 118.460 334.259, 119.619 333.121, 118.662 330.750 C 118.274 329.789, 118.140 329.802, 118.079 330.809 M 252.872 333.750 C 251.629 335.336, 251.664 335.371, 253.250 334.128 C 254.213 333.373, 255 332.585, 255 332.378 C 255 331.555, 254.179 332.084, 252.872 333.750 M 351.606 335.152 C 352.648 336.611, 353.700 337.611, 353.944 337.374 C 354.189 337.138, 353.337 335.944, 352.050 334.722 L 349.712 332.500 351.606 335.152 M 247.507 334.989 C 247.157 335.555, 247.558 335.723, 248.448 335.382 C 250.180 334.717, 250.497 334, 249.059 334 C 248.541 334, 247.843 334.445, 247.507 334.989 M 257.829 342.809 C 254.160 345.939, 251.123 348.907, 251.079 349.405 C 251.036 349.903, 251.787 349.625, 252.750 348.788 C 255.901 346.047, 264.958 340, 265.913 340 C 266.853 340, 268.270 341.034, 284.250 353.384 C 289.063 357.104, 293 359.940, 293 359.687 C 293 359.212, 265.223 336.954, 264.760 337.059 C 264.617 337.092, 261.498 339.679, 257.829 342.809 M 245.872 339.750 C 244.629 341.336, 244.664 341.371, 246.250 340.128 C 247.213 339.373, 248 338.585, 248 338.378 C 248 337.555, 247.179 338.084, 245.872 339.750 M 29.079 341.583 C 29.127 342.748, 29.364 342.985, 29.683 342.188 C 29.972 341.466, 29.936 340.603, 29.604 340.271 C 29.272 339.939, 29.036 340.529, 29.079 341.583 M 265 349.756 C 265 350.172, 263.554 351.152, 261.786 351.935 C 257.765 353.714, 259.784 354.556, 264.411 353.029 C 269.212 351.445, 271.161 349, 267.622 349 C 266.180 349, 265 349.340, 265 349.756 M 267.122 357.101 C 265.882 358.256, 265.120 359.453, 265.428 359.761 C 265.736 360.069, 266.815 359.573, 267.825 358.658 C 268.836 357.744, 269.963 357.297, 270.331 357.664 C 270.699 358.032, 271 357.583, 271 356.667 C 271 354.437, 269.842 354.567, 267.122 357.101 M 114.564 358.707 C 114.022 360.132, 114.136 360.247, 115.124 359.267 C 115.808 358.588, 116.115 357.781, 115.807 357.474 C 115.499 357.166, 114.940 357.721, 114.564 358.707 M 90.624 361.539 C 89.659 364.053, 89.943 364.702, 91.122 362.675 C 91.706 361.671, 91.973 360.639, 91.715 360.382 C 91.458 360.124, 90.966 360.645, 90.624 361.539 M 295 361.285 C 295 361.544, 298.038 364.383, 301.750 367.594 C 305.462 370.804, 307.600 372.384, 306.500 371.104 C 304.209 368.439, 295 360.575, 295 361.285 M 277 373.378 C 277 373.585, 277.788 374.373, 278.750 375.128 C 280.336 376.371, 280.371 376.336, 279.128 374.750 C 277.821 373.084, 277 372.555, 277 373.378 M 316 380.500 C 317.866 382.425, 319.617 384, 319.892 384 C 320.167 384, 318.866 382.425, 317 380.500 C 315.134 378.575, 313.383 377, 313.108 377 C 312.833 377, 314.134 378.575, 316 380.500 M 157.462 388.250 L 152.500 393.500 157.750 388.538 C 160.637 385.808, 163 383.446, 163 383.288 C 163 382.541, 162.074 383.372, 157.462 388.250 M 328.489 393.250 C 332.256 397.512, 335.524 401, 335.753 401 C 336.574 401, 330.081 393.417, 325.905 389.500 C 323.404 387.153, 324.471 388.703, 328.489 393.250 M 147.405 399.250 L 145.500 401.500 147.750 399.595 C 148.988 398.547, 150 397.535, 150 397.345 C 150 396.545, 149.195 397.136, 147.405 399.250 M 336 402.378 C 336 402.585, 336.788 403.373, 337.750 404.128 C 339.336 405.371, 339.371 405.336, 338.128 403.750 C 336.821 402.084, 336 401.555, 336 402.378 M 7.079 411.583 C 7.127 412.748, 7.364 412.985, 7.683 412.188 C 7.972 411.466, 7.936 410.603, 7.604 410.271 C 7.272 409.939, 7.036 410.529, 7.079 411.583 M 349.564 422.293 C 349.940 423.279, 350.499 423.834, 350.807 423.526 C 351.115 423.219, 350.808 422.412, 350.124 421.733 C 349.136 420.753, 349.022 420.868, 349.564 422.293 M 355.031 432.500 C 355.031 433.050, 355.467 434.175, 356 435 C 356.533 435.825, 356.969 436.050, 356.969 435.500 C 356.969 434.950, 356.533 433.825, 356 433 C 355.467 432.175, 355.031 431.950, 355.031 432.500 M 357 437.941 C 357 438.459, 357.445 439.157, 357.989 439.493 C 358.555 439.843, 358.723 439.442, 358.382 438.552 C 357.717 436.820, 357 436.503, 357 437.941 M 465.624 439.539 C 464.659 442.053, 464.943 442.702, 466.122 440.675 C 466.706 439.671, 466.973 438.639, 466.715 438.382 C 466.458 438.124, 465.966 438.645, 465.624 439.539 M 460.695 450.550 C 457.023 458.036, 457.362 458.923, 461.115 451.650 C 462.775 448.432, 463.966 445.633, 463.761 445.428 C 463.557 445.223, 462.177 447.528, 460.695 450.550 M 80.079 449.583 C 80.127 450.748, 80.364 450.985, 80.683 450.188 C 80.972 449.466, 80.936 448.603, 80.604 448.271 C 80.272 447.939, 80.036 448.529, 80.079 449.583 M 81.158 455 C 81.158 456.375, 81.385 456.938, 81.662 456.250 C 81.940 455.563, 81.940 454.438, 81.662 453.750 C 81.385 453.063, 81.158 453.625, 81.158 455 M 398.079 461.583 C 398.127 462.748, 398.364 462.985, 398.683 462.188 C 398.972 461.466, 398.936 460.603, 398.604 460.271 C 398.272 459.939, 398.036 460.529, 398.079 461.583 M 425.797 467.126 C 418.785 475.903, 393.323 495, 388.634 495 C 387.800 495, 386.840 495.450, 386.500 496 C 384.549 499.156, 395.365 494.056, 404.605 487.463 C 414.187 480.625, 432.225 463, 429.640 463 C 429.340 463, 427.611 464.857, 425.797 467.126 M 369.733 475.124 C 370.412 475.808, 371.219 476.115, 371.526 475.807 C 371.834 475.499, 371.279 474.940, 370.293 474.564 C 368.868 474.022, 368.753 474.136, 369.733 475.124 M 391.624 481.539 C 390.659 484.053, 390.943 484.702, 392.122 482.675 C 392.706 481.671, 392.973 480.639, 392.715 480.382 C 392.458 480.124, 391.966 480.645, 391.624 481.539" stroke="none" fill="#c4922a" fill-rule="evenodd"/>
</svg>