<svg xmlns="http://www.w3.org/2000/svg" width="204" height="430" viewBox="0 0 204 430" version="1.1">
	<path d="M 118.822 12.210 C 101.431 31.592, 84.358 54.152, 85.582 56.133 C 86.071 56.923, 85.874 57.040, 84.985 56.490 C 84.028 55.899, 83.834 56.125, 84.286 57.304 C 84.631 58.202, 84.413 59.245, 83.802 59.622 C 83.087 60.064, 82.955 59.809, 83.432 58.905 C 83.840 58.132, 83.257 58.625, 82.137 60 C 79.762 62.914, 75.656 70, 76.341 70 C 76.599 70, 78.017 67.940, 79.493 65.421 C 80.969 62.903, 82.426 61.092, 82.731 61.397 C 83.036 61.702, 82.836 62.525, 82.287 63.226 C 79.521 66.757, 81.714 72.531, 85.041 70.475 C 86.593 69.516, 86.167 70.851, 83.335 75.822 C 79.086 83.282, 82.224 79.280, 87.363 70.684 C 89.934 66.386, 91.770 62.437, 91.444 61.909 C 91.118 61.382, 91.301 61.074, 91.850 61.225 C 92.400 61.376, 95.139 58.194, 97.936 54.153 C 102.115 48.118, 113.445 33.682, 124.584 20.201 L 126.667 17.679 133.442 25.590 C 157.278 53.422, 174.481 81.685, 182.896 106.837 C 192.377 135.174, 191.012 168.283, 179.418 191.162 C 176.250 197.413, 177.173 197.490, 180.477 191.250 C 182.373 187.669, 182.833 187.217, 182.347 189.414 C 181.781 191.968, 181.936 192.246, 183.600 191.662 C 185.334 191.054, 185.353 191.110, 183.822 192.305 C 182.720 193.166, 182.440 194.094, 183.006 195.010 C 183.480 195.777, 183.646 196.763, 183.375 197.202 C 183.104 197.641, 183.332 198, 183.882 198 C 184.432 198, 185.165 197.543, 185.510 196.984 C 185.856 196.425, 186.552 196.223, 187.058 196.536 C 187.566 196.850, 187.683 196.337, 187.319 195.388 C 186.898 194.292, 187.049 193.912, 187.736 194.337 C 189.380 195.353, 195.303 180.392, 194.548 177.131 C 194.138 175.357, 194.239 174.950, 194.859 175.880 C 195.983 177.566, 197.421 171.416, 199.073 157.856 C 203.581 120.872, 186.152 75.248, 150.547 30.822 C 142.003 20.162, 128.350 4.720, 127.018 4.210 C 126.601 4.051, 122.913 7.651, 118.822 12.210 M 86.980 67.524 C 86.284 68.362, 85.968 69.301, 86.276 69.610 C 86.585 69.919, 87.340 69.233, 87.954 68.086 C 89.264 65.638, 88.778 65.358, 86.980 67.524 M 69.947 81.105 C 67.158 86.663, 65.036 91.369, 65.231 91.564 C 65.425 91.759, 67.926 87.212, 70.786 81.459 C 73.647 75.707, 75.770 71, 75.503 71 C 75.236 71, 72.736 75.547, 69.947 81.105 M 74.099 77.557 C 71.539 81.896, 71.537 81.646, 74.130 82.324 C 75.665 82.725, 76.083 83.386, 75.628 84.690 C 75.190 85.944, 75.651 85.732, 77.130 84 C 78.304 82.625, 79.559 81.580, 79.918 81.679 C 80.277 81.777, 80.603 81.102, 80.641 80.179 C 80.680 79.255, 81.058 77.690, 81.482 76.699 C 82.152 75.135, 81.889 74.990, 79.477 75.595 C 77.510 76.089, 76.908 75.958, 77.410 75.146 C 77.799 74.516, 77.686 74, 77.158 74 C 76.630 74, 75.253 75.601, 74.099 77.557 M 124.086 83.618 C 122.954 85.057, 122.253 86.601, 122.530 87.048 C 122.806 87.496, 122.506 88.187, 121.862 88.585 C 121.131 89.037, 120.959 88.876, 121.405 88.155 C 121.797 87.520, 121.878 87, 121.585 87 C 120.952 87, 110.511 102.474, 106.571 109.250 C 105.053 111.862, 104.026 114, 104.291 114 C 104.556 114, 106.643 110.850, 108.931 107 C 113.863 98.698, 115.389 97.568, 110.881 105.557 L 107.745 111.114 109.920 113.140 C 111.767 114.861, 112.339 114.965, 113.711 113.833 C 115.161 112.637, 115.204 112.732, 114.129 114.750 C 113.469 115.987, 113.159 117, 113.439 117 C 113.719 117, 114.672 115.600, 115.557 113.890 C 116.499 112.068, 116.676 111.082, 115.983 111.511 C 115.082 112.068, 115.070 111.737, 115.935 110.121 C 116.560 108.954, 117.306 108, 117.594 108 C 117.882 108, 117.840 108.450, 117.500 109 C 117.160 109.550, 117.070 110, 117.299 110 C 118.179 110, 125.116 98.783, 124.573 98.239 C 124.258 97.924, 123.990 98.079, 123.978 98.583 C 123.966 99.088, 123.020 100.625, 121.876 102 L 119.796 104.500 121.704 101 C 122.753 99.075, 124.037 97.568, 124.556 97.651 C 125.075 97.735, 126.236 97.409, 127.134 96.928 C 128.366 96.269, 128.736 96.479, 128.634 97.777 C 128.561 98.724, 129.096 99.376, 129.824 99.225 C 130.553 99.074, 130.864 99.411, 130.516 99.973 C 129.694 101.305, 132.427 105.216, 133.500 104.244 C 133.951 103.835, 134.060 103.961, 133.740 104.525 C 132.948 105.925, 139.477 119.170, 140.502 118.242 C 140.952 117.834, 140.990 118.073, 140.587 118.774 C 140.183 119.474, 140.772 122.849, 141.895 126.274 C 145.438 137.077, 146.270 142.111, 146.975 157 L 147.662 171.500 147.910 159 C 148.046 152.125, 148.386 147.065, 148.664 147.756 C 148.943 148.447, 149.540 148.784, 149.992 148.505 C 150.444 148.226, 150.578 148.898, 150.290 149.999 C 149.909 151.458, 150.272 152.021, 151.633 152.079 C 152.671 152.123, 152.949 152.381, 152.259 152.659 C 151.320 153.039, 151.383 153.526, 152.518 154.661 C 153.343 155.486, 153.782 156.544, 153.493 157.012 C 153.204 157.479, 153.382 158.118, 153.890 158.432 C 154.397 158.745, 154.590 159.851, 154.319 160.888 C 154.048 161.926, 154.318 163.079, 154.920 163.451 C 155.694 163.929, 155.905 161.109, 155.640 153.813 C 155.396 147.081, 155.527 145.063, 156.017 148 C 156.695 152.059, 156.736 151.905, 156.439 146.431 C 156.052 139.312, 152.117 122.810, 150.974 123.516 C 150.541 123.784, 150.440 123.032, 150.751 121.845 C 151.135 120.377, 150.949 119.914, 150.169 120.396 C 149.441 120.845, 149.228 120.571, 149.583 119.643 C 150.853 116.335, 134.023 86.306, 131.657 87.659 C 131.021 88.023, 130.824 87.962, 131.220 87.523 C 132.017 86.642, 128.371 81, 127.004 81 C 126.532 81, 125.219 82.178, 124.086 83.618 M 75.679 90.546 C 73.330 95.473, 73.661 96.311, 76.116 91.656 C 77.232 89.541, 77.968 87.634, 77.752 87.418 C 77.535 87.202, 76.603 88.610, 75.679 90.546 M 117 94.500 C 115.297 96.975, 114.129 99, 114.404 99 C 114.679 99, 116.297 96.975, 118 94.500 C 119.703 92.025, 120.871 90, 120.596 90 C 120.321 90, 118.703 92.025, 117 94.500 M 63.624 94.539 C 62.659 97.053, 62.943 97.702, 64.122 95.675 C 64.706 94.671, 64.973 93.639, 64.715 93.382 C 64.458 93.124, 63.966 93.645, 63.624 94.539 M 72.624 97.539 C 71.659 100.053, 71.943 100.702, 73.122 98.675 C 73.706 97.671, 73.973 96.639, 73.715 96.382 C 73.458 96.124, 72.966 96.645, 72.624 97.539 M 58 112 C 57.326 114.809, 56.973 117.307, 57.217 117.550 C 57.460 117.793, 58.193 115.676, 58.846 112.846 C 59.499 110.016, 59.852 107.519, 59.630 107.296 C 59.407 107.074, 58.674 109.191, 58 112 M 67.079 114.583 C 67.127 115.748, 67.364 115.985, 67.683 115.188 C 67.972 114.466, 67.936 113.603, 67.604 113.271 C 67.272 112.939, 67.036 113.529, 67.079 114.583 M 63.412 117.750 C 63.839 118.505, 63.501 119.049, 62.559 119.125 C 61.702 119.194, 60.444 119.306, 59.764 119.375 C 57.608 119.593, 57.736 123.105, 59.975 125.192 C 62.543 127.584, 62.912 127.324, 64.038 122.330 C 64.614 119.776, 64.536 118.168, 63.804 117.501 C 63.045 116.809, 62.924 116.886, 63.412 117.750 M 66.079 118.583 C 66.127 119.748, 66.364 119.985, 66.683 119.188 C 66.972 118.466, 66.936 117.603, 66.604 117.271 C 66.272 116.939, 66.036 117.529, 66.079 118.583 M 100.954 119.086 C 100.340 120.233, 100.026 121.360, 100.257 121.590 C 100.487 121.820, 101.189 120.882, 101.816 119.504 C 103.194 116.480, 102.523 116.154, 100.954 119.086 M 110.452 121.093 C 109.572 122.794, 109.030 124.363, 109.247 124.580 C 109.464 124.797, 110.390 123.406, 111.305 121.487 C 113.361 117.175, 112.649 116.845, 110.452 121.093 M 55.127 126.502 C 53.068 140.349, 53.958 152.179, 58.059 165.456 C 59.181 169.087, 60.447 171.842, 60.873 171.578 C 61.299 171.315, 61.615 172.090, 61.574 173.300 C 61.530 174.624, 62.028 175.391, 62.824 175.225 C 63.553 175.074, 63.859 175.420, 63.504 175.993 C 62.007 178.416, 72.584 191.691, 81.500 198.581 C 92.970 207.444, 110.258 214.691, 113.503 211.997 C 115.183 210.604, 115.532 205.447, 114.011 204.507 C 113.432 204.149, 113.264 204.641, 113.606 205.698 C 114.076 207.152, 113.990 207.219, 113.160 206.048 C 112.595 205.249, 112.336 204.266, 112.585 203.863 C 113.336 202.647, 108.725 194.052, 107.670 194.704 C 107.132 195.037, 106.961 194.873, 107.290 194.340 C 107.620 193.806, 106.490 189.349, 104.779 184.435 C 102.256 177.187, 101.530 173.140, 100.931 163 L 100.193 150.500 100.500 163 C 100.669 169.875, 101.068 176.625, 101.387 178 C 101.705 179.375, 101.333 178.700, 100.560 176.500 C 99.786 174.300, 99.119 171.064, 99.077 169.309 C 98.996 165.960, 97.530 164.097, 96.664 166.244 C 96.368 166.980, 96.125 166.751, 96.079 165.691 C 96.036 164.696, 95.588 164.136, 95.085 164.447 C 94.582 164.758, 93.943 164.447, 93.664 163.756 C 93.359 162.998, 93.127 163.194, 93.079 164.250 C 93.036 165.213, 92.550 166, 92 166 C 90.685 166, 90.731 170.647, 92.111 177.081 C 92.906 180.789, 93.483 181.868, 94.141 180.880 C 94.767 179.941, 94.872 180.317, 94.471 182.054 C 93.789 185.011, 97.665 196.325, 99.065 195.460 C 99.567 195.150, 99.714 195.583, 99.392 196.422 C 98.079 199.843, 79.671 185.258, 73.965 176.276 C 72.489 173.953, 70.921 172.378, 70.480 172.776 C 70.040 173.174, 69.978 172.978, 70.343 172.340 C 71.200 170.842, 70.062 167.844, 68.907 168.558 C 68.421 168.858, 68.319 168.332, 68.681 167.388 C 69.164 166.132, 68.985 165.891, 68.015 166.490 C 67.154 167.023, 66.930 166.922, 67.376 166.200 C 68.370 164.592, 66.982 159.893, 65.739 160.661 C 65.139 161.032, 64.987 160.830, 65.384 160.187 C 65.766 159.570, 65.753 156.688, 65.356 153.783 C 64.763 149.446, 64.510 148.948, 63.942 151 C 63.561 152.375, 63.368 149.450, 63.512 144.500 C 63.711 137.644, 63.601 136.691, 63.050 140.500 L 62.326 145.500 62.163 139.158 C 62.044 134.529, 61.465 132.135, 60.018 130.296 L 58.036 127.776 57.018 130.453 C 56.458 131.925, 55.917 136.138, 55.815 139.815 L 55.630 146.500 55.245 141 C 55.034 137.975, 55.373 131.969, 55.999 127.652 C 56.626 123.336, 56.939 119.606, 56.696 119.363 C 56.454 119.120, 55.747 122.333, 55.127 126.502 M 64.681 124.510 C 64.318 126.704, 64.072 129.850, 64.133 131.500 C 64.194 133.150, 64.638 131.800, 65.119 128.500 C 66.099 121.789, 65.712 118.266, 64.681 124.510 M 142.086 123.500 C 142.190 125.394, 143.856 128.584, 143.914 127 C 143.945 126.175, 143.533 124.825, 143 124 C 142.467 123.175, 142.055 122.950, 142.086 123.500 M 97.624 126.539 C 96.659 129.053, 96.943 129.702, 98.122 127.675 C 98.706 126.671, 98.973 125.639, 98.715 125.382 C 98.458 125.124, 97.966 125.645, 97.624 126.539 M 61 129.382 C 61 130.207, 61.450 131.160, 62 131.500 C 62.550 131.840, 63 131.443, 63 130.618 C 63 129.793, 62.550 128.840, 62 128.500 C 61.450 128.160, 61 128.557, 61 129.382 M 105.098 133.469 C 103.944 136.552, 103.023 139.621, 103.052 140.288 C 103.081 140.954, 104.184 138.591, 105.504 135.035 C 106.824 131.480, 107.744 128.411, 107.550 128.216 C 107.355 128.021, 106.251 130.385, 105.098 133.469 M 94.070 136.509 C 92.932 140.195, 92.024 143.951, 92.054 144.855 C 92.083 145.760, 93.171 142.901, 94.472 138.502 C 95.773 134.103, 96.680 130.347, 96.489 130.155 C 96.297 129.964, 95.209 132.823, 94.070 136.509 M 146.079 138.583 C 146.127 139.748, 146.364 139.985, 146.683 139.188 C 146.972 138.466, 146.936 137.603, 146.604 137.271 C 146.272 136.939, 146.036 137.529, 146.079 138.583 M 147.195 143.500 C 147.215 145.150, 147.439 145.704, 147.693 144.731 C 147.947 143.758, 147.930 142.408, 147.656 141.731 C 147.382 141.054, 147.175 141.850, 147.195 143.500 M 101.641 144.210 C 101.303 145.470, 101.066 147.400, 101.114 148.500 C 101.162 149.600, 101.613 148.745, 102.116 146.599 C 103.091 142.444, 102.674 140.351, 101.641 144.210 M 91.232 150 C 91.232 151.925, 91.438 152.713, 91.689 151.750 C 91.941 150.787, 91.941 149.213, 91.689 148.250 C 91.438 147.287, 91.232 148.075, 91.232 150 M 157.286 158.500 C 157.294 161.250, 157.488 162.256, 157.718 160.736 C 157.947 159.216, 157.941 156.966, 157.704 155.736 C 157.467 154.506, 157.279 155.750, 157.286 158.500 M 90.300 160 C 90.300 163.025, 90.487 164.262, 90.716 162.750 C 90.945 161.238, 90.945 158.762, 90.716 157.250 C 90.487 155.738, 90.300 156.975, 90.300 160 M 154.079 166.583 C 154.127 167.748, 154.364 167.985, 154.683 167.188 C 154.972 166.466, 154.936 165.603, 154.604 165.271 C 154.272 164.939, 154.036 165.529, 154.079 166.583 M 156.272 169 C 156.272 171.475, 156.467 172.488, 156.706 171.250 C 156.944 170.012, 156.944 167.988, 156.706 166.750 C 156.467 165.512, 156.272 166.525, 156.272 169 M 188.079 168.583 C 188.127 169.748, 188.364 169.985, 188.683 169.188 C 188.972 168.466, 188.936 167.603, 188.604 167.271 C 188.272 166.939, 188.036 167.529, 188.079 168.583 M 92.195 171.500 C 92.215 173.150, 92.439 173.704, 92.693 172.731 C 92.947 171.758, 92.930 170.408, 92.656 169.731 C 92.382 169.054, 92.175 169.850, 92.195 171.500 M 146.158 174 C 146.158 175.375, 146.385 175.938, 146.662 175.250 C 146.940 174.563, 146.940 173.438, 146.662 172.750 C 146.385 172.063, 146.158 172.625, 146.158 174 M 154.600 178.100 C 154.234 180.392, 154.129 182.462, 154.368 182.701 C 154.606 182.940, 155.116 181.274, 155.500 179 C 155.884 176.726, 155.989 174.655, 155.732 174.399 C 155.476 174.143, 154.966 175.808, 154.600 178.100 M 93.158 177 C 93.158 178.375, 93.385 178.938, 93.662 178.250 C 93.940 177.563, 93.940 176.438, 93.662 175.750 C 93.385 175.063, 93.158 175.625, 93.158 177 M 145.079 178.583 C 145.127 179.748, 145.364 179.985, 145.683 179.188 C 145.972 178.466, 145.936 177.603, 145.604 177.271 C 145.272 176.939, 145.036 177.529, 145.079 178.583 M 143.571 183.571 C 143.204 185.037, 143.096 186.429, 143.331 186.665 C 143.567 186.900, 144.061 185.894, 144.429 184.429 C 144.796 182.963, 144.904 181.571, 144.669 181.335 C 144.433 181.100, 143.939 182.106, 143.571 183.571 M 183.624 183.539 C 182.659 186.053, 182.943 186.702, 184.122 184.675 C 184.706 183.671, 184.973 182.639, 184.715 182.382 C 184.458 182.124, 183.966 182.645, 183.624 183.539 M 104.031 187.500 C 104.031 188.050, 104.467 189.175, 105 190 C 105.533 190.825, 105.969 191.050, 105.969 190.500 C 105.969 189.950, 105.533 188.825, 105 188 C 104.467 187.175, 104.031 186.950, 104.031 187.500 M 152.079 187.668 C 152.036 188.311, 151.741 189.661, 151.424 190.668 C 150.877 192.409, 150.906 192.412, 151.995 190.712 C 152.626 189.729, 152.920 188.379, 152.650 187.712 C 152.295 186.837, 152.136 186.825, 152.079 187.668 M 141.624 189.539 C 140.659 192.053, 140.943 192.702, 142.122 190.675 C 142.706 189.671, 142.973 188.639, 142.715 188.382 C 142.458 188.124, 141.966 188.645, 141.624 189.539 M 149.624 194.539 C 148.659 197.053, 148.943 197.702, 150.122 195.675 C 150.706 194.671, 150.973 193.639, 150.715 193.382 C 150.458 193.124, 149.966 193.645, 149.624 194.539 M 138.564 196.707 C 138.022 198.132, 138.136 198.247, 139.124 197.267 C 139.808 196.588, 140.115 195.781, 139.807 195.474 C 139.499 195.166, 138.940 195.721, 138.564 196.707 M 171.026 205.250 C 165.849 213.088, 151.351 228.644, 140.500 238.004 C 137.750 240.376, 136.400 241.683, 137.500 240.908 C 139.339 239.614, 139.390 239.640, 138.137 241.239 C 137.387 242.195, 136.372 242.730, 135.881 242.427 C 135.390 242.123, 133.079 243.424, 130.744 245.318 C 128.410 247.211, 116.825 255.403, 105 263.523 C 67.194 289.483, 51.742 302.870, 37.579 321.938 C 29.946 332.215, 21.056 348.999, 17.551 359.750 C 15.608 365.709, 14.793 366.542, 15.593 361.750 C 23.488 314.456, 39.130 293.080, 93.217 255.669 C 112.796 242.127, 127.135 229.655, 135.953 218.500 C 140.636 212.576, 145.200 205.802, 143.539 207.241 C 143.069 207.649, 142.101 207.499, 141.389 206.908 C 140.436 206.117, 139.572 206.321, 138.112 207.681 C 136.057 209.595, 133.297 215.553, 134.934 214.541 C 137.230 213.122, 136.841 216.306, 134.335 219.447 C 132.483 221.768, 131.325 222.525, 130.836 221.735 C 130.434 221.085, 130.644 220.161, 131.303 219.682 C 132.096 219.105, 131.918 218.998, 130.776 219.364 C 129.774 219.686, 128.679 219.248, 128.158 218.317 C 127.399 216.962, 126.515 217.390, 122.387 221.109 C 117.572 225.446, 117.583 225.421, 123.305 219.140 C 126.491 215.642, 129.818 211.682, 130.698 210.339 C 131.781 208.685, 132.625 208.225, 133.314 208.914 C 134.360 209.960, 136.935 207.535, 136.938 205.500 C 136.939 204.950, 136.481 205.287, 135.920 206.250 C 135.359 207.213, 134.436 208, 133.869 208 C 133.301 208, 133.800 206.313, 134.976 204.250 C 136.284 201.958, 136.413 201.462, 135.308 202.976 C 128.834 211.842, 120.973 220.707, 114.265 226.706 C 107.013 233.191, 101.339 237.486, 73.688 257.423 C 44.297 278.615, 29.884 294.224, 18.214 317.502 C 5.505 342.851, 1.489 378.092, 6.931 416.514 C 7.985 423.961, 9.196 426, 12.566 426 C 16.519 426, 18 422.499, 18 413.156 C 18 384.506, 28.069 352.052, 43.731 330.223 C 58.204 310.050, 71.954 298.173, 114 269.526 C 129.741 258.801, 144 248.253, 144 247.333 C 144 247.015, 143.213 247.373, 142.250 248.128 C 140.666 249.370, 140.630 249.335, 141.863 247.761 C 142.613 246.805, 143.601 246.253, 144.058 246.536 C 145.118 247.191, 156.559 237.256, 164.996 228.354 C 170.196 222.867, 169.597 223.300, 161.996 230.523 C 156.773 235.486, 150.941 240.886, 149.036 242.523 L 145.573 245.500 149.286 241.247 C 153.017 236.975, 154.205 234.755, 151.606 236.912 C 150.539 237.797, 149.892 237.749, 148.847 236.704 C 147.305 235.162, 145.413 235.514, 142.521 237.880 C 141.432 238.771, 145.378 234.832, 151.289 229.127 C 161.449 219.321, 172.212 206.357, 175.545 199.912 C 178.070 195.031, 176.736 196.606, 171.026 205.250 M 145.500 203 C 144.647 204.650, 144.174 206, 144.449 206 C 144.724 206, 145.647 204.650, 146.500 203 C 147.353 201.350, 147.826 200, 147.551 200 C 147.276 200, 146.353 201.350, 145.500 203 M 183 204 C 182.411 205.100, 182.155 206, 182.430 206 C 182.705 206, 183.411 205.100, 184 204 C 184.589 202.900, 184.845 202, 184.570 202 C 184.295 202, 183.589 202.900, 183 204 M 139.158 211.457 C 138.008 213.406, 137.247 215, 137.466 215 C 138.248 215, 142.209 208.875, 141.733 208.400 C 141.466 208.133, 140.307 209.509, 139.158 211.457 M 111 211 C 108.673 211.745, 108.651 211.808, 110.691 211.900 C 111.896 211.955, 113.160 211.550, 113.500 211 C 113.840 210.450, 113.979 210.045, 113.809 210.100 C 113.639 210.155, 112.375 210.560, 111 211 M 177 213 C 175.825 214.650, 175.089 216, 175.364 216 C 175.639 216, 176.825 214.650, 178 213 C 179.175 211.350, 179.911 210, 179.636 210 C 179.361 210, 178.175 211.350, 177 213 M 172.405 219.250 L 170.500 221.500 172.750 219.595 C 174.864 217.805, 175.455 217, 174.655 217 C 174.465 217, 173.453 218.012, 172.405 219.250 M 126.453 227.250 L 122.500 231.500 126.750 227.547 C 129.088 225.373, 131 223.460, 131 223.297 C 131 222.540, 130.129 223.298, 126.453 227.250" stroke="none" fill="#c4922a" fill-rule="evenodd"/>
</svg>